<?xml version="1.0" encoding="utf-8"?>
<!-- Generator: Adobe Illustrator 27.0.1, SVG Export Plug-In . SVG Version: 6.00 Build 0)  -->
<svg version="1.1" id="Layer_1" xmlns="http://www.w3.org/2000/svg" xmlns:xlink="http://www.w3.org/1999/xlink" x="0px" y="0px"
	 viewBox="0 0 250 250" style="enable-background:new 0 0 250 250;" xml:space="preserve">
<style type="text/css">
	.st0{fill:#FDF4F9;enable-background:new    ;}
	.st1{fill:#3B0F37;}
	.st2{fill:#FC9FBC;}
	.st3{fill:#FFFFFF;}
	.st4{fill:#3F3D56;}
	.st5{fill:#F2F2F2;}
	.st6{fill:#6C63FF;}
	.st7{fill:#CCCCCC;}
	.st8{fill:#FFB7B7;}
	.st9{fill:#2F2E41;}
	.st10{fill:#9F616A;}
	.st11{fill:#F1F1F1;}
	.st12{opacity:0.2;enable-background:new    ;}
	.st13{fill:#CBCBCB;}
</style>
<path class="st0" d="M5.2,195.6c-18-33.4,17.3-34.7,8.6-68.1C-4.3,58.3,94.7,31,123.1,76c14.6,23.2,41.9,28.6,50.5,23
	c20-13.1,55.5,0,64.9,24c14.5,36.8-15.2,72.6-15.2,72.6L5.2,195.6z"/>
<path class="st1" d="M0.5,195h249c0.3,0,0.5,0.2,0.5,0.5v0c0,0.3-0.2,0.5-0.5,0.5H0.5c-0.3,0-0.5-0.2-0.5-0.5v0
	C0,195.2,0.2,195,0.5,195z"/>
<g id="Group_11" transform="translate(0 0)">
	<path id="Path_309" class="st2" d="M183.6,195.2v-13.8C183.6,181.4,189,191.2,183.6,195.2z"/>
	<path id="Path_310" class="st2" d="M184,195.2l-10.2-9.3C173.8,185.9,184.6,188.5,184,195.2z"/>
	<path id="Path_311" class="st3" d="M148.1,118.7l-53.9,31.5c-0.4,0.2-0.9,0.1-1.1-0.3L58.4,90.6c-0.2-0.4-0.1-0.9,0.3-1.1
		l53.9-31.5c0.4-0.2,0.9-0.1,1.1,0.3l34.7,59.3C148.7,117.9,148.5,118.4,148.1,118.7L148.1,118.7z"/>
	<path id="Path_312" class="st4" d="M148.1,118.7l-53.9,31.5c-0.4,0.2-0.9,0.1-1.1-0.3L58.4,90.6c-0.2-0.4-0.1-0.9,0.3-1.1
		l53.9-31.5c0.4-0.2,0.9-0.1,1.1,0.3l34.7,59.3C148.7,117.9,148.5,118.4,148.1,118.7L148.1,118.7z M58.9,89.7
		c-0.2,0.1-0.3,0.4-0.2,0.7l34.7,59.3c0.1,0.2,0.4,0.3,0.7,0.2l53.9-31.5c0.2-0.1,0.3-0.4,0.2-0.7l-34.7-59.3
		c-0.1-0.2-0.4-0.3-0.7-0.2L58.9,89.7z"/>
	<path id="Path_313" class="st5" d="M93.6,95.6l-13.4,7.8c-0.4,0.2-0.9,0.1-1.1-0.3l-7.8-13.4c-0.2-0.4-0.1-0.9,0.3-1.1l13.4-7.8
		c0.4-0.2,0.9-0.1,1.1,0.3l7.8,13.4C94.1,94.9,94,95.4,93.6,95.6z M71.7,88.9c-0.2,0.1-0.3,0.4-0.2,0.7l7.8,13.4
		c0.1,0.2,0.4,0.3,0.7,0.2l13.4-7.8c0.2-0.1,0.3-0.4,0.2-0.7l-7.8-13.4c-0.1-0.2-0.4-0.3-0.7-0.2L71.7,88.9z"/>
	<path id="Path_314" class="st6" d="M90.7,99.5l-13.4,7.8c-0.4,0.2-0.8,0.1-1-0.3l-7.8-13.4c-0.2-0.4-0.1-0.8,0.3-1l13.4-7.8
		c0.4-0.2,0.8-0.1,1,0.3l7.8,13.4C91.1,98.9,91,99.3,90.7,99.5z"/>
	<path id="Path_315" class="st7" d="M122.9,89.4l-41.8,24.4c-0.4,0.2-0.8,0.1-1-0.3c-0.2-0.4-0.1-0.8,0.3-1l41.8-24.4
		c0.4-0.2,0.8-0.1,1,0.3C123.4,88.8,123.3,89.2,122.9,89.4L122.9,89.4z"/>
	<path id="Path_316" class="st7" d="M115.4,99.7l-31.7,18.5c-0.4,0.2-0.8,0.1-1-0.3c-0.2-0.4-0.1-0.8,0.3-1c0,0,0,0,0,0l31.7-18.5
		c0.4-0.2,0.8-0.1,1,0.3C115.9,99.1,115.8,99.5,115.4,99.7z"/>
	<path id="Path_317" class="st7" d="M113.3,73.3L94.8,84.1c-0.4,0.2-0.8,0.1-1-0.3c-0.2-0.4-0.1-0.8,0.3-1c0,0,0,0,0,0L112.6,72
		c0.4-0.2,0.8-0.1,1,0.3C113.8,72.6,113.7,73.1,113.3,73.3z"/>
	<path id="Path_318" class="st7" d="M111.3,80.4l-13.9,8.1c-0.4,0.2-0.8,0.1-1-0.3c-0.2-0.4-0.1-0.8,0.3-1l13.9-8.1
		c0.4-0.2,0.8-0.1,1,0.3C111.8,79.7,111.6,80.2,111.3,80.4C111.3,80.4,111.3,80.4,111.3,80.4z"/>
	<path id="Path_319" class="st7" d="M128.1,98.2l-41.8,24.4c-0.4,0.2-0.8,0.1-1-0.3c-0.2-0.4-0.1-0.8,0.3-1L127.3,97
		c0.4-0.2,0.8-0.1,1,0.3C128.6,97.6,128.4,98,128.1,98.2L128.1,98.2z"/>
	<path id="Path_320" class="st7" d="M120.6,108.6l-31.7,18.5c-0.4,0.2-0.8,0.1-1-0.3c-0.2-0.4-0.1-0.8,0.3-1l31.7-18.5
		c0.4-0.2,0.8-0.1,1,0.3C121,107.9,120.9,108.3,120.6,108.6z"/>
	<path id="Path_321" class="st7" d="M133.2,107.1l-41.8,24.4c-0.4,0.2-0.8,0.1-1-0.3c-0.2-0.4-0.1-0.8,0.3-1l41.8-24.4
		c0.4-0.2,0.8-0.1,1,0.3C133.7,106.4,133.6,106.9,133.2,107.1C133.3,107.1,133.2,107.1,133.2,107.1L133.2,107.1z"/>
	<path id="Path_322" class="st7" d="M135.8,111.5L94,135.9c-0.4,0.2-0.8,0.1-1-0.3c-0.2-0.4-0.1-0.8,0.3-1l41.8-24.4
		c0.4-0.2,0.8-0.1,1,0.3C136.3,110.8,136.2,111.3,135.8,111.5C135.8,111.5,135.8,111.5,135.8,111.5L135.8,111.5z"/>
	<path id="Path_323" class="st6" d="M122.3,128.6c0.6-0.7,1.1-1.4,1.6-2.2c0.4-0.7,0.8-1.4,0.9-2.3c0.1-0.7-0.2-1.4-0.7-1.9
		c-0.5-0.5-1.2-0.5-1.8-0.2c-0.6,0.3-1,1-0.9,1.7c0,0.8,0.4,1.4,1.1,1.9c1.2,0.9,3.2,0.8,4.5,0.2c1.5-0.8,2.3-2.8,1.1-4.2
		c-0.2-0.3-0.6,0-0.6,0.3c0.2,0.9,1,1.5,1.9,1.3c0.8-0.2,1.4-0.9,1.4-1.7l-0.5,0.3c1.3,0.6,2.8,0.4,4-0.4c0.3-0.2,0.5-0.4,0.7-0.7
		c0.3-0.3,0.7-0.6,1-0.8l2.5-1.7c0.4-0.3,0-0.9-0.4-0.6l-2.3,1.6c-0.4,0.3-0.8,0.5-1.1,0.8c-0.3,0.2-0.4,0.5-0.7,0.7
		c-0.9,0.9-2.3,1.1-3.5,0.6c-0.2-0.1-0.4,0-0.5,0.1c0,0,0,0.1,0,0.2c0.1,0.5-0.3,1-0.8,1.1c-0.5,0.1-1-0.3-1.1-0.8l0,0l-0.6,0.3
		c0.8,0.9,0.3,2.2-0.6,2.8c-1,0.7-2.4,0.8-3.5,0.4c-0.5-0.2-1-0.6-1.2-1.1c-0.2-0.5-0.1-1,0.3-1.4c0.3-0.3,0.9-0.3,1.2,0
		c0.4,0.4,0.5,0.9,0.4,1.4c-0.1,0.7-0.5,1.4-0.9,2c-0.4,0.7-0.9,1.3-1.4,1.9C121.5,128.5,122,129,122.3,128.6L122.3,128.6z"/>
	<path id="Path_324" class="st8" d="M128.5,145.3c0.1,0.1,0.1,0.1,0.2,0.2l7.8-0.2l0.9-1.7l2.7,1l-1.3,3.1c-0.2,0.5-0.8,0.8-1.3,0.8
		l-8.8-1.1c-0.6,0.7-1.6,0.8-2.3,0.3c-0.7-0.6-0.8-1.6-0.3-2.3c0.6-0.7,1.6-0.8,2.3-0.3C128.4,145.3,128.5,145.3,128.5,145.3
		L128.5,145.3z"/>
	<path id="Path_325" class="st8" d="M153.9,192.6h-2.6l-1.2-9.9h3.8L153.9,192.6z"/>
	<path id="Path_326" class="st9" d="M154.6,195.1h-8.3V195c0-1.8,1.4-3.2,3.2-3.2h5V195.1z"/>
	<path id="Path_327" class="st8" d="M130.7,192.6l-2.4-1l2.8-9.6l3.5,1.5L130.7,192.6z"/>
	<path id="Path_328" class="st9" d="M130.3,195.1l-7.6-3.2l0-0.1c0.7-1.6,2.6-2.4,4.2-1.7l0,0l4.6,2L130.3,195.1z"/>
	<path id="Path_329" class="st8" d="M141.5,147.5l-0.2,3l5.4,0.6l5.7,0.6l-1.7-4.6L141.5,147.5z"/>
	<path id="Path_330" class="st9" d="M141.1,150.5l-2.1-14.7l3.6-1.2l1.1-1.5l5.2,0.3l0.8,1.7l2.8,1.3l-0.4,7.9l0.3,6.6L141.1,150.5z
		"/>
	<path id="Path_331" class="st9" d="M139.8,146.6l-3.7-1.5l0-0.1c0-0.1,1.6-6.7,1.8-7.7c0.2-1.1,1-1.4,1-1.4l0,0l1.5,0.4l0.6,5.1
		L139.8,146.6z"/>
	<path id="Path_332" class="st9" d="M132.6,190.8l-4.9-1l7.9-21.8l2.7-7.4c0,0,1.7-6,2.5-8.3l0.5-3.1l11,1.2c0,0,3.1,4.5,2.1,11.9
		l0.4,27.8l-4.9,0.3l-4.1-28l-7.3,15.3c0,0-2.3,6.5-3.9,8L132.6,190.8z"/>
	<path id="Path_333" class="st8" d="M147.8,151.6c0.1,0,0.2,0,0.3,0l5.2-5.8l-0.6-1.8l2.6-1.3l1.4,3.1c0.2,0.5,0.1,1.1-0.3,1.5
		l-6.8,5.7c0.1,0.9-0.5,1.7-1.4,1.9c-0.9,0.1-1.7-0.5-1.9-1.4c-0.1-0.9,0.5-1.7,1.4-1.9C147.7,151.6,147.7,151.6,147.8,151.6
		L147.8,151.6z"/>
	<path id="Path_334" class="st9" d="M152.8,146.3l-2.2-5.1l0.8-3.5l0.9-1.1c0.1-0.1,0.3-0.1,0.4,0c0.3,0.1,0.6,0.5,0.8,1.2l2,5.7
		L152.8,146.3z"/>
	<path id="Path_335" class="st9" d="M141.7,131.3v-3.8c0-2.8,2.3-5.1,5.1-5.1c2.8,0,5.1,2.3,5.1,5.1v3.8c0,0.4-0.3,0.7-0.7,0.7h-8.8
		C142,132,141.7,131.7,141.7,131.3L141.7,131.3z"/>
	<circle id="Ellipse_6" class="st8" cx="145.7" cy="128.2" r="3.7"/>
	<path id="Path_336" class="st9" d="M140.4,127.8c0-2.2,1.8-4,4-4h0.8c2.2,0,4,1.8,4,4v0.1h-1.6l-0.5-1.5l-0.1,1.5h-0.8l-0.3-0.8
		l-0.1,0.8L140.4,127.8L140.4,127.8z"/>
	<path id="Path_337" class="st9" d="M145.3,132.4c-0.2-0.2-0.2-0.5-0.1-0.7c0.8-1.5,1.9-4.4,0.4-6.1l-0.1-0.1h4.4v6.5l-4,0.7
		c0,0-0.1,0-0.1,0C145.7,132.7,145.5,132.6,145.3,132.4L145.3,132.4z"/>
	<path id="Path_338" class="st10" d="M94.5,190.5l2.3,0.8l4.3-8.5l-3.4-1.2L94.5,190.5z"/>
	<path id="Path_339" class="st9" d="M93.1,192.5l1.1-3l4.6,1.6c1.6,0.6,2.4,2.3,1.9,3.9l0,0.1L93.1,192.5z"/>
	<path id="Path_340" class="st10" d="M109.5,192.8h2.5l1.2-9.5h-3.6L109.5,192.8z"/>
	<path id="Path_341" class="st9" d="M108.9,192h4.8c1.7,0,3.1,1.4,3.1,3.1v0.1h-7.9L108.9,192z"/>
	<path id="Path_342" class="st11" d="M103.9,132.2l1.1-2.1c0,0,4,1,4.3,3.3L103.9,132.2z"/>
	<path id="Path_343" class="st9" d="M99.5,156.4l2.9,16.2l-7.7,13.6l4.6,1.8l7.8-13.2l1-3.6l0.6,18.8l4.2-0.1l1.9-17.6l-3.1-16.4
		L99.5,156.4z"/>
	<path id="Path_344" class="st4" d="M105,160.2c-4.3,0-7-0.8-7-0.8l-0.1,0l2.2-10.3l0.1-9.5c0-4,2.7-7,3-7.3
		c0.1-0.5,0.5-0.9,0.9-1.1c0.9-0.4,2,0.1,2,0.1l3.2,1.2l0,0c0,0.1,4.3,14.1,4.3,14.1s-0.3,12.3-0.3,12.7
		C113.4,159.3,107.4,160.2,105,160.2z"/>
	<circle id="Ellipse_7" class="st10" cx="108.3" cy="125.1" r="4.4"/>
	<path id="Path_345" class="st12" d="M103.4,140.3l7.7,10.7l1.1-5L103.4,140.3z"/>
	<path id="Path_346" class="st10" d="M127.5,147.6c-0.8,0.6-2,0.5-2.6-0.3c-0.1-0.1-0.1-0.2-0.2-0.3l-6.6,1.1l1.4-3.2l6.1-0.5
		c1-0.4,2.1,0,2.5,0.9C128.4,146.1,128.2,147,127.5,147.6L127.5,147.6z"/>
	<path id="Path_347" class="st11" d="M119.8,144.7l2.4-0.2l0.7,3.3l-3,0.1L119.8,144.7z"/>
	<path id="Path_348" class="st4" d="M121.8,148.9l-11.6-1l-5.9-9.3l0-0.1c-0.4-1.7,0.7-3.4,2.5-3.8c1.4-0.3,2.9,0.4,3.5,1.7l3.4,6.7
		l7,1.1L121.8,148.9z"/>
	<path id="Path_349" class="st9" d="M104.6,128.9l3.6,0.1c0.2,0,0.8-2.4,0.9-2.9c0.1-0.7,0.7-1.1,1.4-1.1c0.3,0,1-0.5,1.7-1.1
		c1.3-1.1,1.3-3.3-0.2-4.3c0,0-0.1-0.1-0.1-0.1c-0.9-0.5-2-0.7-3.1-0.7c-1,0-2,0.1-2.8,0.6c-1.5,0.8-2.3,2.6-2.4,4.4
		C103.5,125.5,104,127.2,104.6,128.9"/>
	<path id="Path_350" class="st13" d="M195.8,195.3H54.1c-0.1,0-0.2-0.1-0.2-0.2s0.1-0.2,0.2-0.2h141.8c0.1,0,0.2,0.1,0.2,0.2
		C196.1,195.2,195.9,195.3,195.8,195.3z"/>
</g>
</svg>
