<?xml version="1.0" encoding="utf-8"?>
<!-- Generator: Adobe Illustrator 27.0.1, SVG Export Plug-In . SVG Version: 6.00 Build 0)  -->
<svg version="1.1" id="Layer_1" xmlns="http://www.w3.org/2000/svg" xmlns:xlink="http://www.w3.org/1999/xlink" x="0px" y="0px"
	 viewBox="0 0 250 250" style="enable-background:new 0 0 250 250;" xml:space="preserve">
<style type="text/css">
	.st0{fill:#FDF4F9;enable-background:new    ;}
	.st1{fill:#3B0F37;}
	.st2{fill:#347FD1;}
	.st3{fill:#BBD4FF;}
	.st4{fill:#FFAB66;}
	.st5{fill:#2F2E41;}
	.st6{fill:#6C63FF;}
	.st7{fill:#3F3D56;}
	.st8{fill:#E28888;}
</style>
<g id="Layer_1_00000031921590747918313310000011181374856972039824_">
	<path class="st0" d="M5.4,198.1c-18-33.4,17.3-34.7,8.6-68.1C-4,60.9,95,33.6,123.4,78.6c14.6,23.2,41.9,28.6,50.5,23
		c20-13.1,55.5,0,64.9,24c14.5,36.8-15.2,72.6-15.2,72.6L5.4,198.1z"/>
	<path class="st1" d="M0.7,197.6h249c0.3,0,0.5,0.2,0.5,0.5v0c0,0.3-0.2,0.5-0.5,0.5H0.7c-0.3,0-0.5-0.2-0.5-0.5v0
		C0.3,197.8,0.5,197.6,0.7,197.6z"/>
	<g id="Group_12" transform="translate(0 0)">
		<path id="Path_351" class="st2" d="M177.5,155.9c-0.4,0-0.7-0.3-0.7-0.6c0-0.2,0.1-0.4,0.2-0.5l0-0.2l0,0
			c-0.4-0.9-1.4-1.3-2.3-0.9c-0.4,0.2-0.8,0.5-0.9,0.9c-0.5,1.3-1.2,2.5-1.4,3.9c-0.1,0.6,0,1.2,0.1,1.8c-1.2-2.7-1.9-5.6-1.9-8.6
			c0-0.7,0-1.5,0.1-2.2c0.1-0.6,0.2-1.2,0.3-1.8c0.7-3.2,2.1-6.3,4.2-8.9c1-0.5,1.8-1.4,2.3-2.4c0.2-0.4,0.3-0.8,0.4-1.2
			c-0.1,0-0.4-1.7-0.3-1.8c-0.2-0.2-0.4-0.4-0.6-0.6c-0.9-1.2-2-1-2.6,0.6c-1.3,0.7-1.3,1.8-0.5,2.8c0.5,0.7,0.6,1.6,1,2.3
			c0,0.1-0.1,0.1-0.1,0.2c-0.8,1.1-1.6,2.3-2.2,3.5c0.2-1.4,0-2.8-0.5-4.1c-0.5-1.2-1.4-2.2-2.3-3.3c-1-1.3-3-0.7-3.2,0.9
			c0,0,0,0,0,0c0.1,0.1,0.2,0.1,0.4,0.2c0.4,0.3,0.5,0.8,0.2,1.2c-0.1,0.2-0.4,0.3-0.6,0.4l0,0c0,0.4,0.1,0.9,0.2,1.3
			c-1.1,4.1,1.2,5.6,4.5,5.7c0.1,0,0.1,0.1,0.2,0.1c-0.6,1.8-1,3.6-1.2,5.5c-0.1,1.1-0.1,2.2,0,3.3l0,0c-0.2-1.2-0.9-2.3-1.8-3.1
			c-1.4-1.2-3.4-1.6-4.9-2.5c-0.5-0.3-1.1-0.2-1.4,0.3c-0.1,0.2-0.2,0.4-0.2,0.7c0,0,0,0,0,0c0.2,0.1,0.4,0.2,0.7,0.3
			c0.1,0.1,0.2,0.1,0.4,0.2c0.4,0.3,0.5,0.8,0.2,1.2c-0.1,0.2-0.4,0.3-0.6,0.4l0,0l0,0c0.4,0.9,0.9,1.8,1.6,2.5
			c0.7,3.6,3.5,3.9,6.6,2.9h0c0.3,1.5,0.8,2.9,1.4,4.2h5.2c0-0.1,0-0.1,0.1-0.2c-0.5,0-1,0-1.4-0.1c0.4-0.5,0.8-0.9,1.1-1.4
			c0,0,0,0,0,0c0.2-0.2,0.4-0.5,0.6-0.7l0,0C177.8,157.4,177.7,156.6,177.5,155.9L177.5,155.9z"/>
		<path id="Path_352" class="st2" d="M193,169.3h-40.2c-5.7,0-10.3,4.6-10.3,10.3v17.2h3.2v-9.5c0-5.7,4.6-10.3,10.3-10.3h33.8
			c5.7,0,10.3,4.6,10.3,10.3l0,0v9.5h3.2v-17.2C203.4,173.9,198.7,169.3,193,169.3L193,169.3z"/>
		<ellipse id="Ellipse_8" class="st3" cx="173.1" cy="172.2" rx="10.5" ry="1.5"/>
		<path id="Path_353" class="st2" d="M181.1,172.6h-14c-3.5-3.3-5.9-6.5-4-9.2c0-1.6,1.3-2.9,2.9-2.9l0,0h16.2
			c1.6,0,2.9,1.3,2.9,2.9l0,0C185.8,166.4,184.5,169.5,181.1,172.6z"/>
		<path id="Path_354" class="st3" d="M134.5,123c-16.8-9.5-10.3-34-28.7-26.2c-23.9-5.7-10.3,18.1-31.5,26.2c-4.1,0-7.4,3.3-7.4,7.4
			l0,0c0,4.1,3.3,7.4,7.4,7.4c0.1,0,0.2,0,0.3,0l2.8-0.1V161h54.2v-23.3l2.8,0.1c4.1,0.1,7.5-3,7.7-7.1c0-0.1,0-0.2,0-0.3l0,0
			C141.9,126.3,138.6,123,134.5,123L134.5,123z"/>
		<path id="Path_355" class="st3" d="M129.4,171.8H78.8c-1.2,0-2.1,1-2.1,2.1l0,0v3.1c0,1.2,1,2.1,2.1,2.1h0h3.9v18.1h2.8v-18.1
			h36.1v18.1h2.8v-18.1h5c1.2,0,2.1-1,2.1-2.1l0,0V174C131.5,172.8,130.6,171.8,129.4,171.8L129.4,171.8z"/>
		<path id="Path_356" class="st2" d="M139.8,166.7h-1.6c0.4-0.8,0.7-1.7,0.7-2.5v-29.7c0-2.8-2.3-5.1-5.1-5.1s-5.1,2.3-5.1,5.1v24.5
			c-38.2-5.4-13.3-5.3-47.7,0.2v-24.7c0-2.8-2.3-5.1-5.1-5.1c-2.8,0-5.1,2.3-5.1,5.1v29.7c0,0.9,0.2,1.8,0.7,2.5h-3.2
			c-1.2,0-2.1,1-2.1,2.1l0,0v3.1c0,1.2,1,2.1,2.1,2.1h0h71.5c1.2,0,2.1-1,2.1-2.1l0,0v-3.1C141.9,167.7,141,166.7,139.8,166.7
			L139.8,166.7z"/>
		<path id="Path_357" class="st4" d="M67.8,136.5c1.9,0.2,3.5-1.2,3.8-3c0-0.2,0-0.4,0-0.6l21.2-10.5l-5.2-6.2l-19.9,13.6
			c-1.6,0.2-2.8,1.5-3,3C64.6,134.6,65.9,136.3,67.8,136.5C67.8,136.5,67.8,136.5,67.8,136.5z"/>
		<path id="Path_358" class="st5" d="M114.5,117.4c0,0,2.1-4.1-4.4-5.6c-6.4-1.5-18.3,3.5-18.9,4.1s0.2-0.2-1.7-0.5
			c-0.9-0.1-2.8-1.7-3.1-0.4c-0.4,1.3-0.3,2.9-1.4,1.6s3.2,10.9,3.2,10.9s0.6-0.1,2.5-1.1c1.1-0.6,1.1-3,1.9-2.4
			c0.7,0.7,7.4,0.6,7.7,0.5c0.4-0.1,2-3.2,2-3.2L114.5,117.4z"/>
		<path id="Path_359" class="st4" d="M80,193.5l-3.5-0.7l1.2-14l5.2,1.1L80,193.5z"/>
		<path id="Path_360" class="st5" d="M79.3,197.2l-10.9-2.3l0-0.1c0.5-2.3,2.8-3.8,5.1-3.3l0,0l2.3-1.1l3.4,2.3l0.9,0.2L79.3,197.2z
			"/>
		<path id="Path_361" class="st4" d="M140.8,177.3l3.5-0.8l-1.5-13.9l-5.2,1.2L140.8,177.3z"/>
		<path id="Path_362" class="st5" d="M141.5,181l10.8-2.5l0-0.1c-0.5-2.3-2.9-3.8-5.2-3.2l0,0l-2.3-1l-3.3,2.3l-0.9,0.2L141.5,181z"
			/>
		<path id="Path_363" class="st5" d="M99.3,145.2l-0.6,6.9c0,0-19.7-6.3-19.9,8.6c-0.1,4.7-2.2,23-2.2,23l6,0.9c0,0,3.2-4.9,3.2-6.5
			c0-1.6,3.2-13.4,3.2-13.4L106,163c17.8-1.1,23.4-1.6,27.3-14.3c0,0,2.4,17,3.7,18.4c1.3,1.3,2.3,0,0.7,1.7c-1.7,1.7-2.8,1-1.7,1.7
			s8.1-0.5,8.1-0.5c1.6,0.2-0.4-24.7-5.6-32c-4.6-6.5-20.7,14-20.7,14L99.3,145.2z"/>
		<path id="Path_364" class="st5" d="M120.2,116c0,0,6-0.7,7.3,2.2c1.3,2.9,4.5,8.9,4.5,8.9s-1.7,0.7,0-1.1c0.8-0.8-0.6-0.3,0.3-0.6
			c1-0.3,1.3,0,1.3,0l3.2,5.4c0,0-0.3,1.2-1.9,1.3c-1.7,0,1-1.6-1.3,0.6c-1.2,1.2-5.4,2.8-5.4,2.8l-10.8-9.9L120.2,116z"/>
		<path id="Path_365" class="st6" d="M101.2,113.1l6.1-1.6l2.8-3.9l6.7,0.8l1.4,5.3l4.8,2.8c0,0-2.7,28.1-2,29.6
			c0.6,1.5-0.9,2.8-2.8,4.8c-1.9,2,1.6-0.2,2.1,1.9s3.7,4.5,0,4.4s-24.2,1-23.5-1.6s-1.4-3.3-0.4-4.9s1.6-0.7,1.3-3.1
			c-0.3-2.4,0-4,0-5.3s1.1-12.9,1.1-12.9L101.2,113.1z"/>
		<path id="Path_366" class="st5" d="M123.1,157.4c1.2,2.1-5.4,2.7-12.5,2.4c-0.1-0.5-0.4-1-0.7-1.5c-0.8-1.1,0.2-8.8-1-9.6
			c0.5,1.3-1.6,9.6-2,10.8c-6.4-0.5-12.2-1.7-12.2-3.1c0-0.4,1.4-8.1,2-8.7c0.6-0.6,0-11.6,0-14c0-2.4,3.5-19.8,3.5-20.4
			s8.3-3.8,8.3-3.8l3.5,20.2l5.4-19c0.5,0.7,1.1,1.4,1.8,1.9c1.1,0.9,5.3,4.6,5.3,4.6l-3.7,27c0,0,1.7,4.1,1.6,5.7
			c0,1.3-0.3,2.6-0.7,3.8C121.4,155.3,121.4,154.5,123.1,157.4z"/>
		<path id="Path_367" class="st4" d="M128.8,101.6c1.4,1.3,1.5,3.4,0.3,4.8c-0.1,0.1-0.3,0.3-0.4,0.4l6.6,22.7l-8,0.4l-3.4-23.9
			c-0.9-1.3-0.8-3,0.2-4.2C125.3,100.4,127.4,100.3,128.8,101.6C128.7,101.5,128.8,101.6,128.8,101.6z"/>
		<path id="Path_368" class="st5" d="M126,127.9c0.3-0.2,8.2-2.8,8.2-2.8s3.4,5,1.3,6.7c-2,1.6-6.5,2.1-6.5,2.1s-1.9-1.1-1.8-2.3
			C127.2,130.3,126,127.9,126,127.9z"/>
		<path id="Path_369" class="st7" d="M121,104.6l0.9-6.4c0.1-0.9,0.7-1.5,1.4-1.3l1.6,0.4c0.6,0.2,1,1,0.9,1.9l-0.9,6.4
			c-0.1,0.9-0.7,1.5-1.4,1.3l-1.6-0.4C121.3,106.3,120.9,105.4,121,104.6z"/>
		<path id="Path_370" class="st6" d="M121.4,104.2l0.9-5.8c0.1-0.8,0.6-1.3,1-1.1l1,0.4c0.4,0.2,0.7,1,0.5,1.8l-0.9,5.8
			c-0.1,0.8-0.6,1.3-1,1.1l-1-0.4C121.6,105.8,121.3,105,121.4,104.2z"/>
		<path id="Path_371" class="st5" d="M104.9,98.1c0.6,4.9,4,8.9,8.9,8.9c4.9,0,8.9-4,8.9-8.9c0-4.9-4-8.4-8.9-8.9
			C108.6,88.7,104.2,91.9,104.9,98.1z"/>
		<circle id="Ellipse_9" class="st4" cx="114.8" cy="99.6" r="7.9"/>
		<path id="Path_372" class="st5" d="M106.6,100.5c0.2,1.7,1.7,4.1,1.4,4.1c-0.3,0-2.8-7.1-0.3-7.5c1.8-0.3,2.2,0,3.8-0.8l-0.2,0.2
			c1.1,0.8,2.6,0.3,3.9-0.2c1.2-0.5,2.8-1,3.9-0.2c0.7,0.5,1,1.4,1.4,2.1c0.4,0.7,1.2,1.4,2,1.2c0.7-0.2,1-0.9,1-1.6
			c0-0.7-0.9-1.3-0.6-1.9c0.9-1.8,0.1-3-1.8-3.9c-0.7-0.1-1.4-0.2-2.1-0.3c0.4-0.5,0.8-1,1.3-1.3c-0.3-0.5-0.6-1.1-1.1-1.4
			c-0.6-0.3-1.2-0.3-1.9-0.3l-4.3,0.2c-1.1,0.1-2.2,0.1-3.1,0.6c-1.2,0.6-2,1.8-2.5,3C106,95.3,106.2,97.5,106.6,100.5z"/>
		<path id="Path_373" class="st8" d="M23.8,197.1c0,0.2,0.1,0.3,0.3,0.3c0,0,0,0,0,0h210.9c0.2,0,0.3-0.1,0.3-0.3s-0.1-0.3-0.3-0.3
			H24.1C23.9,196.9,23.8,197,23.8,197.1C23.8,197.1,23.8,197.1,23.8,197.1z"/>
	</g>
</g>
</svg>
