<?xml version="1.0" encoding="utf-8"?>
<!-- Generator: Adobe Illustrator 27.0.1, SVG Export Plug-In . SVG Version: 6.00 Build 0)  -->
<svg version="1.1" id="Layer_1" xmlns="http://www.w3.org/2000/svg" xmlns:xlink="http://www.w3.org/1999/xlink" x="0px" y="0px"
	 viewBox="0 0 250 250" style="enable-background:new 0 0 250 250;" xml:space="preserve">
<style type="text/css">
	.st0{fill:#FDF4F8;}
	.st1{fill:#3A1037;}
	.st2{fill:#E1E1E1;}
	.st3{fill:#F9FAFB;}
	.st4{fill:#192E35;}
	.st5{fill:#EF515D;}
	.st6{fill:#F06483;}
	.st7{fill:#F2F2F2;}
	.st8{fill:#3F3D56;}
	.st9{fill:#E6E6E5;}
	.st10{fill:#CCCBCB;}
	.st11{fill:#6466AD;}
</style>
<path id="Path_178" class="st0" d="M22.4,197.4c0,0-27.8-33.5-14.2-67.8c8.9-22.5,42-34.7,60.7-22.5c8,5.2,33.5,0.1,47.2-21.5
	c26.5-42.1,119.2-16.6,102.3,48.1c-8.1,31.3,24.8,32.4,8,63.8L22.4,197.4z"/>
<path id="Rectangle_50" class="st1" d="M8.2,196.9h233.6c0,0,0.1,0,0.1,0.1v0.7c0,0,0,0.1-0.1,0.1H8.2c0,0-0.1,0-0.1-0.1L8.2,196.9
	L8.2,196.9z"/>
<path id="Path_188" class="st2" d="M245.4,114.6V127c0,2.2-1.8,4-4,4.2l0,0h-44.6c-2.2,0-4-1.8-4-4v-10.6l-5.6-5.9l54.4-0.1
	C243.6,110.5,245.4,112.3,245.4,114.6z"/>
<path id="Path_189" class="st3" d="M199.2,118l40.6-0.1v-1.3l-40.6,0.1V118z"/>
<path id="Path_190" class="st3" d="M199.2,122.2l40.6-0.1v-1.3l-40.6,0.1V122.2z"/>
<rect id="Rectangle_52" x="199.1" y="124.9" transform="matrix(1 -4.886844e-03 4.886844e-03 1 -0.6109 1.0136)" class="st3" width="16" height="1.3"/>
<path id="Path_268" class="st4" d="M66.2,60H66h-0.7c-0.4,0-0.8,0.1-1.3,0.1c-0.3,0-0.4,0.1-0.7,0.1l-0.8,0.3
	c-1.4,0.4-2.8,1.1-4,2.1c-1.5,1.3-2.9,2.7-3.9,4.5c-1.3,2.1-1.8,4.5-1.8,6.8c0,0.7,0,1.3,0,2c0,0.3,0.1,0.7,0.1,1s0.1,0.7,0.1,1
	c1,4.5,4.2,8.1,8.2,9.9c1.5,0.6,3.1,1,4.7,1c1.7,0.1,3.3-0.1,4.9-0.7l0.4-0.1h0.1l7,3.5l-0.1,0.1L76,85v-0.1l0,0
	c1.7-1.7,2.9-3.8,3.5-6c0.6-2.1,0.7-4.3,0.4-6.4c-0.6-3.6-2.2-6.8-5-9.2c-1.8-1.5-3.9-2.5-6.3-2.9l-1.1-0.1h-0.8h0.8l1.1,0.1
	c1,0.1,2,0.4,2.9,0.8c1.3,0.6,2.4,1.3,3.5,2.1c1.3,1.1,2.4,2.4,3.2,3.8c2.1,3.6,2.7,8,1.5,12c-0.7,2.4-2,4.5-3.6,6.1v-0.3l2.2,6.6
	l0.1,0.3l-0.3-0.1l-7-3.3h0.1L71,88.3c-3.2,1.1-6.7,1-9.8-0.3c-4.2-1.8-7.4-5.6-8.4-10.2c-0.1-0.3-0.1-0.7-0.1-1
	c0-0.3-0.1-0.7-0.1-1c0-0.7-0.1-1.3-0.1-2c0-1.3,0.3-2.5,0.6-3.8c0.3-1.1,0.8-2.2,1.4-3.2c1-1.8,2.4-3.3,4-4.5c1.3-0.8,2.7-1.5,4-2
	l0.8-0.3c0.3-0.1,0.6-0.1,0.7-0.1c0.4-0.1,0.8-0.1,1.3-0.1L66.2,60L66.2,60z"/>
<path id="Path_269" class="st5" d="M69.5,72.6h-1l-2.2-3.1v-2c0,0-1.5-0.1-1.4,2.5c0.3,2.7,0,2,0,2s-3.3,0-3.6,0.3
	c-0.3,1.8-0.3,3.5-0.3,5.3c0,0.8,0.6,1.7,1.4,2c0.1,0,0.3,0,0.4,0c0.8,0,5-0.7,5-0.7h1.7V72.6z"/>
<path id="Path_270" class="st5" d="M72.4,72l-0.6,7h-1.7L70,72.3L72.4,72z"/>
<g id="Group_10" transform="translate(181.122 12.064)">
	<circle id="Ellipse_4" class="st6" cx="-119.4" cy="118.6" r="11.3"/>
	<path id="Path_271" class="st7" d="M-96.4,182.1L-96.4,182.1c-0.8,0-1.5-0.7-1.5-1.5V93.1c0-0.8,0.7-1.5,1.5-1.5h73.8
		c0.8,0,1.5,0.7,1.5,1.5v68.1c0,0.8-0.7,1.5-1.5,1.5L-96.4,182.1z"/>
	<path id="Path_272" class="st8" d="M-41.9,79.1h-34.3V59.3c0-0.8,0.7-1.5,1.5-1.5h31.1c0.8,0,1.5,0.7,1.5,1.5v19.8H-41.9z
		 M-75.8,78.9h33.5V59.3c0-0.7-0.6-1.3-1.3-1.3h-31.1c-0.7,0-1.3,0.6-1.3,1.3v19.5H-75.8z"/>
	<path id="Path_273" class="st9" d="M-66.4,65.3h14.8c0.8,0,1.4,0.7,1.4,1.4v21.1h-17.6V66.7C-67.8,65.9-67.1,65.3-66.4,65.3
		L-66.4,65.3z"/>
	<path id="Path_274" class="st8" d="M-63.5,58.1h-7.3v-7.3c0-0.4,0.4-0.8,0.8-0.8h5.4c0.4,0,0.8,0.4,0.8,0.8v7.3H-63.5z M-70.3,57.8
		h6.6v-7c0-0.3-0.3-0.6-0.6-0.6h-5.4c-0.3,0-0.6,0.3-0.6,0.6C-70.3,50.8-70.3,57.8-70.3,57.8z"/>
	<path id="Path_275" class="st8" d="M-4.3,164c-0.1,0-0.1,0-0.1,0c-4.3,0-8.5-1.7-11.7-4.6c-0.1-0.1-0.3-0.3-0.4-0.3l0,0v-33.8l0,0
		c0.1-0.3,0.3-0.6,0.4-0.7c3.6-7.4,8-11.4,12-11.4c5.9,0,10.5,8.1,12.7,12.8c3.1,6.7,5.2,14.9,5.2,20.2c0,9.8-7.8,17.7-17.6,17.9
		C-4.2,164-4.2,164-4.3,164z M-16.3,158.8c0.1,0.1,0.1,0.1,0.3,0.3c3.2,2.8,7.3,4.5,11.6,4.5c0.1,0,0.1,0,0.1,0h0.1
		c9.6,0,17.3-8,17.3-17.4c0-5.2-2.1-13.4-5.2-20.1c-2.2-4.7-6.7-12.7-12.3-12.7c-3.9,0-8.1,4-11.7,11.3c-0.1,0.3-0.3,0.4-0.3,0.7
		C-16.3,125.3-16.3,158.8-16.3,158.8z"/>
	<path id="Path_276" class="st10" d="M-4.3,185.3c-0.1,0-0.1-0.1-0.1-0.1l0,0v-41.4c0-0.1,0.1-0.1,0.3-0.1c0.1,0,0.1,0.1,0.1,0.1
		V185C-4.1,185.2-4.2,185.3-4.3,185.3z"/>
	<path id="Path_277" class="st10" d="M-109.1,185.3c-0.1,0-0.1-0.1-0.1-0.1l0,0v-41.4c0-0.1,0.1-0.1,0.1-0.1l0.1,0.1l0,0V185
		C-109,185.2-109.1,185.3-109.1,185.3L-109.1,185.3z"/>
	<path id="Path_278" class="st10" d="M-4.3,151.6c0,0-0.1,0-0.1-0.1l-10.2-11.7c-0.1-0.1,0-0.3,0-0.3h0.3l0,0l10.2,11.7
		C-4.1,151.3-4.1,151.4-4.3,151.6C-4.2,151.6-4.3,151.6-4.3,151.6L-4.3,151.6z"/>
	<path id="Path_279" class="st10" d="M-4.3,158.3c-0.1,0-0.1-0.1-0.1-0.1V158l5.7-5.7c0.1-0.1,0.1-0.1,0.3,0s0.1,0.1,0,0.3l-5.7,5.7
		C-4.2,158.3-4.3,158.3-4.3,158.3L-4.3,158.3z"/>
	<path id="Path_280" class="st8" d="M14.4,185.3H-0.7v-0.1c0-4.2,3.3-7.5,7.5-7.5s7.5,3.3,7.5,7.5L14.4,185.3z M-0.4,185h14.4
		c-0.1-3.9-3.3-7.1-7.4-7C2.8,178.1-0.3,181.1-0.4,185L-0.4,185z"/>
	<path id="Path_281" class="st8" d="M6.8,180.9c-0.1,0-0.1,0.1-0.1,0.1l0,0v2.1l-2.1-1.8c-0.1-0.1-0.3,0-0.3,0c-0.1,0.1,0,0.3,0,0.3
		l2.4,2v1.3c0,0.1,0.1,0.1,0.1,0.1l0.1-0.1l0,0v-3.9C7,181,7,180.9,6.8,180.9L6.8,180.9L6.8,180.9z"/>
	<path id="Path_282" class="st8" d="M-112.3,185.3h-15.1v-0.1c0-4.2,3.3-7.5,7.5-7.5s7.5,3.3,7.5,7.5V185.3z M-127,185h14.4
		c-0.1-3.9-3.3-7.1-7.4-7C-123.8,178.1-127,181.1-127,185z"/>
	<path id="Path_283" class="st8" d="M-119.9,180.9c-0.1,0-0.1,0.1-0.1,0.1l0,0v2.1l-2.1-1.8c-0.1-0.1-0.3,0-0.3,0v0.3l2.4,2v1.3
		c0,0.1,0.1,0.1,0.1,0.1c0.1,0,0.1-0.1,0.1-0.1l0,0v-3.9C-119.6,181-119.7,180.9-119.9,180.9L-119.9,180.9L-119.9,180.9z"/>
	<path id="Path_284" class="st8" d="M-109,164c-0.1,0-0.1,0-0.1,0c-9.8-0.1-17.6-8.1-17.6-17.9c0-5.2,2.1-13.5,5.2-20.2
		c2.2-4.9,6.7-12.8,12.7-12.8c2.4,0,4.9,1.4,7.3,4c0.1,0.1,0.3,0.3,0.4,0.4l0,0v44.6h-0.1c-0.1,0-0.3,0.1-0.4,0.1
		c-2.2,1-4.6,1.5-7,1.5C-108.8,164-109,164-109,164z M-109,113.5c-5.7,0-10.2,8-12.3,12.7c-3.1,6.7-5.2,14.9-5.2,20.1
		c0,9.5,7.8,17.4,17.3,17.4c0.1,0,0.1,0,0.1,0h0.1c2.4,0,4.7-0.6,6.8-1.5c0.1,0,0.1-0.1,0.3-0.1v-44.2c-0.1-0.1-0.1-0.3-0.3-0.4
		C-104.4,114.7-106.8,113.5-109,113.5z"/>
	<path id="Path_285" class="st10" d="M-109,151.6c0,0-0.1,0-0.1-0.1l-10.2-11.7c-0.1-0.1,0-0.3,0-0.3c0.1-0.1,0.3,0,0.3,0l0,0
		l10.2,11.7C-108.8,151.3-108.8,151.4-109,151.6C-108.8,151.6-109,151.6-109,151.6L-109,151.6z"/>
	<path id="Path_286" class="st10" d="M-109,158.3c-0.1,0-0.1-0.1-0.1-0.1V158l5.7-5.7c0.1-0.1,0.1-0.1,0.3,0c0.1,0.1,0.1,0.1,0,0.3
		l-5.7,5.7H-109L-109,158.3z"/>
	<path id="Path_287" class="st8" d="M-93.1,80.5l0.1,0.3c0,0.1,0.1,0.3,0.1,0.4v7h6.1v-7c0-0.1,0-0.3,0.1-0.4l0.1-0.3H-93.1z
		 M-87.1,81.2v6.6h-5.4v-6.6c0-0.1,0-0.1,0-0.3h5.4C-87.1,81-87.1,81.1-87.1,81.2L-87.1,81.2z M-85.4,80.5l0.1,0.3
		c0,0.1,0.1,0.3,0.1,0.4v7h6.1v-7c0-0.1,0-0.3,0.1-0.4l0.1-0.3H-85.4z M-79.4,81.2v6.6h-5.4v-6.6c0-0.1,0-0.1,0-0.3h5.4
		C-79.4,81-79.4,81.1-79.4,81.2L-79.4,81.2z M-77.7,80.5l0.1,0.3c0,0.1,0.1,0.3,0.1,0.4v7h6.1v-7c0-0.1,0-0.3,0.1-0.4l0.1-0.3H-77.7
		z M-71.7,81.2v6.6h-5.4v-6.6c0-0.1,0-0.1,0-0.3h5.4C-71.6,81-71.7,81.1-71.7,81.2L-71.7,81.2z M-69.9,80.5l0.1,0.3
		c0,0.1,0.1,0.3,0.1,0.4v7h6.1v-7c0-0.1,0-0.3,0.1-0.4l0.1-0.3H-69.9z M-63.9,81.2v6.6h-5.4v-6.6c0-0.1,0-0.1,0-0.3h5.4
		C-63.9,81-63.9,81.1-63.9,81.2L-63.9,81.2z M-62.2,80.5l0.1,0.3c0,0.1,0.1,0.3,0.1,0.4v7h6.1v-7c0-0.1,0-0.3,0.1-0.4l0.1-0.3H-62.2
		z M-56.2,81.2v6.6h-5.4v-6.6c0-0.1,0-0.1,0-0.3h5.4C-56.2,81-56.2,81.1-56.2,81.2L-56.2,81.2z M-54.4,80.5l0.1,0.3
		c0,0.1,0.1,0.3,0.1,0.4v7h6.1v-7c0-0.1,0-0.3,0.1-0.4l0.1-0.3H-54.4z M-48.4,81.2v6.6h-5.4v-6.6c0-0.1,0-0.1,0-0.3h5.4
		C-48.4,81-48.4,81.1-48.4,81.2L-48.4,81.2z M-46.8,80.5l0.1,0.3c0,0.1,0.1,0.3,0.1,0.4v7h6.1v-7c0-0.1,0-0.3,0.1-0.4l0.1-0.3H-46.8
		z M-40.8,81.2v6.6h-5.4v-6.6c0-0.1,0-0.1,0-0.3h5.4C-40.8,81-40.8,81.1-40.8,81.2L-40.8,81.2z M-39.1,80.5l0.1,0.3
		c0,0.1,0.1,0.3,0.1,0.4v7h6.1v-7c0-0.1,0-0.3,0.1-0.4l0.1-0.3H-39.1z M-33.1,81.2v6.6h-5.4v-6.6c0-0.1,0-0.1,0-0.3h5.4
		C-33.1,81-33.1,81.1-33.1,81.2L-33.1,81.2z M-31.3,80.5l0.1,0.3c0,0.1,0.1,0.3,0.1,0.4v7h6.1v-7c0-0.1,0-0.3,0.1-0.4l0.1-0.3H-31.3
		z M-25.3,81.2v6.6h-5.4v-6.6c0-0.1,0-0.1,0-0.3h5.4C-25.3,81-25.3,81.1-25.3,81.2L-25.3,81.2z M-31.3,80.5l0.1,0.3
		c0,0.1,0.1,0.3,0.1,0.4v7h6.1v-7c0-0.1,0-0.3,0.1-0.4l0.1-0.3H-31.3z M-25.3,81.2v6.6h-5.4v-6.6c0-0.1,0-0.1,0-0.3h5.4
		C-25.3,81-25.3,81.1-25.3,81.2L-25.3,81.2z M-39.1,80.5l0.1,0.3c0,0.1,0.1,0.3,0.1,0.4v7h6.1v-7c0-0.1,0-0.3,0.1-0.4l0.1-0.3H-39.1
		z M-33.1,81.2v6.6h-5.4v-6.6c0-0.1,0-0.1,0-0.3h5.4C-33.1,81-33.1,81.1-33.1,81.2L-33.1,81.2z M-46.8,80.5l0.1,0.3
		c0,0.1,0.1,0.3,0.1,0.4v7h6.1v-7c0-0.1,0-0.3,0.1-0.4l0.1-0.3H-46.8z M-40.8,81.2v6.6h-5.4v-6.6c0-0.1,0-0.1,0-0.3h5.4
		C-40.8,81-40.8,81.1-40.8,81.2L-40.8,81.2z M-54.4,80.5l0.1,0.3c0,0.1,0.1,0.3,0.1,0.4v7h6.1v-7c0-0.1,0-0.3,0.1-0.4l0.1-0.3H-54.4
		z M-48.4,81.2v6.6h-5.4v-6.6c0-0.1,0-0.1,0-0.3h5.4C-48.4,81-48.4,81.1-48.4,81.2L-48.4,81.2z M-62.2,80.5l0.1,0.3
		c0,0.1,0.1,0.3,0.1,0.4v7h6.1v-7c0-0.1,0-0.3,0.1-0.4l0.1-0.3H-62.2z M-56.2,81.2v6.6h-5.4v-6.6c0-0.1,0-0.1,0-0.3h5.4
		C-56.2,81-56.2,81.1-56.2,81.2L-56.2,81.2z M-69.9,80.5l0.1,0.3c0,0.1,0.1,0.3,0.1,0.4v7h6.1v-7c0-0.1,0-0.3,0.1-0.4l0.1-0.3H-69.9
		z M-63.9,81.2v6.6h-5.4v-6.6c0-0.1,0-0.1,0-0.3h5.4C-63.9,81-63.9,81.1-63.9,81.2L-63.9,81.2z M-77.7,80.5l0.1,0.3
		c0,0.1,0.1,0.3,0.1,0.4v7h6.1v-7c0-0.1,0-0.3,0.1-0.4l0.1-0.3H-77.7z M-71.7,81.2v6.6h-5.4v-6.6c0-0.1,0-0.1,0-0.3h5.4
		C-71.6,81-71.7,81.1-71.7,81.2L-71.7,81.2z M-85.4,80.5l0.1,0.3c0,0.1,0.1,0.3,0.1,0.4v7h6.1v-7c0-0.1,0-0.3,0.1-0.4l0.1-0.3H-85.4
		z M-79.4,81.2v6.6h-5.4v-6.6c0-0.1,0-0.1,0-0.3h5.4C-79.4,81-79.4,81.1-79.4,81.2L-79.4,81.2z M-93.1,80.5l0.1,0.3
		c0,0.1,0.1,0.3,0.1,0.4v7h6.1v-7c0-0.1,0-0.3,0.1-0.4l0.1-0.3H-93.1z M-87.1,81.2v6.6h-5.4v-6.6c0-0.1,0-0.1,0-0.3h5.4
		C-87.1,81-87.1,81.1-87.1,81.2L-87.1,81.2z M-31.3,80.5l0.1,0.3c0,0.1,0.1,0.3,0.1,0.4v7h6.1v-7c0-0.1,0-0.3,0.1-0.4l0.1-0.3H-31.3
		z M-25.3,81.2v6.6h-5.4v-6.6c0-0.1,0-0.1,0-0.3h5.4C-25.3,81-25.3,81.1-25.3,81.2L-25.3,81.2z M-39.1,80.5l0.1,0.3
		c0,0.1,0.1,0.3,0.1,0.4v7h6.1v-7c0-0.1,0-0.3,0.1-0.4l0.1-0.3H-39.1z M-33.1,81.2v6.6h-5.4v-6.6c0-0.1,0-0.1,0-0.3h5.4
		C-33.1,81-33.1,81.1-33.1,81.2L-33.1,81.2z M-46.8,80.5l0.1,0.3c0,0.1,0.1,0.3,0.1,0.4v7h6.1v-7c0-0.1,0-0.3,0.1-0.4l0.1-0.3H-46.8
		z M-40.8,81.2v6.6h-5.4v-6.6c0-0.1,0-0.1,0-0.3h5.4C-40.8,81-40.8,81.1-40.8,81.2L-40.8,81.2z M-54.4,80.5l0.1,0.3
		c0,0.1,0.1,0.3,0.1,0.4v7h6.1v-7c0-0.1,0-0.3,0.1-0.4l0.1-0.3H-54.4z M-48.4,81.2v6.6h-5.4v-6.6c0-0.1,0-0.1,0-0.3h5.4
		C-48.4,81-48.4,81.1-48.4,81.2L-48.4,81.2z M-62.2,80.5l0.1,0.3c0,0.1,0.1,0.3,0.1,0.4v7h6.1v-7c0-0.1,0-0.3,0.1-0.4l0.1-0.3H-62.2
		z M-56.2,81.2v6.6h-5.4v-6.6c0-0.1,0-0.1,0-0.3h5.4C-56.2,81-56.2,81.1-56.2,81.2L-56.2,81.2z M-69.9,80.5l0.1,0.3
		c0,0.1,0.1,0.3,0.1,0.4v7h6.1v-7c0-0.1,0-0.3,0.1-0.4l0.1-0.3H-69.9z M-63.9,81.2v6.6h-5.4v-6.6c0-0.1,0-0.1,0-0.3h5.4
		C-63.9,81-63.9,81.1-63.9,81.2L-63.9,81.2z M-77.7,80.5l0.1,0.3c0,0.1,0.1,0.3,0.1,0.4v7h6.1v-7c0-0.1,0-0.3,0.1-0.4l0.1-0.3H-77.7
		z M-71.7,81.2v6.6h-5.4v-6.6c0-0.1,0-0.1,0-0.3h5.4C-71.6,81-71.7,81.1-71.7,81.2L-71.7,81.2z M-85.4,80.5l0.1,0.3
		c0,0.1,0.1,0.3,0.1,0.4v7h6.1v-7c0-0.1,0-0.3,0.1-0.4l0.1-0.3H-85.4z M-79.4,81.2v6.6h-5.4v-6.6c0-0.1,0-0.1,0-0.3h5.4
		C-79.4,81-79.4,81.1-79.4,81.2L-79.4,81.2z M-93.1,80.5l0.1,0.3c0,0.1,0.1,0.3,0.1,0.4v7h6.1v-7c0-0.1,0-0.3,0.1-0.4l0.1-0.3H-93.1
		z M-87.1,81.2v6.6h-5.4v-6.6c0-0.1,0-0.1,0-0.3h5.4C-87.1,81-87.1,81.1-87.1,81.2L-87.1,81.2z M-31.3,80.5l0.1,0.3
		c0,0.1,0.1,0.3,0.1,0.4v7h6.1v-7c0-0.1,0-0.3,0.1-0.4l0.1-0.3H-31.3z M-25.3,81.2v6.6h-5.4v-6.6c0-0.1,0-0.1,0-0.3h5.4
		C-25.3,81-25.3,81.1-25.3,81.2L-25.3,81.2z M-39.1,80.5l0.1,0.3c0,0.1,0.1,0.3,0.1,0.4v7h6.1v-7c0-0.1,0-0.3,0.1-0.4l0.1-0.3H-39.1
		z M-33.1,81.2v6.6h-5.4v-6.6c0-0.1,0-0.1,0-0.3h5.4C-33.1,81-33.1,81.1-33.1,81.2L-33.1,81.2z M-46.8,80.5l0.1,0.3
		c0,0.1,0.1,0.3,0.1,0.4v7h6.1v-7c0-0.1,0-0.3,0.1-0.4l0.1-0.3H-46.8z M-40.8,81.2v6.6h-5.4v-6.6c0-0.1,0-0.1,0-0.3h5.4
		C-40.8,81-40.8,81.1-40.8,81.2L-40.8,81.2z M-54.4,80.5l0.1,0.3c0,0.1,0.1,0.3,0.1,0.4v7h6.1v-7c0-0.1,0-0.3,0.1-0.4l0.1-0.3H-54.4
		z M-48.4,81.2v6.6h-5.4v-6.6c0-0.1,0-0.1,0-0.3h5.4C-48.4,81-48.4,81.1-48.4,81.2L-48.4,81.2z M-62.2,80.5l0.1,0.3
		c0,0.1,0.1,0.3,0.1,0.4v7h6.1v-7c0-0.1,0-0.3,0.1-0.4l0.1-0.3H-62.2z M-56.2,81.2v6.6h-5.4v-6.6c0-0.1,0-0.1,0-0.3h5.4
		C-56.2,81-56.2,81.1-56.2,81.2L-56.2,81.2z M-69.9,80.5l0.1,0.3c0,0.1,0.1,0.3,0.1,0.4v7h6.1v-7c0-0.1,0-0.3,0.1-0.4l0.1-0.3H-69.9
		z M-63.9,81.2v6.6h-5.4v-6.6c0-0.1,0-0.1,0-0.3h5.4C-63.9,81-63.9,81.1-63.9,81.2L-63.9,81.2z M-77.7,80.5l0.1,0.3
		c0,0.1,0.1,0.3,0.1,0.4v7h6.1v-7c0-0.1,0-0.3,0.1-0.4l0.1-0.3H-77.7z M-71.7,81.2v6.6h-5.4v-6.6c0-0.1,0-0.1,0-0.3h5.4
		C-71.6,81-71.7,81.1-71.7,81.2L-71.7,81.2z M-85.4,80.5l0.1,0.3c0,0.1,0.1,0.3,0.1,0.4v7h6.1v-7c0-0.1,0-0.3,0.1-0.4l0.1-0.3H-85.4
		z M-79.4,81.2v6.6h-5.4v-6.6c0-0.1,0-0.1,0-0.3h5.4C-79.4,81-79.4,81.1-79.4,81.2L-79.4,81.2z M-93.1,80.5l0.1,0.3
		c0,0.1,0.1,0.3,0.1,0.4v7h6.1v-7c0-0.1,0-0.3,0.1-0.4l0.1-0.3H-93.1z M-87.1,81.2v6.6h-5.4v-6.6c0-0.1,0-0.1,0-0.3h5.4
		C-87.1,81-87.1,81.1-87.1,81.2L-87.1,81.2z M-31.3,80.5l0.1,0.3c0,0.1,0.1,0.3,0.1,0.4v7h6.1v-7c0-0.1,0-0.3,0.1-0.4l0.1-0.3H-31.3
		z M-25.3,81.2v6.6h-5.4v-6.6c0-0.1,0-0.1,0-0.3h5.4C-25.3,81-25.3,81.1-25.3,81.2L-25.3,81.2z M-39.1,80.5l0.1,0.3
		c0,0.1,0.1,0.3,0.1,0.4v7h6.1v-7c0-0.1,0-0.3,0.1-0.4l0.1-0.3H-39.1z M-33.1,81.2v6.6h-5.4v-6.6c0-0.1,0-0.1,0-0.3h5.4
		C-33.1,81-33.1,81.1-33.1,81.2L-33.1,81.2z M-46.8,80.5l0.1,0.3c0,0.1,0.1,0.3,0.1,0.4v7h6.1v-7c0-0.1,0-0.3,0.1-0.4l0.1-0.3H-46.8
		z M-40.8,81.2v6.6h-5.4v-6.6c0-0.1,0-0.1,0-0.3h5.4C-40.8,81-40.8,81.1-40.8,81.2L-40.8,81.2z M-54.4,80.5l0.1,0.3
		c0,0.1,0.1,0.3,0.1,0.4v7h6.1v-7c0-0.1,0-0.3,0.1-0.4l0.1-0.3H-54.4z M-48.4,81.2v6.6h-5.4v-6.6c0-0.1,0-0.1,0-0.3h5.4
		C-48.4,81-48.4,81.1-48.4,81.2L-48.4,81.2z M-62.2,80.5l0.1,0.3c0,0.1,0.1,0.3,0.1,0.4v7h6.1v-7c0-0.1,0-0.3,0.1-0.4l0.1-0.3H-62.2
		z M-56.2,81.2v6.6h-5.4v-6.6c0-0.1,0-0.1,0-0.3h5.4C-56.2,81-56.2,81.1-56.2,81.2L-56.2,81.2z M-69.9,80.5l0.1,0.3
		c0,0.1,0.1,0.3,0.1,0.4v7h6.1v-7c0-0.1,0-0.3,0.1-0.4l0.1-0.3H-69.9z M-63.9,81.2v6.6h-5.4v-6.6c0-0.1,0-0.1,0-0.3h5.4
		C-63.9,81-63.9,81.1-63.9,81.2L-63.9,81.2z M-77.7,80.5l0.1,0.3c0,0.1,0.1,0.3,0.1,0.4v7h6.1v-7c0-0.1,0-0.3,0.1-0.4l0.1-0.3H-77.7
		z M-71.7,81.2v6.6h-5.4v-6.6c0-0.1,0-0.1,0-0.3h5.4C-71.6,81-71.7,81.1-71.7,81.2L-71.7,81.2z M-85.4,80.5l0.1,0.3
		c0,0.1,0.1,0.3,0.1,0.4v7h6.1v-7c0-0.1,0-0.3,0.1-0.4l0.1-0.3H-85.4z M-79.4,81.2v6.6h-5.4v-6.6c0-0.1,0-0.1,0-0.3h5.4
		C-79.4,81-79.4,81.1-79.4,81.2L-79.4,81.2z M-93.1,80.5l0.1,0.3c0,0.1,0.1,0.3,0.1,0.4v7h6.1v-7c0-0.1,0-0.3,0.1-0.4l0.1-0.3H-93.1
		z M-87.1,81.2v6.6h-5.4v-6.6c0-0.1,0-0.1,0-0.3h5.4C-87.1,81-87.1,81.1-87.1,81.2L-87.1,81.2z M-31.3,80.5l0.1,0.3
		c0,0.1,0.1,0.3,0.1,0.4v7h6.1v-7c0-0.1,0-0.3,0.1-0.4l0.1-0.3H-31.3z M-25.3,81.2v6.6h-5.4v-6.6c0-0.1,0-0.1,0-0.3h5.4
		C-25.3,81-25.3,81.1-25.3,81.2L-25.3,81.2z M-38.9,80.8c0,0.1,0.1,0.3,0.1,0.4v7h6.1v-7c0-0.1,0-0.3,0.1-0.4l0.1-0.3h-6.6V80.8z
		 M-32.9,81c0,0.1,0,0.1,0,0.3v6.6h-5.6v-6.6c0-0.1,0-0.1,0-0.3H-32.9z M-46.6,80.8c0,0.1,0.1,0.3,0.1,0.4v7h6.1v-7
		c0-0.1,0-0.3,0.1-0.4l0.1-0.3h-6.6V80.8z M-40.8,81c0,0.1,0,0.1,0,0.3v6.6h-5.4v-6.6c0-0.1,0-0.1,0-0.3H-40.8z M-54.4,80.8
		c0,0.1,0.1,0.3,0.1,0.4v7h6.1v-7c0-0.1,0-0.3,0.1-0.4l0.1-0.3h-6.6V80.8z M-48.4,81c0,0.1,0,0.1,0,0.3v6.6h-5.4v-6.6
		c0-0.1,0-0.1,0-0.3H-48.4z M-62.1,80.8c0,0.1,0.1,0.3,0.1,0.4v7h6.1v-7c0-0.1,0-0.3,0.1-0.4l0.1-0.3h-6.7L-62.1,80.8z M-56.2,81
		c0,0.1,0,0.1,0,0.3v6.6h-5.4v-6.6c0-0.1,0-0.1,0-0.3H-56.2z M-69.8,80.8c0,0.1,0.1,0.3,0.1,0.4v7h6.1v-7c0-0.1,0-0.3,0.1-0.4
		l0.1-0.3h-6.6V80.8z M-63.9,81c0,0.1,0,0.1,0,0.3v6.6h-5.4v-6.6c0-0.1,0-0.1,0-0.3H-63.9z M-77.6,80.8c0,0.1,0.1,0.3,0.1,0.4v7h6.1
		v-7c0-0.1,0-0.3,0.1-0.4l0.1-0.3h-6.6V80.8z M-71.6,81c0,0.1,0,0.1,0,0.3v6.6H-77v-6.6c0-0.1,0-0.1,0-0.3H-71.6z M-85.3,80.8
		c0,0.1,0.1,0.3,0.1,0.4v7h6.1v-7c0-0.1,0-0.3,0.1-0.4l0.1-0.3h-6.6V80.8z M-79.4,81c0,0.1,0,0.1,0,0.3v6.6h-5.4v-6.6
		c0-0.1,0-0.1,0-0.3H-79.4z M-93.1,80.8c0,0.1,0.1,0.3,0.1,0.4v7h6.1v-7c0-0.1,0-0.3,0.1-0.4l0.1-0.3h-6.6V80.8z M-87.1,81
		c0,0.1,0,0.1,0,0.3v6.6h-5.4v-6.6c0-0.1,0-0.1,0-0.3H-87.1z M-31.1,80.8c0,0.1,0.1,0.3,0.1,0.4v7h6.1v-7c0-0.1,0-0.3,0.1-0.4
		l0.1-0.3h-6.6V80.8z M-25.3,81c0,0.1,0,0.1,0,0.3v6.6h-5.4v-6.6c0-0.1,0-0.1,0-0.3H-25.3z M-38.9,80.8c0,0.1,0.1,0.3,0.1,0.4v7h6.1
		v-7c0-0.1,0-0.3,0.1-0.4l0.1-0.3h-6.6V80.8z M-32.9,81c0,0.1,0,0.1,0,0.3v6.6h-5.6v-6.6c0-0.1,0-0.1,0-0.3H-32.9z M-46.6,80.8
		c0,0.1,0.1,0.3,0.1,0.4v7h6.1v-7c0-0.1,0-0.3,0.1-0.4l0.1-0.3h-6.6V80.8z M-40.8,81c0,0.1,0,0.1,0,0.3v6.6h-5.4v-6.6
		c0-0.1,0-0.1,0-0.3H-40.8z M-54.4,80.8c0,0.1,0.1,0.3,0.1,0.4v7h6.1v-7c0-0.1,0-0.3,0.1-0.4l0.1-0.3h-6.6V80.8z M-48.4,81
		c0,0.1,0,0.1,0,0.3v6.6h-5.4v-6.6c0-0.1,0-0.1,0-0.3H-48.4z M-62.1,80.8c0,0.1,0.1,0.3,0.1,0.4v7h6.1v-7c0-0.1,0-0.3,0.1-0.4
		l0.1-0.3h-6.7L-62.1,80.8z M-56.2,81c0,0.1,0,0.1,0,0.3v6.6h-5.4v-6.6c0-0.1,0-0.1,0-0.3H-56.2z M-69.8,80.8c0,0.1,0.1,0.3,0.1,0.4
		v7h6.1v-7c0-0.1,0-0.3,0.1-0.4l0.1-0.3h-6.6V80.8z M-63.9,81c0,0.1,0,0.1,0,0.3v6.6h-5.4v-6.6c0-0.1,0-0.1,0-0.3H-63.9z
		 M-77.6,80.8c0,0.1,0.1,0.3,0.1,0.4v7h6.1v-7c0-0.1,0-0.3,0.1-0.4l0.1-0.3h-6.6V80.8z M-71.6,81c0,0.1,0,0.1,0,0.3v6.6H-77v-6.6
		c0-0.1,0-0.1,0-0.3H-71.6z M-85.3,80.8c0,0.1,0.1,0.3,0.1,0.4v7h6.1v-7c0-0.1,0-0.3,0.1-0.4l0.1-0.3h-6.6V80.8z M-79.4,81
		c0,0.1,0,0.1,0,0.3v6.6h-5.4v-6.6c0-0.1,0-0.1,0-0.3H-79.4z M-93.1,80.8c0,0.1,0.1,0.3,0.1,0.4v7h6.1v-7c0-0.1,0-0.3,0.1-0.4
		l0.1-0.3h-6.6V80.8z M-87.1,81c0,0.1,0,0.1,0,0.3v6.6h-5.4v-6.6c0-0.1,0-0.1,0-0.3H-87.1z M-17.9,89.2H-20c-0.3-0.8-1-1.4-1.8-1.4
		h-1.1v-6.6c0-0.1,0-0.3-0.1-0.4c0.6-0.3,0.7-1,0.4-1.4c-0.1-0.3-0.6-0.6-1-0.6h-70.6c-0.6,0-1.1,0.4-1.1,1.1c0,0.4,0.1,0.7,0.6,1
		c0,0.1-0.1,0.3-0.1,0.4v6.6H-96c-0.8,0-1.7,0.6-1.8,1.4h-2.2c-0.8,0-1.5,0.7-1.5,1.5v92.8c0,0.8,0.7,1.5,1.5,1.5h82.2
		c0.8,0,1.5-0.7,1.5-1.5V90.7C-16.3,89.9-17,89.2-17.9,89.2z M-16.8,183.5c0,0.6-0.3,1-0.8,1.1c-0.1,0-0.3,0.1-0.4,0.1h-82.2
		c-0.1,0-0.3,0-0.4-0.1c-0.4-0.1-0.8-0.7-0.8-1.1V90.7c0-0.7,0.6-1.3,1.3-1.3h2.5v-0.1c0.1-0.7,0.8-1.3,1.5-1.3h1.5v-7
		c0-0.1,0-0.3,0.1-0.4l0.1-0.1l-0.1-0.1c-0.4-0.1-0.6-0.6-0.4-0.8c0.1-0.3,0.4-0.4,0.7-0.4h70.6c0.4,0,0.7,0.3,0.7,0.7
		c0,0.3-0.1,0.6-0.4,0.7l-0.1,0.1l0.1,0.1c0.1,0.1,0.1,0.3,0.1,0.4v7h1.5c0.7,0,1.4,0.6,1.5,1.3v0.1h2.4c0.7,0,1.3,0.6,1.3,1.3v92.6
		H-16.8z M-93.1,80.5l0.1,0.3c0,0.1,0.1,0.3,0.1,0.4v7h6.1v-7c0-0.1,0-0.3,0.1-0.4l0.1-0.3H-93.1z M-87.1,81.2v6.6h-5.4v-6.6
		c0-0.1,0-0.1,0-0.3h5.4C-87.1,81-87.1,81.1-87.1,81.2z M-85.4,80.5l0.1,0.3c0,0.1,0.1,0.3,0.1,0.4v7h6.1v-7c0-0.1,0-0.3,0.1-0.4
		l0.1-0.3H-85.4z M-79.4,81.2v6.6h-5.4v-6.6c0-0.1,0-0.1,0-0.3h5.4C-79.4,81-79.4,81.1-79.4,81.2z M-77.7,80.5l0.1,0.3
		c0,0.1,0.1,0.3,0.1,0.4v7h6.1v-7c0-0.1,0-0.3,0.1-0.4l0.1-0.3H-77.7z M-71.7,81.2v6.6h-5.4v-6.6c0-0.1,0-0.1,0-0.3h5.4
		C-71.6,81-71.7,81.1-71.7,81.2z M-69.9,80.5l0.1,0.3c0,0.1,0.1,0.3,0.1,0.4v7h6.1v-7c0-0.1,0-0.3,0.1-0.4l0.1-0.3H-69.9z
		 M-63.9,81.2v6.6h-5.4v-6.6c0-0.1,0-0.1,0-0.3h5.4C-63.9,81-63.9,81.1-63.9,81.2z M-62.2,80.5l0.1,0.3c0,0.1,0.1,0.3,0.1,0.4v7h6.1
		v-7c0-0.1,0-0.3,0.1-0.4l0.1-0.3H-62.2z M-56.2,81.2v6.6h-5.4v-6.6c0-0.1,0-0.1,0-0.3h5.4C-56.2,81-56.2,81.1-56.2,81.2z
		 M-54.4,80.5l0.1,0.3c0,0.1,0.1,0.3,0.1,0.4v7h6.1v-7c0-0.1,0-0.3,0.1-0.4l0.1-0.3H-54.4z M-48.4,81.2v6.6h-5.4v-6.6
		c0-0.1,0-0.1,0-0.3h5.4C-48.4,81-48.4,81.1-48.4,81.2z M-46.8,80.5l0.1,0.3c0,0.1,0.1,0.3,0.1,0.4v7h6.1v-7c0-0.1,0-0.3,0.1-0.4
		l0.1-0.3H-46.8z M-40.8,81.2v6.6h-5.4v-6.6c0-0.1,0-0.1,0-0.3h5.4C-40.8,81-40.8,81.1-40.8,81.2z M-39.1,80.5l0.1,0.3
		c0,0.1,0.1,0.3,0.1,0.4v7h6.1v-7c0-0.1,0-0.3,0.1-0.4l0.1-0.3H-39.1z M-33.1,81.2v6.6h-5.4v-6.6c0-0.1,0-0.1,0-0.3h5.4
		C-33.1,81-33.1,81.1-33.1,81.2z M-31.3,80.5l0.1,0.3c0,0.1,0.1,0.3,0.1,0.4v7h6.1v-7c0-0.1,0-0.3,0.1-0.4l0.1-0.3H-31.3z
		 M-25.3,81.2v6.6h-5.4v-6.6c0-0.1,0-0.1,0-0.3h5.4C-25.3,81-25.3,81.1-25.3,81.2z M-93.1,80.5l0.1,0.3c0,0.1,0.1,0.3,0.1,0.4v7h6.1
		v-7c0-0.1,0-0.3,0.1-0.4l0.1-0.3H-93.1z M-87.1,81.2v6.6h-5.4v-6.6c0-0.1,0-0.1,0-0.3h5.4C-87.1,81-87.1,81.1-87.1,81.2z
		 M-85.4,80.5l0.1,0.3c0,0.1,0.1,0.3,0.1,0.4v7h6.1v-7c0-0.1,0-0.3,0.1-0.4l0.1-0.3H-85.4z M-79.4,81.2v6.6h-5.4v-6.6
		c0-0.1,0-0.1,0-0.3h5.4C-79.4,81-79.4,81.1-79.4,81.2z M-77.7,80.5l0.1,0.3c0,0.1,0.1,0.3,0.1,0.4v7h6.1v-7c0-0.1,0-0.3,0.1-0.4
		l0.1-0.3H-77.7z M-71.7,81.2v6.6h-5.4v-6.6c0-0.1,0-0.1,0-0.3h5.4C-71.6,81-71.7,81.1-71.7,81.2z M-69.9,80.5l0.1,0.3
		c0,0.1,0.1,0.3,0.1,0.4v7h6.1v-7c0-0.1,0-0.3,0.1-0.4l0.1-0.3H-69.9z M-63.9,81.2v6.6h-5.4v-6.6c0-0.1,0-0.1,0-0.3h5.4
		C-63.9,81-63.9,81.1-63.9,81.2z M-62.2,80.5l0.1,0.3c0,0.1,0.1,0.3,0.1,0.4v7h6.1v-7c0-0.1,0-0.3,0.1-0.4l0.1-0.3H-62.2z
		 M-56.2,81.2v6.6h-5.4v-6.6c0-0.1,0-0.1,0-0.3h5.4C-56.2,81-56.2,81.1-56.2,81.2z M-54.4,80.5l0.1,0.3c0,0.1,0.1,0.3,0.1,0.4v7h6.1
		v-7c0-0.1,0-0.3,0.1-0.4l0.1-0.3H-54.4z M-48.4,81.2v6.6h-5.4v-6.6c0-0.1,0-0.1,0-0.3h5.4C-48.4,81-48.4,81.1-48.4,81.2z
		 M-46.8,80.5l0.1,0.3c0,0.1,0.1,0.3,0.1,0.4v7h6.1v-7c0-0.1,0-0.3,0.1-0.4l0.1-0.3H-46.8z M-40.8,81.2v6.6h-5.4v-6.6
		c0-0.1,0-0.1,0-0.3h5.4C-40.8,81-40.8,81.1-40.8,81.2z M-39.1,80.5l0.1,0.3c0,0.1,0.1,0.3,0.1,0.4v7h6.1v-7c0-0.1,0-0.3,0.1-0.4
		l0.1-0.3H-39.1z M-33.1,81.2v6.6h-5.4v-6.6c0-0.1,0-0.1,0-0.3h5.4C-33.1,81-33.1,81.1-33.1,81.2z M-31.3,80.5l0.1,0.3
		c0,0.1,0.1,0.3,0.1,0.4v7h6.1v-7c0-0.1,0-0.3,0.1-0.4l0.1-0.3H-31.3z M-25.3,81.2v6.6h-5.4v-6.6c0-0.1,0-0.1,0-0.3h5.4
		C-25.3,81-25.3,81.1-25.3,81.2z M-93.1,80.5l0.1,0.3c0,0.1,0.1,0.3,0.1,0.4v7h6.1v-7c0-0.1,0-0.3,0.1-0.4l0.1-0.3H-93.1z
		 M-87.1,81.2v6.6h-5.4v-6.6c0-0.1,0-0.1,0-0.3h5.4C-87.1,81-87.1,81.1-87.1,81.2z M-85.4,80.5l0.1,0.3c0,0.1,0.1,0.3,0.1,0.4v7h6.1
		v-7c0-0.1,0-0.3,0.1-0.4l0.1-0.3H-85.4z M-79.4,81.2v6.6h-5.4v-6.6c0-0.1,0-0.1,0-0.3h5.4C-79.4,81-79.4,81.1-79.4,81.2z
		 M-77.7,80.5l0.1,0.3c0,0.1,0.1,0.3,0.1,0.4v7h6.1v-7c0-0.1,0-0.3,0.1-0.4l0.1-0.3H-77.7z M-71.7,81.2v6.6h-5.4v-6.6
		c0-0.1,0-0.1,0-0.3h5.4C-71.6,81-71.7,81.1-71.7,81.2z M-69.9,80.5l0.1,0.3c0,0.1,0.1,0.3,0.1,0.4v7h6.1v-7c0-0.1,0-0.3,0.1-0.4
		l0.1-0.3H-69.9z M-63.9,81.2v6.6h-5.4v-6.6c0-0.1,0-0.1,0-0.3h5.4C-63.9,81-63.9,81.1-63.9,81.2z M-62.2,80.5l0.1,0.3
		c0,0.1,0.1,0.3,0.1,0.4v7h6.1v-7c0-0.1,0-0.3,0.1-0.4l0.1-0.3H-62.2z M-56.2,81.2v6.6h-5.4v-6.6c0-0.1,0-0.1,0-0.3h5.4
		C-56.2,81-56.2,81.1-56.2,81.2z M-54.4,80.5l0.1,0.3c0,0.1,0.1,0.3,0.1,0.4v7h6.1v-7c0-0.1,0-0.3,0.1-0.4l0.1-0.3H-54.4z
		 M-48.4,81.2v6.6h-5.4v-6.6c0-0.1,0-0.1,0-0.3h5.4C-48.4,81-48.4,81.1-48.4,81.2z M-46.8,80.5l0.1,0.3c0,0.1,0.1,0.3,0.1,0.4v7h6.1
		v-7c0-0.1,0-0.3,0.1-0.4l0.1-0.3H-46.8z M-40.8,81.2v6.6h-5.4v-6.6c0-0.1,0-0.1,0-0.3h5.4C-40.8,81-40.8,81.1-40.8,81.2z
		 M-39.1,80.5l0.1,0.3c0,0.1,0.1,0.3,0.1,0.4v7h6.1v-7c0-0.1,0-0.3,0.1-0.4l0.1-0.3H-39.1z M-33.1,81.2v6.6h-5.4v-6.6
		c0-0.1,0-0.1,0-0.3h5.4C-33.1,81-33.1,81.1-33.1,81.2z M-31.3,80.5l0.1,0.3c0,0.1,0.1,0.3,0.1,0.4v7h6.1v-7c0-0.1,0-0.3,0.1-0.4
		l0.1-0.3H-31.3z M-25.3,81.2v6.6h-5.4v-6.6c0-0.1,0-0.1,0-0.3h5.4C-25.3,81-25.3,81.1-25.3,81.2L-25.3,81.2z M-93.1,80.5l0.1,0.3
		c0,0.1,0.1,0.3,0.1,0.4v7h6.1v-7c0-0.1,0-0.3,0.1-0.4l0.1-0.3H-93.1z M-87.1,81.2v6.6h-5.4v-6.6c0-0.1,0-0.1,0-0.3h5.4
		C-87.1,81-87.1,81.1-87.1,81.2z M-85.4,80.5l0.1,0.3c0,0.1,0.1,0.3,0.1,0.4v7h6.1v-7c0-0.1,0-0.3,0.1-0.4l0.1-0.3H-85.4z
		 M-79.4,81.2v6.6h-5.4v-6.6c0-0.1,0-0.1,0-0.3h5.4C-79.4,81-79.4,81.1-79.4,81.2z M-77.7,80.5l0.1,0.3c0,0.1,0.1,0.3,0.1,0.4v7h6.1
		v-7c0-0.1,0-0.3,0.1-0.4l0.1-0.3H-77.7z M-71.7,81.2v6.6h-5.4v-6.6c0-0.1,0-0.1,0-0.3h5.4C-71.6,81-71.7,81.1-71.7,81.2z
		 M-69.9,80.5l0.1,0.3c0,0.1,0.1,0.3,0.1,0.4v7h6.1v-7c0-0.1,0-0.3,0.1-0.4l0.1-0.3H-69.9z M-63.9,81.2v6.6h-5.4v-6.6
		c0-0.1,0-0.1,0-0.3h5.4C-63.9,81-63.9,81.1-63.9,81.2z M-62.2,80.5l0.1,0.3c0,0.1,0.1,0.3,0.1,0.4v7h6.1v-7c0-0.1,0-0.3,0.1-0.4
		l0.1-0.3H-62.2z M-56.2,81.2v6.6h-5.4v-6.6c0-0.1,0-0.1,0-0.3h5.4C-56.2,81-56.2,81.1-56.2,81.2z M-54.4,80.5l0.1,0.3
		c0,0.1,0.1,0.3,0.1,0.4v7h6.1v-7c0-0.1,0-0.3,0.1-0.4l0.1-0.3H-54.4z M-48.4,81.2v6.6h-5.4v-6.6c0-0.1,0-0.1,0-0.3h5.4
		C-48.4,81-48.4,81.1-48.4,81.2L-48.4,81.2z M-46.8,80.5l0.1,0.3c0,0.1,0.1,0.3,0.1,0.4v7h6.1v-7c0-0.1,0-0.3,0.1-0.4l0.1-0.3H-46.8
		z M-40.8,81.2v6.6h-5.4v-6.6c0-0.1,0-0.1,0-0.3h5.4C-40.8,81-40.8,81.1-40.8,81.2L-40.8,81.2z M-39.1,80.5l0.1,0.3
		c0,0.1,0.1,0.3,0.1,0.4v7h6.1v-7c0-0.1,0-0.3,0.1-0.4l0.1-0.3H-39.1z M-33.1,81.2v6.6h-5.4v-6.6c0-0.1,0-0.1,0-0.3h5.4
		C-33.1,81-33.1,81.1-33.1,81.2L-33.1,81.2z M-31.3,80.5l0.1,0.3c0,0.1,0.1,0.3,0.1,0.4v7h6.1v-7c0-0.1,0-0.3,0.1-0.4l0.1-0.3H-31.3
		z M-25.3,81.2v6.6h-5.4v-6.6c0-0.1,0-0.1,0-0.3h5.4C-25.3,81-25.3,81.1-25.3,81.2L-25.3,81.2z"/>
	<path id="Path_288" class="st11" d="M-72.3,111.2h-13c-0.6,0-1-0.4-1-1v-6.8c0-0.6,0.4-1,1-1h13c0.6,0,1,0.4,1,1v6.8
		C-71.2,110.8-71.7,111.2-72.3,111.2L-72.3,111.2z"/>
	<path id="Path_289" class="st11" d="M-52.6,111.2h-13c-0.6,0-1-0.4-1-1v-6.8c0-0.6,0.4-1,1-1h13c0.6,0,1,0.4,1,1v6.8
		C-51.5,110.8-51.9,111.2-52.6,111.2L-52.6,111.2z"/>
	<path id="Path_290" class="st11" d="M-32.8,111.2h-13c-0.6,0-1-0.4-1-1v-6.8c0-0.6,0.4-1,1-1h13c0.6,0,1,0.4,1,1v6.8
		C-31.8,110.8-32.2,111.2-32.8,111.2z"/>
	<path id="Path_291" class="st11" d="M-72.3,134.3h-13c-0.6,0-1-0.4-1-1v-6.8c0-0.6,0.4-1,1-1h13c0.6,0,1,0.4,1,1v6.8
		C-71.2,133.8-71.7,134.3-72.3,134.3z"/>
	<path id="Path_292" class="st11" d="M-52.6,134.3h-13c-0.6,0-1-0.4-1-1v-6.8c0-0.6,0.4-1,1-1h13c0.6,0,1,0.4,1,1v6.8
		C-51.5,133.8-51.9,134.3-52.6,134.3L-52.6,134.3z"/>
	<path id="Path_293" class="st11" d="M-32.8,134.3h-13c-0.6,0-1-0.4-1-1v-6.8c0-0.6,0.4-1,1-1h13c0.6,0,1,0.4,1,1v6.8
		C-31.8,133.8-32.2,134.3-32.8,134.3L-32.8,134.3z"/>
	<path id="Path_294" class="st11" d="M-72.3,157.3h-13c-0.6,0-1-0.4-1-1v-6.8c0-0.6,0.4-1,1-1h13c0.6,0,1,0.4,1,1v6.8
		C-71.2,156.9-71.7,157.3-72.3,157.3z"/>
	<path id="Path_295" class="st11" d="M-52.6,157.3h-13c-0.6,0-1-0.4-1-1v-6.8c0-0.6,0.4-1,1-1h13c0.6,0,1,0.4,1,1v6.8
		C-51.5,156.9-51.9,157.3-52.6,157.3L-52.6,157.3z"/>
	<path id="Path_296" class="st11" d="M-32.8,157.3h-13c-0.6,0-1-0.4-1-1v-6.8c0-0.6,0.4-1,1-1h13c0.6,0,1,0.4,1,1v6.8
		C-31.8,156.9-32.2,157.3-32.8,157.3L-32.8,157.3z"/>
	<path id="Path_297" class="st8" d="M-74.4,112.2h-15.1c-0.7,0-1.4-0.6-1.4-1.4v-8c0-0.7,0.6-1.4,1.4-1.4h15.1
		c0.7,0,1.4,0.6,1.4,1.4v8C-73,111.5-73.5,112.2-74.4,112.2L-74.4,112.2z M-89.3,101.7c-0.6,0-1,0.4-1,1v8c0,0.6,0.4,1,1,1h15.1
		c0.6,0,1-0.4,1-1v-8c0-0.6-0.4-1-1-1H-89.3z"/>
	<path id="Path_298" class="st8" d="M-51.5,112.2h-15.1c-0.7,0-1.4-0.6-1.4-1.4v-8c0-0.7,0.6-1.4,1.4-1.4h15.1
		c0.7,0,1.4,0.6,1.4,1.4v8C-50.1,111.5-50.8,112.2-51.5,112.2L-51.5,112.2z M-66.6,101.7c-0.6,0-1,0.4-1,1v8c0,0.6,0.4,1,1,1h15.1
		c0.6,0,1-0.4,1-1v-8c0-0.6-0.4-1-1-1H-66.6z"/>
	<path id="Path_299" class="st8" d="M-28.8,112.2h-15.1c-0.7,0-1.4-0.6-1.4-1.4v-8c0-0.7,0.6-1.4,1.4-1.4h15.1
		c0.7,0,1.4,0.6,1.4,1.4v8C-27.4,111.5-27.9,112.2-28.8,112.2z M-43.7,101.7c-0.6,0-1,0.4-1,1v8c0,0.6,0.4,1,1,1h14.9
		c0.6,0,1-0.4,1-1v-8c0-0.6-0.4-1-1-1H-43.7z"/>
	<path id="Path_300" class="st8" d="M-74.4,135.2h-15.1c-0.7,0-1.4-0.6-1.4-1.4v-8c0-0.7,0.6-1.4,1.4-1.4h15.1
		c0.7,0,1.4,0.6,1.4,1.4v8C-73,134.5-73.5,135.2-74.4,135.2L-74.4,135.2z M-89.3,124.8c-0.6,0-1,0.4-1,1v8c0,0.6,0.4,1,1,1h15.1
		c0.6,0,1-0.4,1-1v-7.8c0-0.6-0.4-1-1-1L-89.3,124.8z"/>
	<path id="Path_301" class="st8" d="M-51.5,135.2h-15.1c-0.7,0-1.4-0.6-1.4-1.4v-8c0-0.7,0.6-1.4,1.4-1.4h15.1
		c0.7,0,1.4,0.6,1.4,1.4v8C-50.1,134.5-50.8,135.2-51.5,135.2L-51.5,135.2z M-66.6,124.8c-0.6,0-1,0.4-1,1v8c0,0.6,0.4,1,1,1h15.1
		c0.6,0,1-0.4,1-1v-7.8c0-0.6-0.4-1-1-1L-66.6,124.8z"/>
	<path id="Path_302" class="st8" d="M-28.8,135.2h-15.1c-0.7,0-1.4-0.6-1.4-1.4v-8c0-0.7,0.6-1.4,1.4-1.4h15.1
		c0.7,0,1.4,0.6,1.4,1.4v8C-27.4,134.5-27.9,135.2-28.8,135.2z M-43.7,124.8c-0.6,0-1,0.4-1,1v8c0,0.6,0.4,1,1,1h14.9
		c0.6,0,1-0.4,1-1v-7.8c0-0.6-0.4-1-1-1L-43.7,124.8z"/>
	<path id="Path_303" class="st8" d="M-74.4,158.3h-15.1c-0.7,0-1.4-0.6-1.4-1.4v-8c0-0.7,0.6-1.4,1.4-1.4h15.1
		c0.7,0,1.4,0.6,1.4,1.4v8C-73,157.6-73.5,158.3-74.4,158.3L-74.4,158.3z M-89.3,147.8c-0.6,0-1,0.4-1,1v8c0,0.6,0.4,1,1,1h15.1
		c0.6,0,1-0.4,1-1v-8c0-0.6-0.4-1-1-1H-89.3z"/>
	<path id="Path_304" class="st8" d="M-51.5,158.3h-15.1c-0.7,0-1.4-0.6-1.4-1.4v-8c0-0.7,0.6-1.4,1.4-1.4h15.1
		c0.7,0,1.4,0.6,1.4,1.4v8C-50.1,157.6-50.8,158.3-51.5,158.3L-51.5,158.3z M-66.6,147.8c-0.6,0-1,0.4-1,1v8c0,0.6,0.4,1,1,1h15.1
		c0.6,0,1-0.4,1-1v-8c0-0.6-0.4-1-1-1H-66.6z"/>
	<path id="Path_305" class="st8" d="M-28.8,158.3h-15.1c-0.7,0-1.4-0.6-1.4-1.4v-8c0-0.7,0.6-1.4,1.4-1.4h15.1
		c0.7,0,1.4,0.6,1.4,1.4v8C-27.4,157.6-27.9,158.3-28.8,158.3z M-43.7,147.8c-0.6,0-1,0.4-1,1v8c0,0.6,0.4,1,1,1h14.9
		c0.6,0,1-0.4,1-1v-8c0-0.6-0.4-1-1-1H-43.7z"/>
	<path id="Path_306" class="st8" d="M32.5,185.3h-177.1c-0.1,0-0.1-0.1-0.1-0.1l0.1-0.1H32.5c0.1,0,0.1,0.1,0.1,0.1L32.5,185.3z"/>
	<path id="Path_307" class="st8" d="M-50.1,168.3c0-0.8-0.7-1.5-1.5-1.5H-59v18.1h8.9V168.3z"/>
	<path id="Path_308" class="st8" d="M-58.9,184.8h-9.2v-16.3c0-1,0.7-1.7,1.7-1.7h7.5V184.8z M-67.7,184.5h8.5V167h-7.3
		c-0.7,0-1.3,0.6-1.3,1.3V184.5z"/>
	<circle id="Ellipse_5" class="st8" cx="-67" cy="176.4" r="0.6"/>
</g>
</svg>
