<?xml version="1.0" encoding="utf-8"?>
<!-- Generator: Adobe Illustrator 27.0.1, SVG Export Plug-In . SVG Version: 6.00 Build 0)  -->
<svg version="1.1" id="Layer_1" xmlns="http://www.w3.org/2000/svg" xmlns:xlink="http://www.w3.org/1999/xlink" x="0px" y="0px"
	 viewBox="0 0 250 250" style="enable-background:new 0 0 250 250;" xml:space="preserve">
<style type="text/css">
	.st0{fill:#FDF4F9;enable-background:new    ;}
	.st1{fill:#3B0F37;}
	.st2{fill:#FFA89F;}
	.st3{fill:none;stroke:#FFCAB9;stroke-width:0.55;stroke-miterlimit:10;}
	.st4{fill:#FFCAB9;}
	.st5{fill:#FFECE7;}
	.st6{fill:#2F1F38;}
	.st7{fill:#FDD0D0;}
	.st8{fill:#C8D8E2;}
	.st9{opacity:0.52;fill:#C8D8E2;enable-background:new    ;}
	.st10{fill:none;stroke:#2F1F38;stroke-width:0.68;stroke-miterlimit:10;}
	.st11{opacity:0.39;fill:url(#SVGID_1_);enable-background:new    ;}
	.st12{fill:none;stroke:#FFECE7;stroke-width:0.27;stroke-miterlimit:10;}
	.st13{opacity:0.39;fill:url(#SVGID_00000057141026495177519590000003797686498085582263_);enable-background:new    ;}
	.st14{fill:none;stroke:#2F1F38;stroke-width:0.88;stroke-miterlimit:10;}
	.st15{opacity:0.39;fill:url(#SVGID_00000112599993343624421510000000522523999407450023_);enable-background:new    ;}
	.st16{fill:none;stroke:#FFECE7;stroke-width:0.31;stroke-miterlimit:10;}
	.st17{opacity:0.52;}
	.st18{fill:#443E54;}
	.st19{opacity:0.38;fill:#2F1F38;enable-background:new    ;}
	.st20{fill:#FFD39D;}
	.st21{fill:none;stroke:#FFD39D;stroke-width:0.23;stroke-linecap:round;stroke-linejoin:round;}
	.st22{fill:none;stroke:#FFD39D;stroke-width:0.27;stroke-linecap:round;stroke-linejoin:round;}
	.st23{fill:#9ADAE1;}
	.st24{fill:#F38B74;}
	.st25{fill:#A7E8F5;}
	.st26{fill:none;stroke:#2F1F38;stroke-width:0.29;stroke-linecap:round;stroke-linejoin:round;}
	.st27{opacity:0.56;fill:#2F1F38;enable-background:new    ;}
	.st28{fill:#E9B8AF;}
	.st29{fill:none;stroke:#2F1F38;stroke-width:0.57;stroke-linecap:round;stroke-linejoin:round;}
</style>
<g>
	<g id="Layer_1_00000123404612665267347400000013068364548133419910_">
		<path class="st0" d="M6.2,195.6c-18-33.4,17.3-34.7,8.6-68.1C-3.3,58.3,95.7,31,124.1,76c14.6,23.2,41.9,28.6,50.5,23
			c20-13.1,55.5,0,64.9,24c14.5,36.8-15.2,72.6-15.2,72.6L6.2,195.6z"/>
		<path class="st1" d="M0.5,195h249c0.3,0,0.5,0.2,0.5,0.5v0c0,0.3-0.2,0.5-0.5,0.5H0.5c-0.3,0-0.5-0.2-0.5-0.5v0
			C0,195.2,0.2,195,0.5,195z"/>
		<rect x="54.5" y="70.6" class="st2" width="132.3" height="123.6"/>
		<line class="st3" x1="54.5" y1="78.4" x2="186.7" y2="78.4"/>
		<line class="st3" x1="54.5" y1="81.5" x2="186.7" y2="81.5"/>
		<line class="st3" x1="54.5" y1="84.6" x2="186.7" y2="84.6"/>
		<line class="st3" x1="54.5" y1="87.7" x2="186.7" y2="87.7"/>
		<line class="st3" x1="54.5" y1="90.7" x2="186.7" y2="90.7"/>
		<line class="st3" x1="54.5" y1="93.8" x2="186.7" y2="93.8"/>
		<line class="st3" x1="54.5" y1="96.9" x2="186.7" y2="96.9"/>
		<line class="st3" x1="54.5" y1="100" x2="186.7" y2="100"/>
		<line class="st3" x1="54.5" y1="103.1" x2="186.7" y2="103.1"/>
		<line class="st3" x1="54.5" y1="106.1" x2="186.7" y2="106.1"/>
		<line class="st3" x1="54.5" y1="109.2" x2="186.7" y2="109.2"/>
		<line class="st3" x1="54.5" y1="112.3" x2="186.7" y2="112.3"/>
		<line class="st3" x1="54.5" y1="115.4" x2="186.7" y2="115.4"/>
		<line class="st3" x1="54.5" y1="118.5" x2="186.7" y2="118.5"/>
		<line class="st3" x1="54.5" y1="121.6" x2="186.7" y2="121.6"/>
		<line class="st3" x1="54.5" y1="124.6" x2="186.7" y2="124.6"/>
		<line class="st3" x1="54.5" y1="127.7" x2="186.7" y2="127.7"/>
		<line class="st3" x1="54.5" y1="130.8" x2="186.7" y2="130.8"/>
		<line class="st3" x1="54.5" y1="133.9" x2="186.7" y2="133.9"/>
		<line class="st3" x1="54.5" y1="136.9" x2="186.7" y2="136.9"/>
		<line class="st3" x1="54.5" y1="140" x2="186.7" y2="140"/>
		<line class="st3" x1="54.5" y1="143.1" x2="186.7" y2="143.1"/>
		<line class="st3" x1="54.5" y1="146.2" x2="186.7" y2="146.2"/>
		<line class="st3" x1="54.5" y1="149.3" x2="186.7" y2="149.3"/>
		<line class="st3" x1="54.5" y1="152.4" x2="186.7" y2="152.4"/>
		<line class="st3" x1="54.5" y1="155.4" x2="186.7" y2="155.4"/>
		<line class="st3" x1="54.5" y1="158.5" x2="186.7" y2="158.5"/>
		<line class="st3" x1="54.5" y1="161.6" x2="186.7" y2="161.6"/>
		<line class="st3" x1="54.5" y1="164.7" x2="186.7" y2="164.7"/>
		<line class="st3" x1="54.5" y1="167.8" x2="186.7" y2="167.8"/>
		<line class="st3" x1="54.5" y1="170.8" x2="186.7" y2="170.8"/>
		<line class="st3" x1="54.5" y1="173.9" x2="186.7" y2="173.9"/>
		<rect x="54.5" y="73.3" class="st4" width="132.3" height="3.3"/>
		<rect x="56.4" y="176.7" class="st4" width="129.6" height="17.5"/>
		<rect x="54.5" y="69.4" class="st4" width="2" height="124.8"/>
		<rect x="184" y="69.4" class="st4" width="2.7" height="124.8"/>
		<rect x="74.8" y="80.3" class="st5" width="28.3" height="36.6"/>
		<rect x="76" y="81.8" class="st6" width="25.8" height="33.5"/>
		<rect x="77.4" y="83.7" class="st7" width="23" height="29.8"/>
		<rect x="77" y="83.1" class="st8" width="24" height="31"/>
		<polygon class="st9" points="100.9,83.1 100.9,83.7 77.6,83.7 77.6,114.1 77,114.1 77,83.1 		"/>
		<rect x="88.5" y="82.3" class="st6" width="1.1" height="32.3"/>
		<rect x="76.6" y="90.6" class="st6" width="25.1" height="1.6"/>
		<rect x="76.6" y="102.4" class="st6" width="25.1" height="1.6"/>
		<line class="st10" x1="83" y1="82.5" x2="83" y2="113.1"/>
		<line class="st10" x1="95.3" y1="82.5" x2="95.3" y2="113.1"/>
		
			<linearGradient id="SVGID_1_" gradientUnits="userSpaceOnUse" x1="88.52" y1="127.16" x2="88.52" y2="133.24" gradientTransform="matrix(1 0 0 -1 0 250)">
			<stop  offset="0" style="stop-color:#C1D0D9;stop-opacity:0"/>
			<stop  offset="1" style="stop-color:#5E728D"/>
		</linearGradient>
		<rect x="73.8" y="116.6" class="st11" width="29.5" height="6.4"/>
		<rect x="73.5" y="112.6" class="st5" width="30.7" height="4.2"/>
		<rect x="103.1" y="82" class="st6" width="9.8" height="29.5"/>
		<rect x="103.8" y="82.8" class="st12" width="8.4" height="28.1"/>
		<line class="st12" x1="103.9" y1="83.6" x2="112.1" y2="83.6"/>
		<line class="st12" x1="103.9" y1="84.7" x2="112.1" y2="84.7"/>
		<line class="st12" x1="103.9" y1="85.7" x2="112.1" y2="85.7"/>
		<line class="st12" x1="103.9" y1="86.7" x2="112.1" y2="86.7"/>
		<line class="st12" x1="103.9" y1="87.7" x2="112.1" y2="87.7"/>
		<line class="st12" x1="103.9" y1="88.7" x2="112.1" y2="88.7"/>
		<line class="st12" x1="103.9" y1="89.7" x2="112.1" y2="89.7"/>
		<line class="st12" x1="103.9" y1="90.7" x2="112.1" y2="90.7"/>
		<line class="st12" x1="103.9" y1="91.7" x2="112.1" y2="91.7"/>
		<line class="st12" x1="103.9" y1="92.7" x2="112.1" y2="92.7"/>
		<line class="st12" x1="103.9" y1="93.7" x2="112.1" y2="93.7"/>
		<line class="st12" x1="103.9" y1="94.7" x2="112.1" y2="94.7"/>
		<line class="st12" x1="103.9" y1="95.8" x2="112.1" y2="95.8"/>
		<line class="st12" x1="103.9" y1="96.8" x2="112.1" y2="96.8"/>
		<line class="st12" x1="103.9" y1="97.8" x2="112.1" y2="97.8"/>
		<line class="st12" x1="103.9" y1="98.8" x2="112.1" y2="98.8"/>
		<line class="st12" x1="103.9" y1="99.8" x2="112.1" y2="99.8"/>
		<line class="st12" x1="103.9" y1="100.8" x2="112.1" y2="100.8"/>
		<line class="st12" x1="103.9" y1="101.8" x2="112.1" y2="101.8"/>
		<line class="st12" x1="103.9" y1="102.8" x2="112.1" y2="102.8"/>
		<line class="st12" x1="103.9" y1="103.8" x2="112.1" y2="103.8"/>
		<line class="st12" x1="103.9" y1="104.8" x2="112.1" y2="104.8"/>
		<line class="st12" x1="103.9" y1="105.8" x2="112.1" y2="105.8"/>
		<line class="st12" x1="103.9" y1="106.9" x2="112.1" y2="106.9"/>
		<line class="st12" x1="103.9" y1="107.9" x2="112.1" y2="107.9"/>
		<line class="st12" x1="103.9" y1="108.9" x2="112.1" y2="108.9"/>
		<line class="st12" x1="103.9" y1="109.9" x2="112.1" y2="109.9"/>
		<rect x="64.9" y="82" class="st6" width="9.8" height="29.5"/>
		<rect x="65.6" y="82.8" class="st12" width="8.4" height="28.1"/>
		<line class="st12" x1="65.7" y1="83.6" x2="73.9" y2="83.6"/>
		<line class="st12" x1="65.7" y1="84.7" x2="73.9" y2="84.7"/>
		<line class="st12" x1="65.7" y1="85.7" x2="73.9" y2="85.7"/>
		<line class="st12" x1="65.7" y1="86.7" x2="73.9" y2="86.7"/>
		<line class="st12" x1="65.7" y1="87.7" x2="73.9" y2="87.7"/>
		<line class="st12" x1="65.7" y1="88.7" x2="73.9" y2="88.7"/>
		<line class="st12" x1="65.7" y1="89.7" x2="73.9" y2="89.7"/>
		<line class="st12" x1="65.7" y1="90.7" x2="73.9" y2="90.7"/>
		<line class="st12" x1="65.7" y1="91.7" x2="73.9" y2="91.7"/>
		<line class="st12" x1="65.7" y1="92.7" x2="73.9" y2="92.7"/>
		<line class="st12" x1="65.7" y1="93.7" x2="73.9" y2="93.7"/>
		<line class="st12" x1="65.7" y1="94.7" x2="73.9" y2="94.7"/>
		<line class="st12" x1="65.7" y1="95.8" x2="73.9" y2="95.8"/>
		<line class="st12" x1="65.7" y1="96.8" x2="73.9" y2="96.8"/>
		<line class="st12" x1="65.7" y1="97.8" x2="73.9" y2="97.8"/>
		<line class="st12" x1="65.7" y1="98.8" x2="73.9" y2="98.8"/>
		<line class="st12" x1="65.7" y1="99.8" x2="73.9" y2="99.8"/>
		<line class="st12" x1="65.7" y1="100.8" x2="73.9" y2="100.8"/>
		<line class="st12" x1="65.7" y1="101.8" x2="73.9" y2="101.8"/>
		<line class="st12" x1="65.7" y1="102.8" x2="73.9" y2="102.8"/>
		<line class="st12" x1="65.7" y1="103.8" x2="73.9" y2="103.8"/>
		<line class="st12" x1="65.7" y1="104.8" x2="73.9" y2="104.8"/>
		<line class="st12" x1="65.7" y1="105.8" x2="73.9" y2="105.8"/>
		<line class="st12" x1="65.7" y1="106.9" x2="73.9" y2="106.9"/>
		<line class="st12" x1="65.7" y1="107.9" x2="73.9" y2="107.9"/>
		<line class="st12" x1="65.7" y1="108.9" x2="73.9" y2="108.9"/>
		<line class="st12" x1="65.7" y1="109.9" x2="73.9" y2="109.9"/>
		<rect x="132.9" y="80.3" class="st5" width="28.3" height="36.6"/>
		<rect x="134.1" y="81.8" class="st6" width="25.9" height="33.5"/>
		<rect x="135.5" y="83.7" class="st7" width="23" height="29.8"/>
		<rect x="135.1" y="83.1" class="st8" width="23.9" height="31"/>
		<polygon class="st9" points="159,83.1 159,83.7 135.7,83.7 135.7,114.1 135.1,114.1 135.1,83.1 		"/>
		<rect x="146.6" y="82.3" class="st6" width="1.1" height="32.3"/>
		<rect x="134.7" y="90.6" class="st6" width="25.1" height="1.6"/>
		<rect x="134.7" y="102.4" class="st6" width="25.1" height="1.6"/>
		<line class="st10" x1="141.1" y1="82.5" x2="141.1" y2="113.1"/>
		<line class="st10" x1="153.4" y1="82.5" x2="153.4" y2="113.1"/>
		
			<linearGradient id="SVGID_00000175283981216252875890000011645547383406449540_" gradientUnits="userSpaceOnUse" x1="146.62" y1="127.16" x2="146.62" y2="133.24" gradientTransform="matrix(1 0 0 -1 0 250)">
			<stop  offset="0" style="stop-color:#C1D0D9;stop-opacity:0"/>
			<stop  offset="1" style="stop-color:#5E728D"/>
		</linearGradient>
		
			<rect x="131.9" y="116.6" style="opacity:0.39;fill:url(#SVGID_00000175283981216252875890000011645547383406449540_);enable-background:new    ;" width="29.5" height="6.4"/>
		<rect x="131.6" y="112.6" class="st5" width="30.7" height="4.2"/>
		<rect x="161.2" y="82" class="st6" width="9.8" height="29.5"/>
		<rect x="161.9" y="82.8" class="st12" width="8.4" height="28.1"/>
		<line class="st12" x1="162" y1="83.6" x2="170.2" y2="83.6"/>
		<line class="st12" x1="162" y1="84.7" x2="170.2" y2="84.7"/>
		<line class="st12" x1="162" y1="85.7" x2="170.2" y2="85.7"/>
		<line class="st12" x1="162" y1="86.7" x2="170.2" y2="86.7"/>
		<line class="st12" x1="162" y1="87.7" x2="170.2" y2="87.7"/>
		<line class="st12" x1="162" y1="88.7" x2="170.2" y2="88.7"/>
		<line class="st12" x1="162" y1="89.7" x2="170.2" y2="89.7"/>
		<line class="st12" x1="162" y1="90.7" x2="170.2" y2="90.7"/>
		<line class="st12" x1="162" y1="91.7" x2="170.2" y2="91.7"/>
		<line class="st12" x1="162" y1="92.7" x2="170.2" y2="92.7"/>
		<line class="st12" x1="162" y1="93.7" x2="170.2" y2="93.7"/>
		<line class="st12" x1="162" y1="94.7" x2="170.2" y2="94.7"/>
		<line class="st12" x1="162" y1="95.8" x2="170.2" y2="95.8"/>
		<line class="st12" x1="162" y1="96.8" x2="170.2" y2="96.8"/>
		<line class="st12" x1="162" y1="97.8" x2="170.2" y2="97.8"/>
		<line class="st12" x1="162" y1="98.8" x2="170.2" y2="98.8"/>
		<line class="st12" x1="162" y1="99.8" x2="170.2" y2="99.8"/>
		<line class="st12" x1="162" y1="100.8" x2="170.2" y2="100.8"/>
		<line class="st12" x1="162" y1="101.8" x2="170.2" y2="101.8"/>
		<line class="st12" x1="162" y1="102.8" x2="170.2" y2="102.8"/>
		<line class="st12" x1="162" y1="103.8" x2="170.2" y2="103.8"/>
		<line class="st12" x1="162" y1="104.8" x2="170.2" y2="104.8"/>
		<line class="st12" x1="162" y1="105.8" x2="170.2" y2="105.8"/>
		<line class="st12" x1="162" y1="106.9" x2="170.2" y2="106.9"/>
		<line class="st12" x1="162" y1="107.9" x2="170.2" y2="107.9"/>
		<line class="st12" x1="162" y1="108.9" x2="170.2" y2="108.9"/>
		<line class="st12" x1="162" y1="109.9" x2="170.2" y2="109.9"/>
		<rect x="123" y="82" class="st6" width="9.8" height="29.5"/>
		<rect x="123.7" y="82.8" class="st12" width="8.4" height="28.1"/>
		<line class="st12" x1="123.7" y1="83.6" x2="132" y2="83.6"/>
		<line class="st12" x1="123.7" y1="84.7" x2="132" y2="84.7"/>
		<line class="st12" x1="123.7" y1="85.7" x2="132" y2="85.7"/>
		<line class="st12" x1="123.7" y1="86.7" x2="132" y2="86.7"/>
		<line class="st12" x1="123.7" y1="87.7" x2="132" y2="87.7"/>
		<line class="st12" x1="123.7" y1="88.7" x2="132" y2="88.7"/>
		<line class="st12" x1="123.7" y1="89.7" x2="132" y2="89.7"/>
		<line class="st12" x1="123.7" y1="90.7" x2="132" y2="90.7"/>
		<line class="st12" x1="123.7" y1="91.7" x2="132" y2="91.7"/>
		<line class="st12" x1="123.7" y1="92.7" x2="132" y2="92.7"/>
		<line class="st12" x1="123.7" y1="93.7" x2="132" y2="93.7"/>
		<line class="st12" x1="123.7" y1="94.7" x2="132" y2="94.7"/>
		<line class="st12" x1="123.7" y1="95.8" x2="132" y2="95.8"/>
		<line class="st12" x1="123.7" y1="96.8" x2="132" y2="96.8"/>
		<line class="st12" x1="123.7" y1="97.8" x2="132" y2="97.8"/>
		<line class="st12" x1="123.7" y1="98.8" x2="132" y2="98.8"/>
		<line class="st12" x1="123.7" y1="99.8" x2="132" y2="99.8"/>
		<line class="st12" x1="123.7" y1="100.8" x2="132" y2="100.8"/>
		<line class="st12" x1="123.7" y1="101.8" x2="132" y2="101.8"/>
		<line class="st12" x1="123.7" y1="102.8" x2="132" y2="102.8"/>
		<line class="st12" x1="123.7" y1="103.8" x2="132" y2="103.8"/>
		<line class="st12" x1="123.7" y1="104.8" x2="132" y2="104.8"/>
		<line class="st12" x1="123.7" y1="105.8" x2="132" y2="105.8"/>
		<line class="st12" x1="123.7" y1="106.9" x2="132" y2="106.9"/>
		<line class="st12" x1="123.7" y1="107.9" x2="132" y2="107.9"/>
		<line class="st12" x1="123.7" y1="108.9" x2="132" y2="108.9"/>
		<line class="st12" x1="123.7" y1="109.9" x2="132" y2="109.9"/>
		<rect x="124.7" y="130.2" class="st5" width="40.2" height="42.1"/>
		<rect x="126.4" y="132" class="st6" width="36.8" height="38.5"/>
		<rect x="128.4" y="134.1" class="st7" width="32.8" height="34.3"/>
		<rect x="127.7" y="133.4" class="st8" width="34.1" height="35.7"/>
		<polygon class="st9" points="161.8,133.4 161.8,134.1 128.6,134.1 128.6,169.1 127.7,169.1 127.7,133.4 		"/>
		<rect x="144.1" y="132.5" class="st6" width="1.6" height="37.2"/>
		<rect x="127.2" y="142.1" class="st6" width="35.7" height="1.8"/>
		<rect x="127.2" y="155.6" class="st6" width="35.7" height="1.8"/>
		<line class="st14" x1="136.4" y1="132.8" x2="136.4" y2="168"/>
		<line class="st14" x1="153.8" y1="132.8" x2="153.8" y2="168"/>
		
			<linearGradient id="SVGID_00000109738598579262914130000013485023099900880309_" gradientUnits="userSpaceOnUse" x1="144.155" y1="70.86" x2="144.155" y2="77.85" gradientTransform="matrix(1 0 0 -1 0 250)">
			<stop  offset="0" style="stop-color:#C1D0D9;stop-opacity:0"/>
			<stop  offset="1" style="stop-color:#5E728D"/>
		</linearGradient>
		
			<rect x="123.2" y="171.9" style="opacity:0.39;fill:url(#SVGID_00000109738598579262914130000013485023099900880309_);enable-background:new    ;" width="42" height="7.3"/>
		<rect x="122.9" y="167.3" class="st5" width="43.7" height="4.9"/>
		<rect x="164.8" y="132.4" class="st6" width="11.2" height="34"/>
		<rect x="165.6" y="133.2" class="st16" width="9.7" height="32.3"/>
		<line class="st16" x1="165.7" y1="134.2" x2="175.2" y2="134.2"/>
		<line class="st16" x1="165.7" y1="135.4" x2="175.2" y2="135.4"/>
		<line class="st16" x1="165.7" y1="136.6" x2="175.2" y2="136.6"/>
		<line class="st16" x1="165.7" y1="137.7" x2="175.2" y2="137.7"/>
		<line class="st16" x1="165.7" y1="138.9" x2="175.2" y2="138.9"/>
		<line class="st16" x1="165.7" y1="140" x2="175.2" y2="140"/>
		<line class="st16" x1="165.7" y1="141.2" x2="175.2" y2="141.2"/>
		<line class="st16" x1="165.7" y1="142.4" x2="175.2" y2="142.4"/>
		<line class="st16" x1="165.7" y1="143.5" x2="175.2" y2="143.5"/>
		<line class="st16" x1="165.7" y1="144.7" x2="175.2" y2="144.7"/>
		<line class="st16" x1="165.7" y1="145.8" x2="175.2" y2="145.8"/>
		<line class="st16" x1="165.7" y1="147" x2="175.2" y2="147"/>
		<line class="st16" x1="165.7" y1="148.2" x2="175.2" y2="148.2"/>
		<line class="st16" x1="165.7" y1="149.3" x2="175.2" y2="149.3"/>
		<line class="st16" x1="165.7" y1="150.5" x2="175.2" y2="150.5"/>
		<line class="st16" x1="165.7" y1="151.6" x2="175.2" y2="151.6"/>
		<line class="st16" x1="165.7" y1="152.8" x2="175.2" y2="152.8"/>
		<line class="st16" x1="165.7" y1="154" x2="175.2" y2="154"/>
		<line class="st16" x1="165.7" y1="155.1" x2="175.2" y2="155.1"/>
		<line class="st16" x1="165.7" y1="156.3" x2="175.2" y2="156.3"/>
		<line class="st16" x1="165.7" y1="157.4" x2="175.2" y2="157.4"/>
		<line class="st16" x1="165.7" y1="158.6" x2="175.2" y2="158.6"/>
		<line class="st16" x1="165.7" y1="159.8" x2="175.2" y2="159.8"/>
		<line class="st16" x1="165.7" y1="160.9" x2="175.2" y2="160.9"/>
		<line class="st16" x1="165.7" y1="162.1" x2="175.2" y2="162.1"/>
		<line class="st16" x1="165.7" y1="163.2" x2="175.2" y2="163.2"/>
		<line class="st16" x1="165.7" y1="164.4" x2="175.2" y2="164.4"/>
		<rect x="113.3" y="132.2" class="st6" width="11.2" height="34"/>
		<rect x="114.1" y="133.1" class="st16" width="9.7" height="32.3"/>
		<line class="st16" x1="114.2" y1="134.1" x2="123.7" y2="134.1"/>
		<line class="st16" x1="114.2" y1="135.2" x2="123.7" y2="135.2"/>
		<line class="st16" x1="114.2" y1="136.4" x2="123.7" y2="136.4"/>
		<line class="st16" x1="114.2" y1="137.5" x2="123.7" y2="137.5"/>
		<line class="st16" x1="114.2" y1="138.7" x2="123.7" y2="138.7"/>
		<line class="st16" x1="114.2" y1="139.9" x2="123.7" y2="139.9"/>
		<line class="st16" x1="114.2" y1="141" x2="123.7" y2="141"/>
		<line class="st16" x1="114.2" y1="142.2" x2="123.7" y2="142.2"/>
		<line class="st16" x1="114.2" y1="143.4" x2="123.7" y2="143.4"/>
		<line class="st16" x1="114.2" y1="144.5" x2="123.7" y2="144.5"/>
		<line class="st16" x1="114.2" y1="145.7" x2="123.7" y2="145.7"/>
		<line class="st16" x1="114.2" y1="146.8" x2="123.7" y2="146.8"/>
		<line class="st16" x1="114.2" y1="148" x2="123.7" y2="148"/>
		<line class="st16" x1="114.2" y1="149.1" x2="123.7" y2="149.1"/>
		<line class="st16" x1="114.2" y1="150.3" x2="123.7" y2="150.3"/>
		<line class="st16" x1="114.2" y1="151.5" x2="123.7" y2="151.5"/>
		<line class="st16" x1="114.2" y1="152.6" x2="123.7" y2="152.6"/>
		<line class="st16" x1="114.2" y1="153.8" x2="123.7" y2="153.8"/>
		<line class="st16" x1="114.2" y1="155" x2="123.7" y2="155"/>
		<line class="st16" x1="114.2" y1="156.1" x2="123.7" y2="156.1"/>
		<line class="st16" x1="114.2" y1="157.3" x2="123.7" y2="157.3"/>
		<line class="st16" x1="114.2" y1="158.4" x2="123.7" y2="158.4"/>
		<line class="st16" x1="114.2" y1="159.6" x2="123.7" y2="159.6"/>
		<line class="st16" x1="114.2" y1="160.8" x2="123.7" y2="160.8"/>
		<line class="st16" x1="114.2" y1="161.9" x2="123.7" y2="161.9"/>
		<line class="st16" x1="114.2" y1="163.1" x2="123.7" y2="163.1"/>
		<line class="st16" x1="114.2" y1="164.2" x2="123.7" y2="164.2"/>
		<rect x="68" y="127.6" class="st5" width="36.7" height="66.5"/>
		<rect x="69.4" y="129" class="st6" width="34.1" height="64.8"/>
		<rect x="71.6" y="131.2" class="st8" width="30.3" height="4.3"/>
		<g class="st17">
			<polygon class="st8" points="101.9,131.2 101.9,131.9 72.4,131.9 72.4,135.5 71.6,135.5 71.6,131.2 			"/>
		</g>
		<rect x="72.7" y="138" class="st18" width="12.4" height="22.1"/>
		<rect x="73.9" y="139.1" class="st19" width="10" height="19.7"/>
		<rect x="72.8" y="161.4" class="st18" width="12.3" height="7.8"/>
		<rect x="73.9" y="162.1" class="st19" width="10.2" height="6.4"/>
		<rect x="88.3" y="161.4" class="st18" width="12.3" height="7.8"/>
		<rect x="89.3" y="162.1" class="st19" width="10.2" height="6.4"/>
		<rect x="88.2" y="138" class="st18" width="12.4" height="22.1"/>
		<rect x="89.5" y="139.1" class="st19" width="10" height="19.7"/>
		<rect x="72.7" y="170.5" class="st18" width="12.4" height="16.9"/>
		<rect x="73.9" y="171.3" class="st19" width="10" height="15"/>
		<rect x="88.2" y="170.5" class="st18" width="12.4" height="16.9"/>
		<rect x="89.5" y="171.3" class="st19" width="10" height="15"/>
		<rect x="66.5" y="126.1" class="st5" width="39.8" height="1.8"/>
		<rect x="54.6" y="190.9" class="st5" width="132.3" height="3.3"/>
		<rect x="51.1" y="70.8" class="st6" width="138.5" height="3.6"/>
		<path class="st18" d="M188.3,70.9c0,0-136-0.2-136,0.1l0.2-0.3l0.1-0.2l1.1-1.8l0.1-0.2l1.1-1.8l0.1-0.2l1.1-1.8l0.1-0.2l1.1-1.8
			l0.1-0.2l1.1-1.8l0.1-0.2l1.1-1.8l0.1-0.2l1.1-1.8l0.1-0.2l1.1-1.8l0.1-0.2l1.1-1.8l0.1-0.2l1.1-1.8l0.1-0.2l1.1-1.8l0.1-0.2
			l1-1.7l0.1-0.2l1-1.6h105.2l0.9,1.6l0.1,0.2l1,1.7l0.1,0.2l1.1,1.8l0.1,0.2l1.1,1.8l0.1,0.2l1.1,1.8l0.1,0.2l1.1,1.8l0.1,0.2
			l1.1,1.8l0.1,0.2l1.1,1.8l0.1,0.2l1,1.8l0.1,0.2l1.1,1.8l0.1,0.2l1.1,1.8l0.1,0.2l1.2,1.8l0.1,0.2l1.1,1.8l0.1,0.2L188.3,70.9z"/>
		<polygon class="st6" points="174.4,47 67.1,47 67.2,46.8 174.4,46.8 		"/>
		<polygon class="st6" points="175.5,48.9 66,48.9 66.1,48.7 175.5,48.7 		"/>
		<polygon class="st6" points="176.7,50.8 64.7,50.8 64.8,50.7 176.6,50.7 		"/>
		<polygon class="st6" points="177.9,52.8 63.5,52.8 63.6,52.7 177.8,52.7 		"/>
		<polygon class="st6" points="179,54.8 62.3,54.8 62.4,54.7 178.9,54.7 		"/>
		<polygon class="st6" points="180.1,56.8 61.1,56.8 61.2,56.7 180.1,56.7 		"/>
		<polygon class="st6" points="181.3,58.8 59.8,58.8 60,58.6 181.2,58.6 		"/>
		<polygon class="st6" points="182.5,60.8 58.6,60.8 58.7,60.6 182.4,60.6 		"/>
		<polygon class="st6" points="183.6,62.7 57.4,62.7 57.5,62.6 183.5,62.6 		"/>
		<polygon class="st6" points="184.8,64.7 56.2,64.7 56.3,64.6 184.7,64.6 		"/>
		<polygon class="st6" points="185.9,66.7 55,66.7 55,66.6 185.8,66.6 		"/>
		<polygon class="st6" points="187.1,68.7 53.7,68.7 53.8,68.5 187,68.5 		"/>
		<polygon class="st6" points="188.2,70.7 52.5,70.7 52.6,70.5 188.1,70.5 		"/>
		<path class="st20" d="M68.9,172.6c1.8-4.8,4.4-9.2,7.7-13c0.4-0.5,0.9-0.9,1.5-1.2c0.6-0.3,1.3-0.3,1.9,0.1c0.5,0.5,0.7,1.3,0.4,2
			c-0.3,0.7-0.7,1.3-1.2,1.8c-0.5,0.5-0.9,1.2-1.1,1.9c-0.1,1,0,2.1,0.4,3.1c0.4,1,0.4,2.1-0.1,3c-0.7,1.1-2.4,1.4-2.8,2.7
			s0.9,2.6,1,4c0,1.1-0.6,2.1-1.5,2.8c-0.9,0.6-1.9,1.1-2.9,1.4c-1.4,0.6-2.8,1.4-4,2.4c-1.2,0.9-2.3,2.4-3.5,3.2
			c0.2-1.1,0.4-2.1,0.7-3.2c0.3-1.2,0.7-2.5,1-3.7C67.2,177.3,67.9,174.9,68.9,172.6z"/>
		<path class="st21" d="M63.4,191.2c0.7-2.6,1.5-5.2,2.4-7.7"/>
		<path class="st20" d="M58.3,171c-1.7-5.8-4.5-11.2-8.1-16c-0.4-0.6-1-1.2-1.7-1.6c-0.7-0.4-1.5-0.4-2.2,0
			c-0.7,0.6-0.9,1.5-0.7,2.3c0.3,0.8,0.7,1.6,1.2,2.2c0.5,0.7,0.9,1.5,1.1,2.3c0.1,1.2-0.2,2.5-0.7,3.6c-0.6,1.1-0.6,2.4-0.2,3.6
			c0.8,1.4,2.8,1.9,3.2,3.4s-1.3,3-1.5,4.6c-0.1,1.3,0.5,2.6,1.5,3.4c1,0.8,2.2,1.4,3.3,1.9c1.6,0.8,3.2,1.9,4.6,3.1
			c1.3,1.2,2.5,3,3.9,4c-0.1-1.3-0.3-2.5-0.6-3.8c-0.3-1.5-0.6-3-0.9-4.4C60,176.7,59.2,173.8,58.3,171z"/>
		<path class="st22" d="M63.3,193.4c-0.6-3.1-1.3-6.2-2.3-9.3"/>
		<path class="st23" d="M46.8,196h65.1c-2.9-9.5-9.3-17.6-17.8-22.8c-1.9-1.2-4-2.1-6.2-2.5c-2.2-0.4-4.5,0.1-6.4,1.4
			c-2.3,1.8-3.2,5-2.9,7.9c0.4,2.9,1.3,5.7,2.7,8.3c-1.5-1.7-2.2-3.1-4.1-4.4c-1.8-1.4-4-2.3-6.2-2.4c-2.3,0-4.5,1.2-5.7,3.2
			c-1.2,2.4-0.5,5.2,0.2,7.8c-2.1-2.1-4.7-3.6-7.6-4.4c-3.1-0.8-6.7-0.2-8.9,2.1C47.5,191.8,46.8,193.9,46.8,196z"/>
		<path class="st24" d="M191.4,194.9H135c2.5-8.3,8-15.3,15.5-19.7c1.6-1.1,3.5-1.8,5.4-2.1c1.9-0.4,3.9,0.1,5.5,1.2
			c1.9,1.7,2.9,4.3,2.5,6.8c-0.4,2.5-1.2,4.9-2.3,7.2c1-1.4,2.2-2.7,3.5-3.9c1.5-1.2,3.5-1.9,5.4-2c2,0,3.9,1,4.9,2.8
			c1.1,2,0.5,4.5-0.2,6.7c1.8-1.8,4.1-3.1,6.6-3.8c2.7-0.8,5.7-0.1,7.7,1.8C190.8,191.3,191.5,193.1,191.4,194.9z"/>
		<path class="st18" d="M163.2,194.9h-32.1c2.2-6.3,9.1-9.6,15.4-7.3c1.7,0.6,3.3,1.6,4.6,2.9c0.5,0.6,0.9,1.1,1.4,1.7
			c1.3-2,4.4-2.6,6.7-2C161.3,190.9,162.9,192.7,163.2,194.9z"/>
		<path class="st24" d="M171,131.6l-3.2-10.4l0,0c0-0.7-0.2-1.5-0.3-2.2c-0.2-0.7-1.8-3.3-2.1-4.3s-0.9-2.7-1.5-2.4s0.6,3.7,0.6,3.7
			s-0.6-0.2-0.9,0s-0.2,0.8-0.2,0.8c-0.3,0.1-0.5,0.2-0.8,0.4c-0.2,0.3,0,1.2,0,1.2c-0.2,0.3-0.3,0.7-0.4,1
			c-0.1,0.4,0.6,0.7,1.4,1.2s2,1.4,2,1.4s1.3,9.4,1.8,13c0.4,2.7,1.1,5.4,1.9,8.1l4.7-4.6L171,131.6z"/>
		<path class="st23" d="M185.8,224.1c-0.1,1.3-2.4,2.5-3.1,2.8c-0.9,0.4-2.2,1.1-3.8,1.8c-1.1,0.5-2.4,0.1-3.1-0.9
			c0-0.1,0-0.1,0-0.2l0,0c0-0.1,0-0.1,0-0.2c0.1-0.5,0.2-1.3,0.4-2.1v-0.1c0.2-1.1,0.5-2.1,0.5-2.1l3.9-0.5l0.8,0.1h0.2l0.7,0.1h0.2
			l1,0.1h0.3l0,0l1.2,0.1c0.3,0,0.5,0.2,0.6,0.4c0,0.1,0.1,0.2,0.1,0.3C185.8,223.9,185.8,224,185.8,224.1z"/>
		<path class="st18" d="M185.8,224.1c-0.1,0.1-0.1,0.2-0.2,0.3c-0.3,0.3-0.6,0.5-0.9,0.7c-1.6,1.1-3.3,2.1-5.1,2.9
			c-0.6,0.3-1.3,0.4-2,0.5h-0.3c-0.6-0.1-1.2-0.3-1.6-0.8l0,0c0-0.1,0-0.1,0-0.2c0.4,0.5,0.9,0.8,1.6,0.9c0.4,0,0.8,0,1.2-0.1h0.1
			c0.3-0.1,0.6-0.2,0.9-0.3c1.8-0.8,3.5-1.7,5.1-2.8l0.2-0.1c0.3-0.2,0.5-0.4,0.7-0.6c0.1-0.1,0.2-0.3,0.3-0.4
			C185.8,224,185.8,224,185.8,224.1z"/>
		<path class="st18" d="M178.7,228.2h-0.1l0,0c0-0.6-0.1-1.1-0.3-1.7c-0.2-0.5-0.6-1-1.1-1.2c-0.3-0.1-0.7-0.1-1,0.1v-0.1
			c0.3-0.1,0.7-0.1,1,0c0.6,0.2,1,0.7,1.2,1.3C178.5,227.1,178.6,227.7,178.7,228.2L178.7,228.2z"/>
		<path class="st18" d="M184.8,224.9h-0.1c0-0.5-0.1-1-0.4-1.4c-0.2-0.2-0.4-0.4-0.6-0.5h0.3l0,0c0.2,0.1,0.3,0.2,0.4,0.4
			C184.7,223.8,184.9,224.3,184.8,224.9z"/>
		<path class="st18" d="M182.6,224.1C182.6,224.2,182.6,224.2,182.6,224.1L182.6,224.1L182.6,224.1c-0.2-0.6-0.6-1.1-1.1-1.4h0.2
			C182.1,223.1,182.5,223.6,182.6,224.1z"/>
		<path class="st18" d="M183.4,223.9L183.4,223.9C183.4,223.9,183.4,223.9,183.4,223.9c-0.3-0.4-0.6-0.8-1.1-1.1h0.2
			c0.3,0.3,0.6,0.6,0.8,1C183.4,223.8,183.4,223.9,183.4,223.9C183.4,223.9,183.4,223.9,183.4,223.9z"/>
		<path class="st23" d="M191.1,226.8c0,1.3-2.4,2.5-3.1,2.8c-0.9,0.4-2.2,1.1-3.8,1.8c-1.1,0.5-2.4,0.1-3.1-0.9c0-0.1,0-0.1,0-0.2
			l0,0c0-0.1,0-0.1,0-0.2c0-0.5,0.2-1.3,0.4-2.1v-0.1c0.2-1.1,0.5-2.1,0.5-2.1l3.9-0.6l0.8,0.1h0.2l0.7,0.1h0.2l1,0.1h0.3l0,0
			l1.2,0.1c0.3,0,0.5,0.2,0.6,0.4c0,0.1,0.1,0.2,0.1,0.3C191.1,226.5,191.1,226.6,191.1,226.8z"/>
		<path class="st18" d="M191.1,226.8c-0.1,0.1-0.1,0.2-0.2,0.3c-0.3,0.3-0.6,0.5-0.9,0.7c-1.6,1.1-3.3,2.1-5.1,2.9
			c-0.6,0.3-1.3,0.4-2,0.5h-0.3c-0.6,0-1.2-0.3-1.6-0.8l0,0c0-0.1,0-0.1,0-0.2c0.4,0.5,0.9,0.8,1.6,0.9c0.4,0,0.8,0,1.2-0.1h0.1
			c0.3-0.1,0.6-0.2,0.9-0.3c1.8-0.8,3.5-1.7,5.1-2.8l0.2-0.1c0.3-0.2,0.5-0.4,0.7-0.6c0.1-0.1,0.2-0.3,0.3-0.4
			C191.1,226.6,191.1,226.7,191.1,226.8z"/>
		<path class="st18" d="M184,230.9h-0.1l0,0c0-0.6-0.1-1.1-0.3-1.7c-0.2-0.5-0.6-1-1.1-1.2c-0.3-0.1-0.7-0.1-1,0.1v-0.1
			c0.3-0.1,0.7-0.1,1,0c0.6,0.2,1,0.7,1.2,1.3C183.9,229.8,184,230.3,184,230.9C184,230.9,184,230.9,184,230.9z"/>
		<path class="st18" d="M190.1,227.6H190c0-0.5-0.1-1-0.5-1.4c-0.2-0.2-0.4-0.4-0.6-0.5h0.3l0,0c0.2,0.1,0.3,0.2,0.4,0.4
			C190,226.5,190.2,227,190.1,227.6z"/>
		<path class="st18" d="M187.9,226.8C187.9,226.8,187.9,226.9,187.9,226.8L187.9,226.8C187.9,226.9,187.8,226.9,187.9,226.8
			c-0.2-0.6-0.6-1.1-1.1-1.4h0.2C187.5,225.8,187.8,226.3,187.9,226.8z"/>
		<path class="st18" d="M188.7,226.6L188.7,226.6L188.7,226.6c-0.2-0.4-0.6-0.8-1-1.1h0.2c0.3,0.3,0.6,0.6,0.8,1
			C188.8,226.5,188.7,226.6,188.7,226.6z"/>
		<path class="st24" d="M194.3,161.5c0,0-1.1,8.6-1.7,10.9l-2.5-5.6l0.6-5.7L194.3,161.5z"/>
		<path class="st25" d="M196.1,161.7l-0.2-5.7c-0.2-3.7-1.1-7.4-2.8-10.7c-0.4-0.7-1-1.3-1.8-1.5c-1.8-1.3-3.8-2.1-6-2.6
			c0,0-3.7,0.6-5.5-0.2c-2.1-1.1-4.2-2.4-6.1-3.8l-5.6,5.2c1.4,3.3,4.2,7,4.9,8.1s2.6,14.9,2.6,14.9l15.3,1l0.3-4.7L196.1,161.7z"/>
		<path class="st26" d="M191.4,153.6c0,0,0,6.4-0.1,8s-0.4,4.8-0.4,4.8"/>
		<path class="st26" d="M191.4,160.6c1.6,0.2,3.2,0.1,4.7-0.1"/>
		<path class="st26" d="M173.2,149c0.2,1.7,0.2,2.2,0.3,3.9"/>
		<path class="st26" d="M168.8,144c2.1-2,4-3.9,5.9-6"/>
		<path class="st18" d="M190.9,196.3c0,0-0.4,4.4-1.2,10.7s-3.1,18.6-3.1,18.6l-4.8,0.4l-0.1-2.8v-0.1h-0.1l-5.2,0.4
			c-1.3-10.5,2.1-25.8,2.1-25.8s-6.1-12.7-6.3-18.9v-0.1c0-0.1,0-0.1,0-0.2c0-2.6,0.5-5.2,1.3-7.7l0.1-0.2c0.4-1.4,1-2.7,1.6-4.1
			c0-0.1,0.1-0.1,0.1-0.2l0,0c0.3-0.6,0.4-1,0.5-1.1l15.3,1c0.9,2.8,1.7,5.7,2.3,8.5C194.3,179.8,190.9,196.3,190.9,196.3z"/>
		<path class="st6" d="M181.7,223.2L181.7,223.2c-0.1,0-0.1,0-0.1-0.1c0,0,0,0,0,0c0-0.1,0.4-8.2,0.5-12.1c0.1-3.9,0-7.8-0.3-11.6
			c-0.2-2.6-1-15-1.1-15.7l-1.7-2.9c0,0,0-0.1,0-0.1c0,0,0.1,0,0.2,0l1.7,3l0,0c0,0.1,0.9,13,1.1,15.7c0.3,3.9,0.4,7.8,0.3,11.7
			c-0.1,3.9-0.5,12-0.5,12.1C181.8,223.1,181.8,223.2,181.7,223.2z"/>
		<path class="st6" d="M179.1,179.5c-0.1,0-0.1,0-0.1-0.1c-0.4-3.8,0.1-7.6,1.5-11.1c0-0.1,0.1-0.1,0.1-0.1c0.1,0,0.1,0.1,0.1,0.1
			c0,0,0,0,0,0c-1.4,3.5-1.9,7.3-1.5,11C179.2,179.5,179.1,179.5,179.1,179.5L179.1,179.5z"/>
		<path class="st6" d="M188.2,168c-4.4,0-8.8-0.4-13.1-1.2c-0.1,0-0.1-0.1-0.1-0.1c0,0,0-0.1,0.1-0.1c5.3,1,10.6,1.4,16,1.2
			c0.1,0,0.1,0,0.1,0.1c0,0.1,0,0.1-0.1,0.1C190.2,168,189.2,168,188.2,168z"/>
		<path class="st6" d="M189.2,171.4C189.2,171.3,189.2,171.3,189.2,171.4l-6.9-0.3c0,0-0.1,0-0.1,0.1c-0.3,1.9-0.3,3.9-0.1,5.8
			c0.1,0.8,0.3,1.6,0.8,2.3c0.5,0.6,1.2,0.9,1.9,0.9c0.6,0,1.3-0.2,1.8-0.6c1.1-0.9,1.8-2.2,2-3.6c0.2-0.7,0.3-1.6,0.4-2.4
			s0.1-1.4,0.3-2C189.3,171.5,189.3,171.4,189.2,171.4C189.3,171.4,189.2,171.4,189.2,171.4z M188.8,173.5c-0.1,0.8-0.2,1.6-0.3,2.4
			c-0.2,1.4-0.9,2.6-2,3.5c-1,0.8-2.5,0.7-3.4-0.3c-0.4-0.6-0.7-1.4-0.7-2.1c-0.2-1.9-0.2-3.8,0.1-5.7l6.6,0.3
			C188.9,172.1,188.8,172.8,188.8,173.5L188.8,173.5z"/>
		<path class="st6" d="M177,171C177,171,176.9,171,177,171l-3.5-0.2l-0.1,0.2l3.4,0.2c-0.1,0.6-0.2,1.2-0.2,1.8
			c-0.1,0.7-0.2,1.5-0.3,2.2c-0.2,1.2-0.9,2.4-1.8,3.2c-0.7,0.5-1.5,0.6-2.3,0.4c0,0.1,0,0.1,0,0.2c0.3,0.1,0.5,0.1,0.8,0.1
			c0.6,0,1.2-0.2,1.6-0.5c1-0.9,1.7-2,1.9-3.3c0.1-0.7,0.3-1.5,0.3-2.2c0.1-0.6,0.1-1.3,0.2-1.9C177,171.1,177,171,177,171z"/>
		<path class="st6" d="M190.8,150.8c-0.2,0.7-0.8,1.1-1.5,1.1c-0.5,0-0.9-0.1-1.3-0.2c0-2-0.1-4-0.4-5.9c0,1.9-0.3,3.7-1,5.5
			c-0.4-0.1-0.8-0.1-1.2,0c-0.9,0.2-1.7,0.9-2.6,0.8c-0.5-0.1-0.9-0.3-1.3-0.6c-0.2-0.1-0.5-0.2-0.8-0.3c-0.2-1.2-0.4-2.4-0.4-3.6
			c-0.3,1.2-0.4,2.5-0.4,3.8c-0.5,0.2-1,0.4-1.6,0.4c-0.7,0.1-1.3-0.3-1.6-0.9c-0.1-0.5-0.2-0.9-0.2-1.4c-0.1-1.4-1.2-2.6-1.3-4.1
			c-0.2-2.1,1.6-3.9,2.4-5.8c1.1-2.8,0.3-6,1.1-8.9c0.8-3,3.3-5.3,6.3-5.9c2.3-0.5,4.9,1.2,5.9,3.3c1.1,2.3,0.7,5.1,1.4,7.5
			c0.6,1.8,1,3.7,1.1,5.7C193.6,144.7,191.4,147.5,190.8,150.8z"/>
		<path class="st27" d="M190.8,150.8c-0.2,0.7-0.8,1.1-1.5,1.1c-0.5,0-0.9-0.1-1.3-0.2c0-2-0.1-4-0.4-5.9c0,1.9-0.3,3.7-1,5.5
			c-0.4-0.1-0.8-0.1-1.2,0c-0.9,0.2-1.7,0.9-2.6,0.8c-0.5-0.1-0.9-0.3-1.3-0.6c-0.2-0.1-0.5-0.2-0.8-0.3c-0.2-1.2-0.4-2.4-0.4-3.6
			c-0.3,1.2-0.4,2.5-0.4,3.8c-0.5,0.2-1,0.4-1.6,0.4c-0.7,0.1-1.3-0.3-1.6-0.9c-0.1-0.5-0.2-0.9-0.2-1.4c-0.1-1.4-1.2-2.6-1.3-4.1
			c-0.2-2.1,1.6-3.9,2.4-5.8c1.1-2.8,0.3-6,1.1-8.9c0.8-3,3.3-5.3,6.3-5.9c2.3-0.5,4.9,1.2,5.9,3.3c1.1,2.3,0.7,5.1,1.4,7.5
			c0.6,1.8,1,3.7,1.1,5.7C193.6,144.7,191.4,147.5,190.8,150.8z"/>
		<path class="st24" d="M186,141.2l-5.6,5.2l-2.4-9.1c-0.9-0.5-2.1-0.2-2.8,0.6c0,0-0.9,7.1-0.6,10.2c0.3,2.9,2.7,7.2,6.8,5.4
			c1.6-0.5,3-1.3,4.4-2.3c1.7-1.2,3.2-2.7,4.5-4.4L186,141.2z"/>
		<path class="st26" d="M180.5,146.3c-0.7,0.9-1.2,1.9-1.6,3"/>
		<path class="st24" d="M195.1,122.9c-0.1,1.2,0.4,2.3,1.3,3.1c0.2,0.2,0.4,0.3,0.7,0.4c0.3,0.1,0.5,0,0.8-0.1
			c0.9-0.6,0.1-2.5-0.4-3.2S195.2,121.5,195.1,122.9z"/>
		<path class="st24" d="M207.6,126.4c0,0,0.1,0.1,0.2,0.1c0.2,0.1,0.4,0.1,0.6,0c0.2-0.1,0.5-0.2,0.7-0.4c0.9-0.8,1.3-2,1.2-3.1
			c-0.1-0.9-0.8-0.8-1.4-0.5c-0.4,0.2-0.7,0.5-0.9,0.8C207.5,123.9,206.7,125.8,207.6,126.4z"/>
		<path class="st24" d="M198.9,126.8l0.1,1.8l0.1,2.8v0.3c0,0,0.9,0.8,4.1,0.7c1.3,0,2.6-0.3,3.7-1.1c0.2-0.1,0.4-0.3,0.6-0.5
			c0-0.2,0-0.4-0.1-0.7c0-0.7-0.1-1.7-0.1-2.5s0-1.1,0-1.1h-1.3L198.9,126.8z"/>
		<path class="st6" d="M196.2,122.3l0.1,0.3c0.5,1.2,0.8,2.4,1.2,3.6c0.3,0.9,0.7,1.7,1.4,2.3l0.1,0.1c1.7,1.6,4.2,2,6.3,0.9
			l0.2-0.1c0.7-0.5,1.3-1.1,1.8-1.8c0.2-0.3,0.3-0.5,0.4-0.8c0.1-0.1,0.1-0.2,0.1-0.3c0.5-1.1,0.8-2.3,1.2-3.4
			c0.1-0.2,0.1-0.4,0.2-0.6c0.4-1.3,0.7-2.7,0.8-4.1c0.1-0.5,0-0.9-0.3-1.3c-0.3-0.3-0.8-0.3-1.2-0.6c-0.6-0.5-0.5-1.4-0.9-2.1
			c-0.2-0.4-0.6-0.8-1.1-0.9c-0.3-0.2-0.7-0.2-1.1-0.3c-0.9-0.1-1.7,0.1-2.6,0.1c-1.1-0.2-2.2-0.2-3.4-0.1c-1.1,0.5-2.1,1.3-2.7,2.3
			c-0.6,0.7-1.1,1.6-1.4,2.5C195.2,119.7,195.5,121.1,196.2,122.3z"/>
		<path class="st24" d="M215.6,151.7c0,0,1.3,9.2,1.5,10.9s0.4,7.6,0.4,7.6l2.6,0.9c0.8-3.6,1.3-7.2,1.6-10.9c0.2-3.3,0-6.7-0.6-10
			L215.6,151.7z"/>
		<path class="st24" d="M217.4,170.1c-0.7,1.1-1.1,2.3-1.1,3.6c0.1,1.9-0.1,4,0.3,3.8s0.7-3.1,1.4-4s2-2.5,2-2.5L217.4,170.1z"/>
		<path class="st24" d="M220,171.1c0,0,0.7,4.9,0.3,6.1s-2,4.3-2.5,4.2s-1-1.4-0.6-2.2c0.3-0.9,0.6-1.8,0.9-2.7l-0.9-3.2L220,171.1z
			"/>
		<path class="st28" d="M209.3,228.8c0,0.2,0,0.3,0,0.5c0,0,0,0.1,0,0.1c-0.1,0.3-0.3,0.6-0.7,0.7c-1.5,1-3.4-0.5-4-0.9
			c-1.4-0.8-2.9-1.3-4.4-1.6c-1.7-0.3-2.6-1.2-2.6-2.3c0-0.1,0-0.3,0-0.4v-0.2c0.3-1.1,1.3-1.8,2.5-1.7c0.2,0,0.6,0,1.1,0h0.2h1.3
			h0.1l1.3,0.1h0.1h0.7c0,0,4-0.1,4.1,0.1s0.2,1.5,0.3,2.9v0.1l0,0C209.2,227.3,209.3,228.3,209.3,228.8z"/>
		<path class="st24" d="M204.7,221.8l-0.1,1.8c0,0.2,0.6,0.9,0.8,0.9c1.1,0.7,2.6,0.4,3.4-0.7c0.1-0.1,0.1-0.2,0.2-0.3l-0.3-2.4
			L204.7,221.8z"/>
		<path class="st18" d="M209.2,229.3c0,0,0,0.1,0,0.1c-0.4,0.2-0.8,0.3-1.2,0.3h-0.1c-0.7,0-1.4-0.2-2.1-0.5
			c-0.4-0.2-0.8-0.4-1.1-0.6l-0.8-0.4c-1-0.5-2.2-0.9-3.3-1.1l-0.3-0.1c-0.5-0.1-1-0.2-1.4-0.4l0,0c-0.3-0.1-0.6-0.3-0.9-0.6
			c-0.2-0.2-0.3-0.4-0.4-0.7c0-0.1,0-0.3,0-0.4c0.1,0.4,0.2,0.7,0.5,1c0.2,0.2,0.5,0.4,0.8,0.6h0.1c0.4,0.1,0.9,0.3,1.4,0.3l0.3,0.1
			c1.2,0.2,2.3,0.6,3.3,1.1l0.8,0.4c0.4,0.2,0.7,0.4,1.1,0.6l0.3,0.1h0.1c0.5,0.2,1.1,0.3,1.6,0.3
			C208.4,229.5,208.8,229.5,209.2,229.3z"/>
		<path class="st18" d="M201.2,223c-1.2,0.8-2.1,2.1-2.4,3.5c0,0,0,0.1,0,0.1h-0.1c0,0,0-0.1,0-0.1c0.2-1.4,1-2.7,2.2-3.5H201.2
			L201.2,223z"/>
		<path class="st18" d="M209.1,226.3c-0.8-0.3-1.7,0-2.1,0.7c-0.4,0.7-0.7,1.5-0.7,2.3l0,0h-0.1v-0.1c0-0.8,0.2-1.7,0.7-2.4
			c0.5-0.7,1.4-1,2.2-0.8L209.1,226.3z"/>
		<path class="st18" d="M202.6,223.1c-0.4,0.5-0.6,1.1-0.6,1.8c0,0,0,0,0,0.1l0,0c0,0,0,0,0-0.1C202,224.2,202.2,223.6,202.6,223.1
			L202.6,223.1z"/>
		<path class="st18" d="M204,223.1c-0.3,0.5-0.5,1.1-0.6,1.7c0,0,0,0.1-0.1,0.1l0,0c0,0-0.1,0-0.1-0.1c0-0.6,0.2-1.2,0.6-1.7
			L204,223.1z"/>
		<path class="st28" d="M219,223.3L219,223.3c0,0,0,0.1,0,0.1c0,0.4,0,0.8,0,1.3l0,0c0,0.1,0,0.1,0,0.2c0,0.3-0.1,0.6-0.3,0.8
			c-0.3,0.2-0.6,0.3-0.9,0.3c-0.5,0-0.9,0-1.4-0.1c-0.5-0.1-0.9-0.3-1.2-0.7c-0.5-0.6-0.6-1.5-1.2-2c-0.4-0.3-0.9-0.4-1.3-0.7
			c-0.6-0.4-0.9-1.1-0.8-1.8c0-0.1,0-0.2,0.1-0.3c0-0.1,0-0.1,0-0.2c0.1-0.4,0.4-0.8,0.7-1.1c0.2-0.3,0.6-0.5,1-0.4
			c0.5,0.1,1.1,0.1,1.6,0.2s1,0.2,1.6,0.3l0.8,0.2c0.1,0,0.7,0.2,0.7,0.2C218.8,220.9,219,222.1,219,223.3z"/>
		<path class="st18" d="M219,224.7L219,224.7c0,0.1,0,0.1,0,0.2c-0.5,0.4-1,0.6-1.6,0.6h-0.1c-0.8,0-1.6-0.5-2.1-1.1l-0.2-0.4
			c-0.1-0.3-0.3-0.5-0.5-0.7c-0.2-0.2-0.5-0.3-0.7-0.4c-0.1-0.1-0.3-0.1-0.4-0.2c-0.6-0.3-1.1-0.8-1.3-1.4c-0.1-0.2-0.1-0.4-0.1-0.5
			c0-0.1,0-0.2,0.1-0.3c0-0.1,0-0.1,0-0.2c0,0.3,0,0.6,0.1,0.9v0.1l0,0c0.2,0.6,0.7,1,1.2,1.3c0.1,0.1,0.2,0.1,0.4,0.1
			c0.3,0.1,0.5,0.2,0.8,0.4c0.2,0.2,0.4,0.5,0.6,0.8c0.1,0.1,0.1,0.3,0.2,0.4c0.1,0.1,0.2,0.2,0.3,0.4l0.1,0.1l0,0
			c0.4,0.4,1,0.6,1.6,0.6C217.8,225.3,218.5,225.1,219,224.7z"/>
		<path class="st18" d="M219,223.3L219,223.3c0,0,0,0.1,0,0.1c-0.4-0.3-0.8-0.5-1.3-0.6l0,0c-1,0-1.9,0.8-2,1.8h-0.1c0,0,0,0,0-0.1
			c0.1-0.5,0.3-0.9,0.7-1.3c0.4-0.3,0.9-0.5,1.4-0.5l0,0C218.1,222.8,218.6,223,219,223.3z"/>
		<path class="st18" d="M212.1,221.3l-0.1-0.1c0.7-1.2,2-1.9,3.3-1.9l0,0v0.1l0,0C214,219.4,212.8,220.1,212.1,221.3z"/>
		<path class="st24" d="M214.3,218.2l-0.1,1.8c0,0.8,1,1.1,1.6,1.2c0.5,0.1,1.1,0,1.6-0.3c0.3-0.2,1-0.8,1-1.2l-0.2-2.1L214.3,218.2
			z"/>
		<path class="st18" d="M218.9,219.5c-2,1.6-5.5,0.5-5.5,0.5s-0.9-7-1.2-8.6s-1.6-10.2-2.2-13.8l-2.4-14.9c0,0-0.7,19.4-0.7,20.8
			s2.6,18.4,2.6,18.4c-1.6,1.9-5.8,1-5.8,1s-3.2-12.8-3.8-15.2s-1.4-7.4-2.6-13.5s-3.7-23.4-3.7-23.4l22.6-0.8c0,0,0.1,0.5,0.1,1.4
			v0.2c0.1,0.9,0.2,2.1,0.3,3.5c0,0.3,0.1,0.6,0.1,0.9c0.4,4,0.5,8,0.4,12.1c-0.4,6.7,0.5,7.8,1.4,14.6S218.9,219.5,218.9,219.5z"/>
		<path class="st29" d="M207.9,177.9c0,0-0.4,4.6-0.4,7.4s-0.8,15.4-0.6,17.9s2.5,18.7,2.5,18.7"/>
		<path class="st6" d="M205.4,171.9c0-0.1-0.1-0.1-0.1-0.1l-8.1,0.3c0,0-0.1,0-0.1,0c0,0,0,0.1,0,0.1c0.1,0.7,0.2,1.4,0.2,2
			c0,0.7,0.1,1.5,0.3,2.2c0.2,1.4,0.9,2.7,1.9,3.7c0.6,0.5,1.4,0.8,2.3,0.8c0.6,0,1.2-0.2,1.7-0.6c0.6-0.6,1.1-1.3,1.3-2.2
			C205.5,176.1,205.7,174,205.4,171.9z M204.6,178.1c-0.2,0.8-0.6,1.5-1.2,2.1c-1.2,0.7-2.7,0.6-3.7-0.3c-1-0.9-1.7-2.2-1.9-3.5
			c-0.1-0.7-0.2-1.4-0.3-2.1c-0.1-0.6-0.1-1.3-0.2-1.9l7.8-0.3C205.4,174.1,205.2,176.2,204.6,178.1L204.6,178.1z"/>
		<path class="st6" d="M216.7,175c-0.1,0.6-0.2,1.3-0.4,1.9c-0.1,0.7-0.5,1.4-1,1.9c-1,0.7-2.3,0.6-3.3-0.1
			c-0.9-0.8-1.5-1.9-1.7-3.1c-0.1-0.6-0.2-1.3-0.3-1.9c-0.1-0.6-0.1-1.2-0.2-1.7l6.6-0.4v-0.2l-6.8,0.4h-0.1c0,0,0,0.1,0,0.1
			c0.1,0.6,0.2,1.2,0.3,1.8c0.1,0.6,0.2,1.3,0.3,1.9c0.2,1.2,0.8,2.4,1.8,3.2c0.6,0.4,1.3,0.7,2,0.7c0.6,0,1.1-0.2,1.6-0.6
			c0.6-0.5,0.9-1.2,1.1-2c0.1-0.4,0.2-0.7,0.3-1.1S216.7,175.3,216.7,175z"/>
		<path class="st20" d="M219.3,140.4c-0.8-1.8-2-3.4-3.5-4.7l-0.2-0.1c-0.2-0.1-0.4-0.3-0.7-0.4c-2.3-1.7-4.8-3.1-7.4-4.3
			c-2.8,0-5.7,0.3-8.5,0.7h-0.1c-1.8,0.2-3.5,0.7-5.2,1.5l-0.1,0.1c-0.4,0.2-0.7,0.4-0.9,0.8c-1.1,1-2.1,2-3,3.1
			c-2.2,2.3-4.6,4.5-7.1,6.4l6.5,8l5-3.6l0,0v0.1c0.2,7.9,0,15.9-0.8,23.8c0,0,6.2-0.3,11.6-0.9c3.9-0.3,7.8,0,11.6,0.9
			c0,0-0.3-8.4-0.3-12.9c0-2-0.2-3.9-0.1-6.6l5.2-0.8C221.3,151.3,221.3,144.8,219.3,140.4z"/>
		<path class="st6" d="M215.6,151.7L215.6,151.7C215.6,151.7,215.6,151.7,215.6,151.7c0.1-2.6,0.6-5.1,1.3-7.5c0,0,0,0,0.1,0
			c0,0,0,0,0,0c-0.7,2.4-1.1,4.9-1.3,7.4c0,0,0,0.1,0,0.1C215.7,151.8,215.7,151.8,215.6,151.7z"/>
		<path class="st6" d="M215.8,150.5L215.8,150.5C215.7,150.5,215.7,150.4,215.8,150.5c0.3-1.1,0.7-2.1,1.2-3.1c0,0,0,0,0.1,0
			c0,0,0,0,0,0 M217.1,147.5c-0.5,1-0.9,2-1.2,3c0,0-0.1,0-0.1,0L217.1,147.5z"/>
		<path class="st6" d="M216.8,140.6C216.8,140.6,216.8,140.6,216.8,140.6C216.7,140.6,216.7,140.6,216.8,140.6
			c-0.1-1.6-0.4-3.2-1.1-4.7c-0.1-0.1-0.1-0.2-0.1-0.3l0.2,0.1c0.1,0.1,0.1,0.3,0.2,0.4C216.5,137.5,216.8,139.1,216.8,140.6z"/>
		<path class="st6" d="M196,141.8C196,141.8,196,141.9,196,141.8L196,141.8 M195.9,141.8c0-0.6-0.1-1.1-0.2-1.7
			c-0.2-1.3-0.5-2.6-0.9-3.9c-0.3-1-0.7-2-1.2-3l-0.1-0.1l0.1-0.1c0,0,0,0.1,0.1,0.1c0.3,0.7,0.6,1.3,0.8,2c0.7,1.9,1.2,3.9,1.4,6
			L195.9,141.8z"/>
		<path class="st6" d="M189.1,151.4C189.1,151.4,189.1,151.3,189.1,151.4c0-0.1,0-0.1,0-0.1l3.5-2.7l3.4-2.6c0,0,0.1,0,0.1,0
			c0,0,0,0.1,0,0.1l-3.5,2.7L189.1,151.4L189.1,151.4z"/>
		<path class="st6" d="M195.7,148L195.7,148c-0.6-0.1-1.2-0.2-1.8-0.2c0,0-0.1,0-0.1-0.1c0,0,0-0.1,0.1-0.1l0,0
			c0.6,0,1.2,0.1,1.8,0.2 M195.7,147.9C195.7,148,195.7,148,195.7,147.9L195.7,147.9z"/>
		<path class="st6" d="M202.7,132.7c-1.3,0-2.6-0.4-3.8-1.1c0,0,0-0.1,0-0.1c0,0,0,0,0.1,0c0,0,0,0,0,0c2.6,1.6,6,1.3,8.4-0.7
			c0,0,0.1,0,0.1,0c0,0,0,0,0,0.1c-1.2,1-2.6,1.6-4.1,1.7L202.7,132.7z"/>
		<path class="st6" d="M195,171.6L195,171.6C195,171.6,194.9,171.5,195,171.6l0-23.7c0,0,0-0.1,0.1-0.1l0,0c0,0,0.1,0,0.1,0.1
			L195,171.6C195,171.5,195,171.6,195,171.6z"/>
	</g>
</g>
</svg>
