<?xml version="1.0" encoding="utf-8"?>
<!-- Generator: Adobe Illustrator 27.0.1, SVG Export Plug-In . SVG Version: 6.00 Build 0)  -->
<svg version="1.1" id="Layer_1" xmlns="http://www.w3.org/2000/svg" xmlns:xlink="http://www.w3.org/1999/xlink" x="0px" y="0px"
	 viewBox="0 0 250 250" style="enable-background:new 0 0 250 250;" xml:space="preserve">
<style type="text/css">
	.st0{fill:#FDF4F9;enable-background:new    ;}
	.st1{fill:#3B0F37;}
	.st2{fill:#ECECEC;}
	.st3{fill:#F0F0F0;}
	.st4{fill:#F5F5F5;}
	.st5{fill:#FAFAFA;}
	.st6{fill:#E7E7E7;}
	.st7{fill:#E1E1E1;}
	.st8{fill:#8E8D8D;}
	.st9{fill:#1A2E35;}
	.st10{opacity:0.7;fill:#FFFFFF;enable-background:new    ;}
	.st11{fill:#007CFF;}
	.st12{opacity:0.3;fill:#FFFFFF;enable-background:new    ;}
	.st13{opacity:0.6;fill:#FFFFFF;enable-background:new    ;}
	.st14{opacity:0.5;fill:#FFFFFF;enable-background:new    ;}
	.st15{opacity:0.7;}
	.st16{fill:#FFFFFF;}
	.st17{opacity:0.4;fill:#FFFFFF;enable-background:new    ;}
	.st18{opacity:0.9;fill:#FFFFFF;enable-background:new    ;}
	.st19{opacity:0.3;enable-background:new    ;}
	.st20{opacity:0.8;fill:#FFFFFF;enable-background:new    ;}
	.st21{opacity:0.2;}
	.st22{opacity:0.2;fill:#FFFFFF;enable-background:new    ;}
	.st23{opacity:0.4;}
	.st24{opacity:0.3;}
	.st25{fill:#FFC3BD;}
	.st26{opacity:0.1;enable-background:new    ;}
	.st27{opacity:0.2;enable-background:new    ;}
	.st28{fill:#FF847F;}
	.st29{fill:#FF5551;}
	.st30{fill:#FFB570;}
	.st31{fill:#FF8935;}
	.st32{opacity:0.5;enable-background:new    ;}
	.st33{opacity:0.6;enable-background:new    ;}
</style>
<path class="st0" d="M5.2,195.6c-18-33.4,17.3-34.7,8.6-68.1C-4.3,58.3,94.7,31,123.1,76c14.6,23.2,41.9,28.6,50.5,23
	c20-13.1,55.5,0,64.9,24c14.5,36.8-15.2,72.6-15.2,72.6L5.2,195.6z"/>
<path class="st1" d="M0.5,195h249c0.3,0,0.5,0.2,0.5,0.5v0c0,0.3-0.2,0.5-0.5,0.5H0.5c-0.3,0-0.5-0.2-0.5-0.5v0
	C0,195.2,0.2,195,0.5,195z"/>
<rect x="196.6" y="190" class="st2" width="14.2" height="0.1"/>
<rect x="156.2" y="191.2" class="st2" width="3.7" height="0.1"/>
<rect x="188" y="186" class="st2" width="8.2" height="0.1"/>
<rect x="40.1" y="186.8" class="st2" width="18.6" height="0.1"/>
<rect x="62.5" y="186.8" class="st2" width="2.7" height="0.1"/>
<rect x="74.1" y="188.6" class="st2" width="40.2" height="0.1"/>
<path class="st2" d="M119.4,163.9h-83c-1.3,0-2.4-1.1-2.4-2.4V44.9c0-1.4,1.1-2.5,2.5-2.5l0,0h83c1.4,0,2.4,1.1,2.4,2.5v116.6
	C121.9,162.8,120.8,163.9,119.4,163.9C119.4,163.9,119.4,163.9,119.4,163.9z M36.4,42.5c-1.3,0-2.3,1-2.3,2.3l0,0v116.6
	c0,1.3,1,2.3,2.3,2.3h83c1.3,0,2.3-1,2.3-2.3V44.9c0-1.3-1.1-2.3-2.3-2.3H36.4z"/>
<path class="st2" d="M212.4,163.9h-83c-1.4,0-2.4-1.1-2.4-2.4V44.9c0-1.4,1.1-2.5,2.4-2.5h83c1.4,0,2.4,1.1,2.4,2.5v116.6
	C214.8,162.8,213.7,163.9,212.4,163.9z M129.4,42.5c-1.3,0-2.3,1-2.4,2.3v116.6c0,1.3,1.1,2.3,2.4,2.3h83c1.3,0,2.3-1,2.3-2.3V44.9
	c0-1.3-1-2.3-2.3-2.3H129.4z"/>
<rect x="17.6" y="183.1" class="st2" width="214.8" height="0.1"/>
<rect x="144.8" y="60" class="st3" width="51.9" height="123.2"/>
<rect x="147" y="62.2" class="st4" width="47.5" height="121"/>
<rect x="150.6" y="78.2" class="st5" width="19" height="44.3"/>
<rect x="172.1" y="78.2" class="st5" width="19" height="44.3"/>
<rect x="150.6" y="135.9" class="st2" width="40.6" height="44.3"/>
<path class="st5" d="M161,65.4h19.6c5.8,0,10.4,4.7,10.4,10.4l0,0l0,0h-40.5l0,0l0,0C150.6,70.1,155.2,65.4,161,65.4z"/>
<rect x="150.6" y="124.4" class="st6" width="3.5" height="9"/>
<rect x="154" y="124.5" class="st7" width="0.7" height="9"/>
<path class="st7" d="M152.9,128c0,0.8-0.7,1.5-1.5,1.5c-0.8,0-1.5-0.7-1.5-1.5c0-0.8,0.7-1.5,1.5-1.5S152.9,127.2,152.9,128
	C152.9,128,152.9,128,152.9,128z"/>
<rect x="151.8" y="130.5" class="st7" width="0.8" height="1.8"/>
<circle class="st2" cx="150.1" cy="128" r="2"/>
<polygon class="st8" points="52.3,70.8 70.8,60.1 84.9,60.1 103.6,70.3 103.6,164.6 52.3,164.6 "/>
<path class="st4" d="M104.2,164.6H52.4V70.8l0.5-0.5c6.8-6.6,15.9-10.2,25.4-10.2l0,0c9.5,0,18.6,3.6,25.4,10.2l0.5,0.5V164.6z
	 M55.8,161.2h44.9V72.3c-12.7-11.7-32.2-11.7-44.9,0V161.2z"/>
<polygon class="st3" points="101.4,87.5 101.4,84.9 79.6,84.9 79.6,63.1 77,63.1 77,84.9 55.1,84.9 55.1,87.5 77,87.5 77,111.1 
	55.1,111.1 55.1,113.7 77,113.7 77,137.2 55.1,137.2 55.1,139.8 77,139.8 77,161.6 79.6,161.6 79.6,139.8 101.4,139.8 101.4,137.2 
	79.6,137.2 79.6,113.7 101.4,113.7 101.4,111.1 79.6,111.1 79.6,87.5 "/>
<path class="st2" d="M105.9,166.3H50.6V70.1l0.5-0.5c15-15,39.3-15,54.2,0l0.5,0.5L105.9,166.3z M54.1,162.9h48.4V71.6
	c-13.5-12.9-34.8-12.9-48.4,0L54.1,162.9z"/>
<polygon class="st9" points="120.6,174.5 121.2,175.2 121.9,174.6 122.6,175.3 123.3,174.7 123.9,175.4 124.6,174.7 125.2,175.4 
	125.9,174.8 126.6,175.5 127.3,174.8 127.9,175.5 128.6,174.9 129.3,175.6 130,174.9 130.6,175.6 131.3,175 131.9,175.7 
	132.6,175.1 133.3,175.8 134,175.1 134.6,175.8 135.3,175.2 135.9,175.9 136.6,175.2 137.3,175.9 138,175.3 138.6,176 139.3,175.4 
	139.9,176.1 140.6,175.4 141.3,176.1 142,175.5 142.6,176.2 143.3,175.5 143.7,175.9 144.7,175 142.5,171.4 142.2,168.1 
	119.5,172.7 120,175.1 "/>
<polygon class="st10" points="120.6,174.5 121.2,175.2 121.9,174.6 122.6,175.3 123.3,174.7 123.9,175.4 124.6,174.7 125.2,175.4 
	125.9,174.8 126.6,175.5 127.3,174.8 127.9,175.5 128.6,174.9 129.3,175.6 130,174.9 130.6,175.6 131.3,175 131.9,175.7 
	132.6,175.1 133.3,175.8 134,175.1 134.6,175.8 135.3,175.2 135.9,175.9 136.6,175.2 137.3,175.9 138,175.3 138.6,176 139.3,175.4 
	139.9,176.1 140.6,175.4 141.3,176.1 142,175.5 142.6,176.2 143.3,175.5 143.7,175.9 144.7,175 142.5,171.4 142.2,168.1 
	119.5,172.7 120,175.1 "/>
<path class="st11" d="M149.5,173.9c-1.4-1.7-2.3-3.8-2.6-6.1c0-0.1,0-0.1,0-0.2c0.1-0.4-0.1-0.7-0.4-0.9c-0.1,0-0.2,0-0.3,0
	l-3.5,0.7c-0.7,0.1-1.2,0.7-1.2,1.4l-0.1,2.8c0,0.4,0.1,0.7,0.3,1l2.4,3c0.4,0.5,0.9,0.7,1.5,0.6l4.1-0.8c0.4-0.1,0.6-0.4,0.5-0.8
	c0-0.2-0.1-0.3-0.3-0.4C149.7,174.2,149.6,174.1,149.5,173.9z M145.5,174.8c-0.9-0.7-1.8-3.1-2-4.2c-0.1-0.4-0.2-1.3,0.1-1.6
	c0.4-0.2,0.8-0.3,1.2-0.3c0.2,0,0.3,0.1,0.4,0.3c0,0,0,0.1,0,0.1c-0.1,0.2-0.1,0.4-0.1,0.6c0.1,0.3,0.8,0.5,0.9,0.8s-0.2,0.8-0.1,1
	s0.8,0.3,0.9,0.6s-0.1,0.9,0.1,1.2c0.2,0.2,0.4,0.5,0.6,0.6c0.1,0.1,0.2,0.3,0,0.5c0,0,0,0,0,0c-0.3,0.2-0.5,0.4-0.9,0.5
	C146.2,175,145.8,175,145.5,174.8L145.5,174.8z"/>
<path class="st12" d="M149.5,173.9c-1.4-1.7-2.3-3.8-2.6-6.1c0-0.1,0-0.1,0-0.2c0.1-0.4-0.1-0.7-0.4-0.9c-0.1,0-0.2,0-0.3,0
	l-3.5,0.7c-0.7,0.1-1.2,0.7-1.2,1.4l-0.1,2.8c0,0.4,0.1,0.7,0.3,1l2.4,3c0.4,0.5,0.9,0.7,1.5,0.6l4.1-0.8c0.4-0.1,0.6-0.4,0.5-0.8
	c0-0.2-0.1-0.3-0.3-0.4C149.7,174.2,149.6,174.1,149.5,173.9z M145.5,174.8c-0.9-0.7-1.8-3.1-2-4.2c-0.1-0.4-0.2-1.3,0.1-1.6
	c0.4-0.2,0.8-0.3,1.2-0.3c0.2,0,0.3,0.1,0.4,0.3c0,0,0,0.1,0,0.1c-0.1,0.2-0.1,0.4-0.1,0.6c0.1,0.3,0.8,0.5,0.9,0.8s-0.2,0.8-0.1,1
	s0.8,0.3,0.9,0.6s-0.1,0.9,0.1,1.2c0.2,0.2,0.4,0.5,0.6,0.6c0.1,0.1,0.2,0.3,0,0.5c0,0,0,0,0,0c-0.3,0.2-0.5,0.4-0.9,0.5
	C146.2,175,145.8,175,145.5,174.8L145.5,174.8z"/>
<path class="st11" d="M170.8,85.6c1.2,0,2.4-0.6,3.3-1.5c2-2,2-5.2,0-7.2c-0.7-0.8-1.7-1.3-2.8-1.4c-1-0.1-2-0.1-3,0
	c-1.1,0.1-2.1,0.6-2.8,1.4l-3.6,3.6l3.6,3.6c0.8,0.8,1.8,1.3,2.8,1.4C168.9,85.6,170.2,85.6,170.8,85.6z"/>
<path class="st12" d="M170.8,85.6c1.2,0,2.4-0.6,3.3-1.5c2-2,2-5.2,0-7.2c-0.7-0.8-1.7-1.3-2.8-1.4c-1-0.1-2-0.1-3,0
	c-1.1,0.1-2.1,0.6-2.8,1.4l-3.6,3.6l3.6,3.6c0.8,0.8,1.8,1.3,2.8,1.4C168.9,85.6,170.2,85.6,170.8,85.6z"/>
<path class="st11" d="M166.9,76.9c2-2,5.2-2,7.2,0c2,2,2,5.2,0,7.2s-5.2,2-7.2,0c0,0,0,0,0,0l-3.6-3.6L166.9,76.9z"/>
<path class="st13" d="M166.9,76.9c2-2,5.2-2,7.2,0c2,2,2,5.2,0,7.2s-5.2,2-7.2,0c0,0,0,0,0,0l-3.6-3.6L166.9,76.9z"/>
<polygon class="st9" points="157.7,76.2 162,80.5 163.2,80.5 158.9,76.2 "/>
<polygon class="st10" points="157.7,76.2 162,80.5 163.2,80.5 158.9,76.2 "/>
<path class="st9" d="M157.7,76.2l0.3-0.3c0.2-0.2,0.5-0.3,0.7-0.3h0.3c0.1,0,0.2,0.1,0.2,0.2c0,0.1,0,0.1-0.1,0.1l-0.3,0.3
	L157.7,76.2z"/>
<path class="st14" d="M157.7,76.2l0.3-0.3c0.2-0.2,0.5-0.3,0.7-0.3h0.3c0.1,0,0.2,0.1,0.2,0.2c0,0.1,0,0.1-0.1,0.1l-0.3,0.3
	L157.7,76.2z"/>
<g class="st15">
	<path class="st16" d="M172.8,82.2c0.9-1.3,0.6-3-0.7-3.9c-1-0.7-2.3-0.7-3.3,0L172.8,82.2z"/>
	<path class="st16" d="M168.2,78.9c-0.9,1.3-0.6,3,0.7,3.9c1,0.7,2.3,0.7,3.3,0L168.2,78.9z"/>
</g>
<path class="st11" d="M190.6,82l-2.2,1c0,0,2.9,5.9,3.8,7.9s3.1,7.7,4,9.8c0.2,0.5,0.7,0.7,1.2,0.5c0,0,0,0,0,0l1-0.5
	c0.5-0.2,0.7-0.8,0.5-1.2c0,0,0,0,0,0c-1.1-2.1-3.9-7.4-4.9-9.5S190.6,82,190.6,82z"/>
<path class="st14" d="M190.6,82l-2.2,1c0,0,2.9,5.9,3.8,7.9s3.1,7.7,4,9.8c0.2,0.5,0.7,0.7,1.2,0.5c0,0,0,0,0,0l1-0.5
	c0.5-0.2,0.7-0.8,0.5-1.2c0,0,0,0,0,0c-1.1-2.1-3.9-7.4-4.9-9.5S190.6,82,190.6,82z"/>
<path class="st9" d="M185.2,81.2c0.5-0.5,1-0.9,1.6-1.4c0.5-0.4,1-0.6,1.6-0.7c1.2-0.3,3.2-0.4,5.4,1.9l-0.6,0.2c0,0-2.4-2.1-3-0.8
	c-0.2,0.4,0.4,1.6,0.4,1.6l-2.2,1c-0.5-1-1.7-1.3-2.7-0.8c0,0,0,0-0.1,0L185.2,81.2z"/>
<path class="st13" d="M185.2,81.2c0.5-0.5,1-0.9,1.6-1.4c0.5-0.4,1-0.6,1.6-0.7c1.2-0.3,3.2-0.4,5.4,1.9l-0.6,0.2c0,0-2.4-2.1-3-0.8
	c-0.2,0.4,0.4,1.6,0.4,1.6l-2.2,1c-0.5-1-1.7-1.3-2.7-0.8c0,0,0,0-0.1,0L185.2,81.2z"/>
<path class="st9" d="M184.4,80.7L184.4,80.7c0.4-0.2,0.9,0,1.1,0.4l0.4,0.8c0.2,0.4,0,0.9-0.4,1.1l0,0c-0.4,0.2-0.9,0-1.1-0.4
	l-0.4-0.8C183.8,81.4,184,80.9,184.4,80.7z"/>
<path class="st17" d="M184.4,80.7L184.4,80.7c0.4-0.2,0.9,0,1.1,0.4l0.4,0.8c0.2,0.4,0,0.9-0.4,1.1l0,0c-0.4,0.2-0.9,0-1.1-0.4
	l-0.4-0.8C183.8,81.4,184,80.9,184.4,80.7z"/>
<rect x="58.3" y="88" class="st9" width="106.9" height="72.7"/>
<rect x="58.3" y="88" class="st14" width="106.9" height="72.7"/>
<rect x="60.7" y="90.3" class="st18" width="102.1" height="68"/>
<rect x="77.6" y="123.2" class="st9" width="28.2" height="23.5"/>
<rect x="77.6" y="123.2" class="st10" width="28.2" height="23.5"/>
<rect x="90.2" y="129.4" class="st11" width="11.9" height="14.8"/>
<rect x="80.8" y="129.4" class="st11" width="7.6" height="12.3"/>
<rect x="81.5" y="130.1" class="st10" width="6.2" height="10.9"/>
<polygon class="st14" points="82.5,141 85.1,141 87.7,131.1 87.7,130.1 85.4,130.1 "/>
<rect x="91.2" y="130.4" class="st10" width="4.6" height="13.9"/>
<rect x="96.6" y="130.4" class="st10" width="4.6" height="13.9"/>
<rect x="81.4" y="112.4" class="st9" width="23.7" height="11"/>
<rect x="81.4" y="112.4" class="st10" width="23.7" height="11"/>
<rect x="85.5" y="115.9" class="st11" width="7.6" height="3.3"/>
<rect x="86.2" y="116.6" class="st10" width="6.2" height="1.9"/>
<rect x="93.8" y="115.9" class="st11" width="7.6" height="3.3"/>
<rect x="94.5" y="116.6" class="st10" width="6.2" height="1.9"/>
<polygon class="st14" points="87.8,118.5 90.3,118.5 90.9,116.6 88.3,116.6 "/>
<polygon class="st14" points="96.1,118.5 98.7,118.5 99.2,116.6 96.6,116.6 "/>
<polygon class="st11" points="111.9,126.3 73.9,126.3 77.3,120 110.9,120 "/>
<polygon class="st19" points="111.9,126.3 73.9,126.3 77.3,120 110.9,120 "/>
<polygon class="st11" points="106.3,115.1 79,115.1 81.1,111 105.7,111 "/>
<polygon class="st19" points="106.3,115.1 79,115.1 81.1,111 105.7,111 "/>
<rect x="73.9" y="144.2" class="st9" width="31.8" height="2.4"/>
<rect x="73.9" y="144.2" class="st14" width="31.8" height="2.4"/>
<polygon class="st11" points="104.2,106.2 104.2,125.1 139.3,125.1 139.3,106.2 121.8,96.9 "/>
<polygon class="st14" points="104.2,106.2 104.2,125.1 139.3,125.1 139.3,106.2 121.8,96.9 "/>
<rect x="104.2" y="123.5" class="st11" width="35.1" height="23.1"/>
<rect x="104.2" y="123.5" class="st14" width="35.1" height="23.1"/>
<polygon class="st11" points="134.9,119.7 108.6,119.7 108.6,108.1 121.8,100.8 134.9,108.1 "/>
<polygon class="st20" points="134.9,119.7 108.6,119.7 108.6,108.1 121.8,100.8 134.9,108.1 "/>
<rect x="113.8" y="109.8" class="st11" width="7.6" height="7.6"/>
<rect x="114.5" y="110.4" class="st10" width="6.2" height="6.2"/>
<rect x="122.1" y="109.8" class="st11" width="7.6" height="7.6"/>
<rect x="122.8" y="110.4" class="st10" width="6.2" height="6.2"/>
<rect x="107.6" y="129.1" class="st9" width="28.3" height="17.6"/>
<rect x="107.6" y="129.1" class="st12" width="28.3" height="17.6"/>
<polygon class="st14" points="115.5,116.7 118.1,116.7 119.7,110.4 117.1,110.4 "/>
<polygon class="st14" points="123.8,116.7 126.4,116.7 128,110.4 125.4,110.4 "/>
<polygon class="st11" points="142.6,110 121.8,98.6 100.9,110 99.7,107.9 121.8,95.9 143.8,107.9 "/>
<polygon class="st11" points="140.7,126.3 102.8,126.3 103.7,121.8 139.8,121.8 "/>
<polygon class="st11" points="136.1,109.8 121.8,101.9 107.4,109.8 106.5,108.1 121.8,99.8 137,108.1 "/>
<rect x="108.6" y="130" class="st14" width="4.6" height="16.6"/>
<rect x="114" y="130" class="st14" width="4.6" height="16.6"/>
<rect x="119.5" y="130" class="st14" width="4.6" height="16.6"/>
<rect x="124.9" y="130" class="st14" width="4.6" height="16.6"/>
<rect x="130.4" y="130" class="st14" width="4.6" height="16.6"/>
<path class="st9" d="M139.1,149h-34.6v-1H104v1H74.2v-1h-0.5v1.5H104v1.2h35.5V148h-0.5L139.1,149z M139.1,150.2h-34.6v-0.8h34.6
	V150.2z"/>
<path class="st9" d="M145,121.6V95.7h-21.2v0.5h20.7v25.5h-3.8v0.5h3.8v24.3h-3.8v0.5h5.5v-25.2H145z M145.7,146.4H145v-24.3h0.7
	V146.4z"/>
<polygon class="st9" points="81.8,103.4 104,103.4 104,104.6 104.4,104.6 104.4,102.9 81.3,102.9 81.3,109.8 81.8,109.8 "/>
<polygon class="st9" points="76.9,119.7 75.6,119.7 75.6,111.2 80.1,111.2 80.1,110.8 75.1,110.8 75.1,120.2 76.9,120.2 "/>
<g class="st21">
	<path class="st16" d="M139.1,149h-34.6v-1H104v1H74.2v-1h-0.5v1.5H104v1.2h35.5V148h-0.5L139.1,149z M139.1,150.2h-34.6v-0.8h34.6
		V150.2z"/>
	<path class="st16" d="M145,121.6V95.7h-21.2v0.5h20.7v25.5h-3.8v0.5h3.8v24.3h-3.8v0.5h5.5v-25.2H145z M145.7,146.4H145v-24.3h0.7
		V146.4z"/>
	<polygon class="st16" points="81.8,103.4 104,103.4 104,104.6 104.4,104.6 104.4,102.9 81.3,102.9 81.3,109.8 81.8,109.8 	"/>
	<polygon class="st16" points="76.9,119.7 75.6,119.7 75.6,111.2 80.1,111.2 80.1,110.8 75.1,110.8 75.1,120.2 76.9,120.2 	"/>
</g>
<path class="st9" d="M145.4,152.1h-6.3v6.4h24v-6.4H145.4z M139.5,152.6h5.4v2.5h-5.4V152.6z M144.9,158.1h-5.4v-2.5h5.4V158.1z
	 M153.8,158.1h-8.4v-2.5h8.4V158.1z M162.6,158.1h-8.4v-2.5h8.4V158.1z M154.2,155.1h-8.9v-2.5h17.2v2.5H154.2z"/>
<path class="st22" d="M145.4,152.1h-6.3v6.4h24v-6.4H145.4z M139.5,152.6h5.4v2.5h-5.4V152.6z M144.9,158.1h-5.4v-2.5h5.4V158.1z
	 M153.8,158.1h-8.4v-2.5h8.4V158.1z M162.6,158.1h-8.4v-2.5h8.4V158.1z M154.2,155.1h-8.9v-2.5h17.2v2.5H154.2z"/>
<path class="st11" d="M80.1,174.7c0,0,2.3-5.3,0.1-5.4S80.1,174.7,80.1,174.7z"/>
<path class="st11" d="M84.2,170.7c0,0,4.3-3.1,2.3-4.7S84.2,170.7,84.2,170.7z"/>
<path class="st11" d="M95.6,172c0,0,5.4,2,5-0.5S95.6,172,95.6,172z"/>
<path class="st11" d="M86.6,169.8c0,0,6.1,1.1,3.7,3.8S86.6,169.8,86.6,169.8z"/>
<path class="st11" d="M77.8,179.3c0,0-0.1-5.7-2-4.5S77.8,179.3,77.8,179.3z"/>
<path class="st11" d="M89.1,169.7c0,0,6.3,0.9,5.4-1.9S89.1,169.7,89.1,169.7z"/>
<path class="st11" d="M93.6,170.9c0,0,3.5,4.1,0.9,4.6S93.6,170.9,93.6,170.9z"/>
<path class="st11" d="M81.6,172.8c0,0,4.7-2.4,4.5,0.7S81.6,172.8,81.6,172.8z"/>
<g class="st23">
	<path class="st16" d="M77.8,179.3c0,0-0.1-5.7-2-4.5S77.8,179.3,77.8,179.3z"/>
	<path class="st16" d="M89.1,169.7c0,0,6.3,0.9,5.4-1.9S89.1,169.7,89.1,169.7z"/>
	<path class="st16" d="M93.6,170.9c0,0,3.5,4.1,0.9,4.6S93.6,170.9,93.6,170.9z"/>
	<path class="st16" d="M81.6,172.8c0,0,4.7-2.4,4.5,0.7S81.6,172.8,81.6,172.8z"/>
</g>
<path class="st11" d="M78.7,177.2c0,0,4.2-3.8,5-0.7S78.7,177.2,78.7,177.2z"/>
<path class="st11" d="M76.6,182.2c0.6-3.4,2.1-6.6,4.2-9.2c4.3-5.1,10.5-4.2,15.7-0.9c0.4,0.3-0.1,0.9-0.5,0.6
	c-2.8-1.7-6.1-3.2-9.5-2.5c-2.4,0.6-4.4,2.1-5.8,4.1c-1.7,2.4-2.9,5.2-3.5,8.1C77.3,182.8,76.5,182.7,76.6,182.2L76.6,182.2z"/>
<g class="st24">
	<path d="M76.6,182.2c0.6-3.4,2.1-6.6,4.2-9.2c4.3-5.1,10.5-4.2,15.7-0.9c0.4,0.3-0.1,0.9-0.5,0.6c-2.8-1.7-6.1-3.2-9.5-2.5
		c-2.4,0.6-4.4,2.1-5.8,4.1c-1.7,2.4-2.9,5.2-3.5,8.1C77.3,182.8,76.5,182.7,76.6,182.2L76.6,182.2z"/>
</g>
<path class="st11" d="M73.4,175.4c0,0-2.2-5.5-3.9-4S73.4,175.4,73.4,175.4z"/>
<path class="st11" d="M73.4,169.4c0,0,0.8-5.5-1.8-5.1S73.4,169.4,73.4,169.4z"/>
<path class="st11" d="M82.6,162c0,0,5.4-2.5,3.3-4.1S82.6,162,82.6,162z"/>
<path class="st11" d="M74.5,167.1c0,0,5.2-3.7,5.5,0S74.5,167.1,74.5,167.1z"/>
<path class="st11" d="M75.2,180.5c0,0-4.3-4.1-4.8-1.8S75.2,180.5,75.2,180.5z"/>
<path class="st11" d="M76.2,165.1c0,0,5.2-3.9,2.5-5.4S76.2,165.1,76.2,165.1z"/>
<path class="st11" d="M80.4,162.7c0,0,5.6,0.4,4,2.7S80.4,162.7,80.4,162.7z"/>
<path class="st11" d="M73.1,172.9c0,0,1.6-5.2,3.8-2.8S73.1,172.9,73.1,172.9z"/>
<g class="st23">
	<path class="st16" d="M75.2,180.5c0,0-4.3-4.1-4.8-1.8S75.2,180.5,75.2,180.5z"/>
	<path class="st16" d="M76.2,165.1c0,0,5.2-3.9,2.5-5.4S76.2,165.1,76.2,165.1z"/>
	<path class="st16" d="M80.4,162.7c0,0,5.6,0.4,4,2.7S80.4,162.7,80.4,162.7z"/>
	<path class="st16" d="M73.1,172.9c0,0,1.6-5.2,3.8-2.8S73.1,172.9,73.1,172.9z"/>
</g>
<path class="st11" d="M74.2,178.3c0,0,0.3-5.9,3.2-4.2S74.2,178.3,74.2,178.3z"/>
<path class="st11" d="M76.4,183.5c-2-2.9-3.3-6.3-3.7-9.8c-0.6-6.9,4.5-10.8,10.8-12.2c0.5-0.1,0.6,0.7,0.1,0.8
	c-3.3,0.8-6.8,2.2-8.7,5.1c-1.3,2.2-1.7,4.7-1.2,7.2c0.5,3,1.7,5.9,3.4,8.4C77.3,183.4,76.7,183.9,76.4,183.5L76.4,183.5z"/>
<g class="st24">
	<path d="M76.4,183.5c-2-2.9-3.3-6.3-3.7-9.8c-0.6-6.9,4.5-10.8,10.8-12.2c0.5-0.1,0.6,0.7,0.1,0.8c-3.3,0.8-6.8,2.2-8.7,5.1
		c-1.3,2.2-1.7,4.7-1.2,7.2c0.5,3,1.7,5.9,3.4,8.4C77.3,183.4,76.7,183.9,76.4,183.5L76.4,183.5z"/>
</g>
<path class="st11" d="M70.5,176.5c0,0-1.3-4.8,0.7-4.6S70.5,176.5,70.5,176.5z"/>
<path class="st11" d="M67.5,172.5c0,0-3.3-3.3-1.3-4.4S67.5,172.5,67.5,172.5z"/>
<path class="st11" d="M57.6,172.1c0,0-4.9,1-4.2-1.1S57.6,172.1,57.6,172.1z"/>
<path class="st11" d="M65.6,171.4c0,0-5.3,0.1-3.7,2.7S65.6,171.4,65.6,171.4z"/>
<path class="st11" d="M71.8,180.8c0,0,0.8-4.9,2.3-3.6S71.8,180.8,71.8,180.8z"/>
<path class="st11" d="M63.5,171c0,0-5.5-0.1-4.4-2.4S63.5,171,63.5,171z"/>
<path class="st11" d="M59.5,171.4c0,0-3.6,3-1.4,3.9S59.5,171.4,59.5,171.4z"/>
<path class="st11" d="M69.5,174.7c0,0-3.7-2.7-3.9,0S69.5,174.7,69.5,174.7z"/>
<g class="st23">
	<path class="st16" d="M71.8,180.8c0,0,0.8-4.9,2.3-3.6S71.8,180.8,71.8,180.8z"/>
	<path class="st16" d="M63.5,171c0,0-5.5-0.1-4.4-2.4S63.5,171,63.5,171z"/>
	<path class="st16" d="M59.5,171.4c0,0-3.6,3-1.4,3.9S59.5,171.4,59.5,171.4z"/>
	<path class="st16" d="M69.5,174.7c0,0-3.7-2.7-3.9,0S69.5,174.7,69.5,174.7z"/>
</g>
<path class="st11" d="M71.3,178.9c0,0-3.1-3.8-4.2-1.2S71.3,178.9,71.3,178.9z"/>
<path class="st11" d="M72.4,183.4c-0.1-3-0.9-5.9-2.4-8.5c-3-5-8.4-5-13.3-2.9c-0.4,0.2,0,0.7,0.3,0.6c2.6-1.1,5.7-1.9,8.4-0.9
	c1.9,0.8,3.5,2.3,4.4,4.3c1.2,2.3,1.8,4.8,1.9,7.4C71.8,183.9,72.5,183.9,72.4,183.4z"/>
<g class="st24">
	<path d="M72.4,183.4c-0.1-3-0.9-5.9-2.4-8.5c-3-5-8.4-5-13.3-2.9c-0.4,0.2,0,0.7,0.3,0.6c2.6-1.1,5.7-1.9,8.4-0.9
		c1.9,0.8,3.5,2.3,4.4,4.3c1.2,2.3,1.8,4.8,1.9,7.4C71.8,183.9,72.5,183.9,72.4,183.4z"/>
</g>
<path class="st11" d="M83.7,180.6l-1.7,12.5c-0.2,1.6-1.6,2.8-3.2,2.8H68.5c-1.6,0-3-1.2-3.2-2.8l-1.7-12.5L83.7,180.6z"/>
<path class="st12" d="M83.7,180.6l-1.7,12.5c-0.2,1.6-1.6,2.8-3.2,2.8H68.5c-1.6,0-3-1.2-3.2-2.8l-1.7-12.5L83.7,180.6z"/>
<polygon class="st25" points="154.4,111.3 152.9,108.6 152.3,104.7 151.2,104.9 149.6,107.7 151.8,109.9 152.9,112.6 "/>
<path class="st11" d="M166.9,111.3c0-0.2-0.2-0.3-0.4-0.3c0,0-0.1,0-0.1,0c-1.3,0.9-5.2,3.4-7.4,3.4c-2.6,0-5.2-4.9-5.2-4.9l-2,1.2
	c0,0,3,7.9,7.2,7.9s8.5-3.4,8.5-3.4L166.9,111.3z"/>
<path class="st14" d="M166.9,111.3c0-0.2-0.2-0.3-0.4-0.3c0,0-0.1,0-0.1,0c-1.3,0.9-5.2,3.4-7.4,3.4c-2.6,0-5.2-4.9-5.2-4.9l-2,1.2
	c0,0,3,7.9,7.2,7.9s8.5-3.4,8.5-3.4L166.9,111.3z"/>
<polygon class="st11" points="151.5,110.8 153.8,109.3 154.4,110 151.8,111.6 "/>
<path class="st26" d="M162.4,118.1c1.9-0.7,3.6-1.6,5.2-2.8l-0.5-3.4h-0.7L162.4,118.1z"/>
<polygon class="st25" points="163.1,185.7 163.3,193.1 166,193.1 166.6,186 "/>
<polygon class="st25" points="177.6,186 178.7,193.2 181.4,192.9 181.2,185.8 "/>
<path class="st11" d="M164.8,131.5c0,0-3.6,18.5-1.7,58.4h3.6c0,0,2.4-19.2,2.2-26.8c0-0.2,0-0.4,0-0.5c-0.1-1.6,0-3.2,0.4-4.7v-0.1
	l4.1-15.8c0,0,7.1-2.2,4.1-10.5H164.8z"/>
<path class="st26" d="M172.4,140.3l-1.6-4.1c-0.7,5.5-0.8,11.1-0.4,16.7l2.7-10.3L172.4,140.3z"/>
<polygon class="st9" points="162.6,188.9 162.7,190.7 166.8,190.9 167.1,189.1 "/>
<path class="st11" d="M170.3,131.5c0,0-0.3,20,7.8,59.2l3.6-0.6c0,0-0.7-18.1-1.9-26c-0.1-0.4-0.1-0.8-0.2-1.1c-0.4-2-0.6-4-0.5-6
	v-0.1c0.1-4.6,0.4-11.9,0.9-15c0.4-2.5,0.5-4.7-0.4-10L170.3,131.5z"/>
<polygon class="st9" points="177.6,189.5 178,191.2 182,190.7 182,188.8 "/>
<polygon class="st25" points="190.6,121.6 193.5,121.3 194.8,120.3 197.7,120.7 197.7,121.8 196.8,123.4 193.7,122.9 190.4,123.6 
	"/>
<path class="st9" d="M171.9,97.8c0,0-3.2-0.3-2,3.4l2.4-2.8L171.9,97.8z"/>
<path class="st12" d="M171.9,97.8c0,0-3.2-0.3-2,3.4l2.4-2.8L171.9,97.8z"/>
<path class="st25" d="M175.4,104.9c-0.3,1.6-0.6,4.5,0.3,6c0.2,0.4,0.1,0.8-0.2,1.1c-1,1-2.4,1.7-3.9,1.8c-1.9,0.1-2-0.9-1.7-1.7
	c0.1-0.2,0.3-0.4,0.5-0.5c1.8-0.6,1.9-2.2,1.5-3.5L175.4,104.9z"/>
<path class="st27" d="M174,106.1l-2.1,1.9c0.1,0.3,0.1,0.7,0.2,1C172.9,108.8,176.1,107.2,174,106.1z"/>
<path class="st25" d="M176.5,102.4c-0.5,2.4-0.7,3.9-2.2,5c-1.5,1.1-3.6,0.7-4.6-0.8c-0.4-0.5-0.6-1.1-0.6-1.8
	c-0.2-2.3,0.7-6,3.3-6.6c1.8-0.4,3.7,0.7,4.1,2.5c0,0,0,0,0,0C176.6,101.4,176.6,101.9,176.5,102.4z"/>
<path class="st9" d="M172.5,102.6c0,0.2-0.2,0.3-0.3,0.3s-0.2-0.2-0.2-0.4s0.2-0.3,0.3-0.3S172.5,102.4,172.5,102.6z"/>
<path class="st9" d="M170.2,102.2c0,0.2-0.2,0.3-0.3,0.3s-0.2-0.2-0.2-0.4s0.2-0.3,0.3-0.3S170.3,102,170.2,102.2z"/>
<path class="st28" d="M171.1,102.4c-0.3,0.6-0.8,1.1-1.2,1.6c0.2,0.2,0.6,0.4,0.9,0.3L171.1,102.4z"/>
<path class="st9" d="M173.4,101.7L173.4,101.7c0.1,0,0.1-0.1,0.1-0.2c-0.2-0.3-0.5-0.6-0.9-0.6c-0.1,0-0.1,0-0.1,0.1c0,0,0,0,0,0
	c0,0.1,0,0.1,0.1,0.1c0,0,0,0,0,0l0,0c0.3,0.1,0.6,0.2,0.7,0.5C173.4,101.7,173.4,101.7,173.4,101.7z"/>
<path class="st9" d="M169.5,101.1c0,0,0.1,0,0.1,0c0.2-0.2,0.4-0.4,0.8-0.4c0.1,0,0.1-0.1,0.1-0.1c0-0.1,0-0.1-0.1-0.1
	c-0.4,0-0.8,0.2-1,0.5c0,0,0,0.1,0,0.2c0,0,0,0,0,0l0,0C169.3,101.2,169.4,101.2,169.5,101.1C169.5,101.2,169.5,101.2,169.5,101.1z"
	/>
<path class="st9" d="M170.4,105.1c0.8-0.1,1.6-0.1,2.4-0.1c-0.3,0.6-0.9,0.9-1.6,0.8C170.4,105.9,170.4,105.1,170.4,105.1z"/>
<path class="st29" d="M171.7,105.5c-0.3,0-0.7,0-1,0.2c0.2,0.1,0.4,0.2,0.6,0.2c0.3,0,0.7,0,1-0.2
	C172.1,105.6,171.9,105.5,171.7,105.5z"/>
<path class="st16" d="M170.5,105.1c0,0.1,0.1,0.2,0.3,0.2c0.5,0,1.1,0,1.6-0.1c0.2,0,0.3-0.1,0.4-0.2C172,105,171.2,105,170.5,105.1
	z"/>
<path class="st9" d="M176,99.2c-0.9,0.4-1.3,1.4-1,2.3c0.4,0.8,0.3,1.7-0.1,2.5l1.1,0.2c0,0,2.6-1.8,2-4.3L176,99.2z"/>
<path class="st12" d="M176,99.2c-0.9,0.4-1.3,1.4-1,2.3c0.4,0.8,0.3,1.7-0.1,2.5l1.1,0.2c0,0,2.6-1.8,2-4.3L176,99.2z"/>
<path class="st25" d="M177.4,105c-0.4,0.5-1,0.8-1.6,0.8c-0.8,0-1.1-0.7-0.7-1.4s1.2-1.4,1.9-1.1c0.6,0.2,0.8,0.8,0.6,1.4
	C177.5,104.8,177.5,104.9,177.4,105z"/>
<path class="st9" d="M177.8,100.2c0.9-0.4,1.6-2.6-1.8-3.4c-4.2-1-5.6-3-5.6-3s-0.2,1.9,1.1,2.7c0,0-1.7-0.9-2.3,0.6
	c0,0,1-0.3,2.3,1.4C173,100.4,175.6,101.1,177.8,100.2z"/>
<path class="st9" d="M172,98.6c0,0-2.6-2.1-2.8,0.7C170.1,98.8,171,98.6,172,98.6z"/>
<path class="st11" d="M179.9,111.7c0.1-0.1,0.3-0.1,0.5,0c0,0,0.1,0.1,0.1,0.1c0.5,1.4,2.8,6.8,4.4,8c2,1.4,7.6,1.3,7.6,1.3l0.1,2.3
	c0,0-6.6,1.6-9.8-0.7s-5.5-8.4-5.5-8.4L179.9,111.7z"/>
<path class="st14" d="M179.9,111.7c0.1-0.1,0.3-0.1,0.5,0c0,0,0.1,0.1,0.1,0.1c0.5,1.4,2.8,6.8,4.4,8c2,1.4,7.6,1.3,7.6,1.3l0.1,2.3
	c0,0-6.6,1.6-9.8-0.7s-5.5-8.4-5.5-8.4L179.9,111.7z"/>
<path class="st26" d="M178,115.5v0.7c1,2.4,2.5,4.5,4.3,6.3l-2.3-9.5L178,115.5z"/>
<polygon class="st11" points="192.1,120.9 192.2,123.8 193,123.7 192.9,120.9 "/>
<path class="st11" d="M179.3,111.1c-1.1-0.2-2.9-0.4-4.8-0.6l-1.7,0.8l-0.8-1c-1.5-0.1-3.1,0-4.6,0.1c-0.8,0.1-1.4,0.7-1.6,1.4
	c-0.6,3.3-2.4,13.1-1.6,21.5c0,0,4.2,0.9,6-0.3c0,0,5.4,1.8,9.5,0.3l0.8-20.6C180.8,112,180.2,111.2,179.3,111.1z"/>
<path class="st14" d="M179.3,111.1c-1.1-0.2-2.9-0.4-4.8-0.6l-1.7,0.8l-0.8-1c-1.5-0.1-3.1,0-4.6,0.1c-0.8,0.1-1.4,0.7-1.6,1.4
	c-0.6,3.3-2.4,13.1-1.6,21.5c0,0,4.2,0.9,6-0.3c0,0,5.4,1.8,9.5,0.3l0.8-20.6C180.8,112,180.2,111.2,179.3,111.1z"/>
<path class="st11" d="M172.3,110l0.7,1l2.4-1.3c0.3-0.2,0.7-0.1,0.9,0.1l0.9,0.9l-2.4,2.6c-0.1,0.1-0.2,0.1-0.3,0
	c0,0-0.1-0.1-0.1-0.1c0-0.8-0.2-2-1.5-1.8c0,0-1.2-0.8-2,0.9c0,0.1-0.2,0.1-0.3,0.1c-0.1,0-0.1-0.1-0.1-0.2l-0.2-2l0.8-0.6
	C171.5,109.5,172,109.6,172.3,110C172.2,110,172.3,110,172.3,110z"/>
<path class="st9" d="M173,112.4c0,0.2-0.2,0.3-0.3,0.3s-0.3-0.2-0.3-0.3c0-0.2,0.2-0.3,0.3-0.3S173,112.2,173,112.4L173,112.4z"/>
<path class="st9" d="M171.8,117.8c0,0.2-0.2,0.3-0.3,0.3s-0.3-0.2-0.3-0.3c0,0,0,0,0,0c0-0.2,0.2-0.3,0.3-0.3
	S171.8,117.6,171.8,117.8C171.8,117.8,171.8,117.8,171.8,117.8z"/>
<path class="st9" d="M171.1,123.9c0,0.2-0.2,0.3-0.4,0.3c-0.2,0-0.3-0.2-0.3-0.3c0-0.2,0.2-0.3,0.3-0.3
	C170.9,123.6,171.1,123.7,171.1,123.9C171.1,123.9,171.1,123.9,171.1,123.9z"/>
<circle class="st9" cx="170.4" cy="130" r="0.3"/>
<path class="st9" d="M163.3,192.3h3c0.1,0,0.2,0.1,0.3,0.2l1,2.9c0,0.3-0.1,0.5-0.4,0.6h-0.1c-1.2,0-2.4-0.1-3.9-0.2
	c-1.8,0-1.4,0.2-3.5,0.2c-1.3,0-1.5-1.5-1-1.6c2.5-0.3,2.8-1,3.8-1.9C162.7,192.3,163,192.2,163.3,192.3z"/>
<path class="st9" d="M178.6,192.3h3c0.1,0,0.2,0.1,0.3,0.2l1,2.9c0,0.3-0.1,0.5-0.4,0.6h-0.1c-1.2,0-2.4-0.1-3.9-0.2
	c-1.8,0-1.4,0.2-3.5,0.2c-1.3,0-1.5-1.5-1-1.6c2.5-0.3,2.8-1,3.8-1.9C178,192.3,178.3,192.2,178.6,192.3z"/>
<path class="st9" d="M170.7,106.3c0.5,0.3,1.2,0.3,1.7,0c0,0-0.1,1.1-0.4,1.2c-0.1,0-0.4-0.2-0.4-0.2s-0.2,0.6-0.3,0.6
	s-0.3-0.6-0.3-0.6s-0.2,0.3-0.3,0.3C170.4,107.4,170.7,106.3,170.7,106.3z"/>
<path class="st14" d="M170.7,106.3c0.5,0.3,1.2,0.3,1.7,0c0,0-0.1,1.1-0.4,1.2c-0.1,0-0.4-0.2-0.4-0.2s-0.2,0.6-0.3,0.6
	s-0.3-0.6-0.3-0.6s-0.2,0.3-0.3,0.3C170.4,107.4,170.7,106.3,170.7,106.3z"/>
<path class="st30" d="M178.1,154.4l-0.8,38.9h2.8c0,0,5.3-25.1,3.8-33.3l4.5-15.8l-9.3,1L178.1,154.4z"/>
<path class="st30" d="M188.9,155.1l4.4,38.3h2.7c0,0,1.8-25.5-0.7-33.4l0.2-15.9l-8.1,1.2L188.9,155.1z"/>
<path class="st11" d="M177.6,192.5h2.8c0.1,0,0.2,0.1,0.3,0.2l1,2.7c0,0.2-0.1,0.5-0.3,0.5c0,0,0,0,0,0h-0.1c-1.2,0-2.2-0.1-3.7-0.1
	c-1.7,0-1.3,0.2-3.3,0.2c-1.2,0-1.4-1.4-0.9-1.4c1.4,0,2.7-0.7,3.6-1.8C177.1,192.6,177.3,192.5,177.6,192.5z"/>
<path class="st11" d="M193.4,192.5h2.8c0.1,0,0.2,0.1,0.3,0.2l1,2.7c0,0.2-0.1,0.5-0.3,0.5c0,0,0,0,0,0H197c-1.2,0-2.2-0.1-3.7-0.1
	c-1.7,0-1.3,0.2-3.3,0.2c-1.2,0-1.4-1.4-0.9-1.4c1.4,0,2.7-0.7,3.6-1.8C192.9,192.6,193.1,192.5,193.4,192.5z"/>
<path class="st11" d="M179.7,132c-1.9,10-2.6,20.2-2.3,30.4c6.5,0.2,13,0.1,19.5-0.6c-0.7-3.4-1-6.8-0.7-10.2
	c0.7-6.9-0.9-13.8-4.5-19.6H179.7z"/>
<path class="st14" d="M179.7,132c-1.9,10-2.6,20.2-2.3,30.4c6.5,0.2,13,0.1,19.5-0.6c-0.7-3.4-1-6.8-0.7-10.2
	c0.7-6.9-0.9-13.8-4.5-19.6H179.7z"/>
<path class="st30" d="M180.9,115c0,0-2.5,1.6-3.3,7.6c-1.1,7.2,2.4,4.8,2.4,4.8L180.9,115z"/>
<path class="st9" d="M191.8,102.1c1.3,0.8,1.6,2.6,1.7,3.7s-1,0-0.1,1.9s1.4,3.5-1.5,3.3c-2.3-0.2-4.7,0.1-6.9,0.8
	c-1.8,0.7-3.2-0.2-2.2-2.5c0.7-1.6,0.2-3.5-1.1-4.5c-0.7-0.7-1.4-3.4,0.8-4.2s0.1-1.8,2.8-2.1S193.4,99,191.8,102.1z"/>
<path class="st30" d="M185.6,113l3.3-0.1c-0.2-1.6-0.1-3.2,0.4-4.7l-3.4,2.5C186.2,111.5,186,112.3,185.6,113z"/>
<path class="st27" d="M188.5,109.3l-2.6,1.4c0.1,0.3,0.1,0.6,0.1,0.9c1.3,0.1,2.4-0.9,2.5-2.2C188.5,109.4,188.5,109.4,188.5,109.3z
	"/>
<path class="st30" d="M190.9,104.7c-0.4,2.8-0.5,3.9-2,5.3c-1.4,1.4-3.7,1.3-5.1-0.1c-0.5-0.5-0.8-1.2-0.9-1.9
	c-0.4-2.6,0.4-6.7,3.2-7.5c2-0.6,4.2,0.5,4.8,2.5C191,103.5,191,104.1,190.9,104.7z"/>
<path class="st30" d="M191.3,106.9c-0.2,0.5-0.6,0.9-1.1,1.1c-0.7,0.3-1.1-0.3-1-1s0.6-1.5,1.3-1.5c0.5,0,0.9,0.5,0.9,1c0,0,0,0,0,0
	C191.4,106.7,191.4,106.8,191.3,106.9z"/>
<path class="st9" d="M189,99.4c0.6,0.8-0.5,2.4-3,2.6c-1.9,0.1-4.1,2.4-4.1,0.2C181.8,100.1,186.5,98.6,189,99.4z"/>
<path class="st9" d="M187.7,100.1c-1.2,1.2-0.1,2.9,0.6,3.7s1.8,1.4,1.2,2.7s-0.8,4.7,1.6,3.9s1.8-4.9,0.9-6.7
	S189.1,98.8,187.7,100.1z"/>
<path class="st31" d="M184.6,105.3c-0.2,0.5-0.6,1-0.9,1.4c0.2,0.2,0.5,0.3,0.8,0.2L184.6,105.3z"/>
<path class="st9" d="M187.7,104L187.7,104c0.1,0,0.1-0.1,0.1-0.2c0,0,0,0,0,0l0,0c-0.3-0.3-0.6-0.5-1.1-0.5c-0.1,0-0.1,0.1-0.1,0.1
	c0,0.1,0.1,0.1,0.1,0.1c0,0,0,0,0,0c0.3,0,0.7,0.2,0.9,0.5C187.6,104,187.7,104,187.7,104z"/>
<path class="st9" d="M182.9,103.7L182.9,103.7c0.3-0.2,0.7-0.3,1.1-0.2c0,0,0.1,0,0.1,0c0,0,0,0,0,0l0,0c0-0.1,0-0.1-0.1-0.1
	c0,0,0,0,0,0c-0.4-0.1-0.8-0.1-1.2,0.2C182.8,103.5,182.8,103.6,182.9,103.7C182.8,103.6,182.8,103.6,182.9,103.7
	C182.9,103.7,182.9,103.7,182.9,103.7L182.9,103.7z"/>
<path class="st9" d="M186.3,105.1c0,0.2-0.1,0.4-0.3,0.4s-0.3-0.2-0.2-0.4s0.1-0.4,0.3-0.4S186.3,104.8,186.3,105.1z"/>
<path class="st9" d="M183.7,104.8c0,0.2-0.2,0.4-0.3,0.4s-0.3-0.2-0.2-0.4s0.2-0.4,0.3-0.4S183.7,104.6,183.7,104.8z"/>
<path class="st9" d="M183.6,104.4l-0.5-0.2C183,104.2,183.3,104.7,183.6,104.4z"/>
<path class="st9" d="M186.1,104.6l-0.5-0.2C185.6,104.4,185.8,104.9,186.1,104.6z"/>
<path class="st9" d="M179.3,132.7c0,0-0.2-3.1-0.1-7.3c0-0.7-0.3-1.4-0.3-2.9c0.1-1.3,0.2-2.5,0.5-3.8c0.2-2.7,0.7-3.1,1.5-3.7
	c2.8-2,11.1-2,12,0c1.4,3-1.4,10.7-0.5,17.7C188.1,133.6,183.6,133.6,179.3,132.7z"/>
<path class="st32" d="M193.1,115.3h-1.5c0,0-1,1.8,1,9.4C193,120.8,193.7,117.3,193.1,115.3z"/>
<path class="st9" d="M185.5,111.9c1.3,0.1,2.5,0.1,3.8-0.2c0.2-0.1,0.4,0.1,0.4,0.3c0,0,0,0.1,0,0.1c-0.1,0.6-0.1,1.4,0.5,1.5
	c-2,1.2-4.4,1.2-6.4,0.2c0,0,1.4-0.2,1.3-1.5C185.1,112.2,185.2,112,185.5,111.9C185.4,111.9,185.5,111.9,185.5,111.9z"/>
<path class="st30" d="M179.3,124.9c1.6-1,3-1.8,3-1.8l1.2-2.3c0.1-0.2,0.3-0.3,0.5-0.3l0.8,0.1c0.3,0,0.4,0.2,0.4,0.5L185,124
	c0,0.2-0.2,0.4-0.4,0.4l-1.7,0.4c0,0-3.7,3.9-4.5,3.3C177.1,127.1,178.1,125.7,179.3,124.9z"/>
<path class="st26" d="M186.2,145.3l-0.5,17.2c1.1,0,2.3-0.1,3.5-0.1L186.2,145.3z"/>
<path class="st30" d="M192,114.8c1.1-0.6,3.2,1.1,4.1,7.6c0.8,6-0.8,6.7-3.2,5.1c-1.6-1.1-3.2-2.1-4.9-3l-1.8-0.3L185,124
	c-0.4,0-0.7-0.3-0.7-0.7v-2.2c0-0.4,0.3-0.7,0.7-0.7c0,0,0.1,0,0.1,0l1.2,0.1l2,2.1l5.4,2c-0.2-1.6-0.5-3.3-1.1-4.8
	C191.8,118.1,191,115.4,192,114.8z"/>
<path class="st26" d="M184.7,120.6l-0.6-0.1c-0.2,0.2-0.3,0.4-0.3,0.6l0.1,2.6c0,0.3,0.2,0.6,0.4,0.7l0.3-0.1c0.2,0,0.3-0.2,0.4-0.4
	l0.1-2.8C185.2,120.9,185,120.6,184.7,120.6C184.7,120.6,184.7,120.6,184.7,120.6z"/>
<path class="st30" d="M192,114.8c1.1-0.6,3.2,1.1,4.1,7.6c0.8,6-0.8,6.7-3.2,5.1c-1.6-1.1-3.2-2.1-4.9-3l-1.8-0.3L185,124
	c-0.4,0-0.7-0.3-0.7-0.7v-2.2c0-0.4,0.3-0.7,0.7-0.7c0,0,0.1,0,0.1,0l1.2,0.1l2,2.1l5.4,2c-0.2-1.6-0.5-3.3-1.1-4.8
	C191.8,118.1,191,115.4,192,114.8z"/>
<path class="st9" d="M187.8,101.3c0,0-1.7,2.2-3.1,1.6S185.4,102.8,187.8,101.3z"/>
<path class="st9" d="M185.1,108.2c-0.1,0-0.3,0-0.4,0c0,0-0.1,0-0.1-0.1c0,0,0,0,0,0l0,0c0,0,0-0.1,0.1-0.1c0.6,0.1,1.2,0,1.6-0.4
	c0,0,0.1,0,0.1,0c0,0,0,0.1,0,0.1c0,0,0,0,0,0C186,108.1,185.5,108.2,185.1,108.2z"/>
<path class="st33" d="M184.9,114c1.5,0.4,3,0.3,4.4-0.2C189.3,113.8,185.5,116.1,184.9,114z"/>
</svg>
