<?xml version="1.0" encoding="utf-8"?>
<!-- Generator: Adobe Illustrator 27.0.1, SVG Export Plug-In . SVG Version: 6.00 Build 0)  -->
<svg version="1.1" id="Layer_1" xmlns="http://www.w3.org/2000/svg" xmlns:xlink="http://www.w3.org/1999/xlink" x="0px" y="0px"
	 viewBox="0 0 250 250" style="enable-background:new 0 0 250 250;" xml:space="preserve">
<style type="text/css">
	.st0{fill:#FDF4F9;enable-background:new    ;}
	.st1{fill:#3B0F37;}
	.st2{fill:#D2E4FF;}
	.st3{opacity:0.5;fill:#AED3FF;enable-background:new    ;}
	.st4{fill:#AED3FF;}
	.st5{fill:#233862;}
	.st6{fill:#D9935C;}
	.st7{fill:#CB7D45;}
	.st8{fill:#2B478B;}
	.st9{fill:#B64C41;}
	.st10{fill:#9ED9F0;}
	.st11{fill:#FFA412;}
	.st12{fill:#E27F2B;}
	.st13{fill:#E9F3FE;}
	.st14{fill:#BED4F4;}
	.st15{fill:#AFCDFB;}
	.st16{fill:#739AF0;}
	.st17{fill:#4A75CB;}
	.st18{fill:#E53F51;}
	.st19{fill:#74ACBE;}
	.st20{fill:#283250;}
</style>
<path class="st0" d="M5.2,195.6c-18-33.4,17.3-34.7,8.6-68.1C-4.3,58.3,94.7,31,123.1,76c14.6,23.2,41.9,28.6,50.5,23
	c20-13.1,55.5,0,64.9,24c14.5,36.8-15.2,72.6-15.2,72.6L5.2,195.6z"/>
<path class="st1" d="M0.5,195h249c0.3,0,0.5,0.2,0.5,0.5v0c0,0.3-0.2,0.5-0.5,0.5H0.5c-0.3,0-0.5-0.2-0.5-0.5v0
	C0,195.2,0.2,195,0.5,195z"/>
<path class="st2" d="M92.7,87.3h-1L91.5,74L47.1,60.7l-19,13l0.7-0.2c-0.6,0-1.1,0.5-1.1,1.1v6.4c0,0.6,0.4,1.1,1,1.1c0,0,0,0,0,0
	h9.3c0.6,0,1.1-0.5,1.1-1.1v-2.6h6.2v117.2h7.3V78.3h29.9l8.3,9h-1.7c-0.6,0-1.1,0.5-1.1,1.1v1.1c0,0.6,0.5,1.1,1.1,1.1h3.5
	c0.6,0,1.1-0.5,1.1-1.1v-1.1C93.8,87.8,93.3,87.3,92.7,87.3C92.7,87.3,92.7,87.3,92.7,87.3z M39.1,74.3c-0.1-0.5-0.5-0.9-1.1-0.9
	h-8.7l17.9-12l43,13L39.1,74.3z M83.4,78.3l7.4,0.1l0.2,8.1L83.4,78.3z"/>
<path class="st2" d="M220.8,94l0.5,0.2l-13.1-9l-30.4,9.2l-0.1,9.1h-0.7c-0.4,0-0.7,0.3-0.8,0.8v0.8c0,0.4,0.3,0.7,0.8,0.8h2.4
	c0.4,0,0.7-0.3,0.7-0.8v-0.8c0-0.4-0.3-0.7-0.7-0.8h-1.2l5.7-6.2h20.5v80.4h5V97.4h4.2v1.7c0,0.4,0.3,0.7,0.8,0.8h6.4
	c0.4,0,0.7-0.3,0.8-0.8v-4.4C221.5,94.3,221.2,94,220.8,94C220.8,94,220.8,94,220.8,94z M178,103l0.2-5.6h5.1L178,103z M214.4,94
	c-0.4,0-0.7,0.3-0.7,0.6h-35.1l29.5-8.9l12.3,8.3H214.4z"/>
<rect x="118.6" y="64.9" class="st2" width="42" height="130.7"/>
<rect x="118.6" y="82.9" class="st3" width="30.4" height="19.1"/>
<rect x="118.6" y="118" class="st3" width="30.4" height="19.1"/>
<rect x="118.6" y="152.6" class="st3" width="30.4" height="19.1"/>
<polygon class="st4" points="212.9,171.6 207.2,171.6 207.2,153.9 160.5,153.9 160.5,64.9 148.9,64.9 148.9,195.7 160.5,195.7 
	160.5,195.6 207.2,195.6 207.2,195.6 212.9,195.6 "/>
<path class="st2" d="M105.6,101.5v-0.7h-1.5v-4.7h-1.3v4.7h-3.2v-4.7h-1.3v4.7h-3.5v-4.7h-1.3v4.7h-3.2v-4.7H89v4.7h-1.7v0.7H89v2.3
	h-1.7v0.7H89v2.3h-1.7v0.7H89v2.3h-1.7v0.7H89v2.3h-1.7v0.7H89v2.3h-1.7v0.7H89v1.8h-1.7v0.7H89v2.3h-1.7v0.7H89v2.3h-1.7v0.7H89
	v2.3h-1.7v0.7H89v2.3h-1.7v0.7H89v2.2h-1.7v0.7H89v2.2h-1.7v0.7H89v2.3h-1.7v0.7H89v2.3h-1.7v0.7H89v2.3h-1.7v0.7H89v2.3h-1.7v0.7
	H89v2.3h-1.7v0.7H89v1.8h-1.7v0.7H89v2.3h-1.7v0.7H89v2.3h-1.7v0.7H89v2.3h-1.7v0.7H89v2.3h-1.7v0.7H89v2.3h-1.7v0.7H89v2h-1.7v0.7
	H89v2.3h-1.7v0.7H89v2.3h-1.7v0.7H89v2.3h-1.7v0.7H89v2.3h-1.7v0.7H89v2.3h-1.7v0.7H89v1.8h-1.7v0.7H89v2.3h-1.7v0.7H89v2.3h-1.7
	v0.7h18.3v-0.7h-1.5V192h1.5v-0.7h-1.5V189h1.5v-0.7h-1.5v-1.8h1.5v-0.7h-1.5v-2.3h1.5v-0.7h-1.5v-2.3h1.5v-0.7h-1.5v-2.3h1.5v-0.7
	h-1.5v-2.3h1.5v-0.7h-1.5v-2.3h1.5v-0.7h-1.5v-2h1.5v-0.7h-1.5v-2.3h1.5v-0.7h-1.5v-2.3h1.5v-0.7h-1.5V160h1.5v-0.7h-1.5V157h1.5
	v-0.7h-1.5V154h1.5v-0.7h-1.5v-1.8h1.5v-0.7h-1.5v-2.3h1.5v-0.7h-1.5v-2.3h1.5v-0.7h-1.5v-2.3h1.5v-0.7h-1.5v-2.3h1.5v-0.7h-1.5
	v-2.3h1.5v-0.7h-1.5v-2.2h1.5V133h-1.5v-2.3h1.5V130h-1.5v-2.3h1.5v-0.7h-1.5v-2.3h1.5v-0.7h-1.5v-2.3h1.5v-0.7h-1.5v-2.3h1.5v-0.7
	h-1.5v-1.8h1.5v-0.7h-1.5v-2.3h1.5v-0.7h-1.5v-2.3h1.5v-0.7h-1.5v-2.3h1.5v-0.7h-1.5v-2.3h1.5v-0.7h-1.5v-2.3L105.6,101.5z
	 M98.3,101.5v2.3h-3.5v-2.3H98.3z M94.8,191.2V189h3.5v2.3L94.8,191.2z M98.3,191.9v2.3h-3.5V192L98.3,191.9z M94.8,188.3v-1.8h3.5
	v1.8H94.8z M94.8,185.7v-2.3h3.5v2.3H94.8z M94.8,182.7v-2.2h3.5v2.3L94.8,182.7z M94.8,179.7v-2.3h3.5v2.3H94.8z M94.8,176.7v-2.3
	h3.5v2.3H94.8z M94.8,173.7v-2.3h3.5v2.3H94.8z M94.8,170.7v-2h3.5v2H94.8z M94.8,168v-2.3h3.5v2.3H94.8z M94.8,165v-2.3h3.5v2.3
	H94.8z M94.8,162v-2.3h3.5v2.3H94.8z M94.8,159v-2h3.5v2.3L94.8,159z M94.8,156v-2h3.5v2.3L94.8,156z M94.8,153v-1.8h3.5v1.8H94.8z
	 M94.8,150.5v-2.3h3.5v2.3H94.8z M94.8,147.5v-2.3h3.5v2.3H94.8z M94.8,144.5v-2.3h3.5v2.3H94.8z M94.8,141.5v-2.3h3.5v2.3H94.8z
	 M94.8,138.5v-1.9h3.5v2.3L94.8,138.5z M94.8,135.5v-2.2h3.5v2.2H94.8z M94.8,132.6v-2.3h3.5v2.7L94.8,132.6z M94.8,129.6v-2.3h3.5
	v2.3H94.8z M94.8,126.6v-2.3h3.5v2.3H94.8z M94.8,123.6v-2.3h3.5v2.3H94.8z M94.8,120.6v-2.3h3.5v2.3H94.8z M94.8,117.6v-1.8h3.5
	v1.8H94.8z M94.8,115.1v-2.3h3.5v2.3H94.8z M94.8,112.1v-2.3h3.5v2.3H94.8z M94.8,109.1v-2.3h3.5v2.3H94.8z M94.8,106.1v-2.3h3.5
	v2.3H94.8z M90.3,100.8h3.2v2.3h-3.2L90.3,100.8z M90.3,103.8h3.2v2.3h-3.2L90.3,103.8z M90.3,106.8h3.2v2.3h-3.2L90.3,106.8z
	 M90.3,109.8h3.2v2.3h-3.2L90.3,109.8z M90.3,112.8h3.2v2.3h-3.2L90.3,112.8z M90.3,115.8h3.2v1.8h-3.2L90.3,115.8z M90.3,118.4h3.2
	v2.3h-3.2L90.3,118.4z M90.3,121.4h3.2v2.3h-3.2L90.3,121.4z M90.3,124.4h3.2v2.3h-3.2L90.3,124.4z M90.3,127.4h3.2v2.3h-3.2
	L90.3,127.4z M90.3,130.4h3.2v2.6h-3.2L90.3,130.4z M90.3,133.4h3.2v2.2h-3.2L90.3,133.4z M90.3,136.2h3.2v2.3h-3.2L90.3,136.2z
	 M90.3,139.2h3.2v2.3h-3.2L90.3,139.2z M90.3,142.2h3.2v2.3h-3.2L90.3,142.2z M90.3,145.2h3.2v2.3h-3.2L90.3,145.2z M90.3,148.2h3.2
	v2.3h-3.2L90.3,148.2z M90.3,151.2h3.2v1.8h-3.2L90.3,151.2z M90.3,153.8h3.2v2.3h-3.2L90.3,153.8z M90.3,156.8h3.2v2.3h-3.2
	L90.3,156.8z M90.3,159.8h3.2v2.3h-3.2L90.3,159.8z M90.3,162.8h3.2v2.3h-3.2L90.3,162.8z M90.3,165.8h3.2v2.3h-3.2L90.3,165.8z
	 M90.3,168.8h3.2v2h-3.2L90.3,168.8z M90.3,171.5h3.2v2.3h-3.2L90.3,171.5z M90.3,174.5h3.2v2.3h-3.2L90.3,174.5z M90.3,177.5h3.2
	v2.3h-3.2L90.3,177.5z M90.3,180.5h3.2v2.3h-3.2L90.3,180.5z M90.3,183.5h3.2v2.3h-3.2L90.3,183.5z M90.3,186.5h3.2v1.8h-3.2
	L90.3,186.5z M90.3,189h3.2v2.3h-3.2L90.3,189z M90.3,192h3.2v2.3h-3.2L90.3,192z M102.8,194.3h-3.2V192h3.2L102.8,194.3z
	 M102.8,191.3h-3.2V189h3.2L102.8,191.3z M102.8,188.3h-3.2v-1.8h3.2L102.8,188.3z M102.8,185.8h-3.2v-2.3h3.2L102.8,185.8z
	 M102.8,182.8h-3.2v-2.3h3.2L102.8,182.8z M102.8,179.8h-3.2v-2.3h3.2L102.8,179.8z M102.8,176.8h-3.2v-2.3h3.2L102.8,176.8z
	 M102.8,173.8h-3.2v-2.3h3.2L102.8,173.8z M102.8,170.8h-3.2v-2h3.2L102.8,170.8z M102.8,168h-3.2v-2.3h3.2L102.8,168z M102.8,165
	h-3.2v-2.3h3.2L102.8,165z M102.8,162h-3.2v-2.3h3.2L102.8,162z M102.8,159h-3.2v-2h3.2L102.8,159z M102.8,156h-3.2v-2h3.2
	L102.8,156z M102.8,153h-3.2v-1.8h3.2L102.8,153z M102.8,150.5h-3.2v-2.3h3.2L102.8,150.5z M102.8,147.5h-3.2v-2.3h3.2L102.8,147.5z
	 M102.8,144.5h-3.2v-2.3h3.2L102.8,144.5z M102.8,141.5h-3.2v-2.3h3.2L102.8,141.5z M102.8,138.5h-3.2v-1.9h3.2L102.8,138.5z
	 M102.8,135.5h-3.2v-2.2h3.2L102.8,135.5z M102.8,132.6h-3.2v-2.3h3.2L102.8,132.6z M102.8,129.6h-3.2v-2.3h3.2L102.8,129.6z
	 M102.8,126.6h-3.2v-2.3h3.2L102.8,126.6z M102.8,123.6h-3.2v-2.3h3.2L102.8,123.6z M102.8,120.6h-3.2v-2.3h3.2L102.8,120.6z
	 M102.8,117.6h-3.2v-1.8h3.2L102.8,117.6z M102.8,115.1h-3.2v-2.3h3.2L102.8,115.1z M102.8,112.1h-3.2v-2.3h3.2L102.8,112.1z
	 M102.8,109.1h-3.2v-2.3h3.2L102.8,109.1z M102.8,106.1h-3.2v-2.3h3.2L102.8,106.1z M102.8,103.1h-3.2v-2.3h3.2L102.8,103.1z"/>
<rect x="120.7" y="58.4" class="st2" width="0.4" height="8"/>
<rect x="145.8" y="58.4" class="st2" width="0.4" height="8"/>
<rect x="123.9" y="58.4" class="st2" width="0.4" height="8"/>
<rect x="148" y="58.4" class="st2" width="0.4" height="8"/>
<path class="st5" d="M160.5,195.2c0-1,0.2-2,0.6-2.9c0.5-1,4.5-0.3,4.5-0.3c0.5,1,0.8,2.1,0.8,3.2L160.5,195.2z"/>
<path class="st5" d="M149.8,195.2c0-1,0.2-2,0.6-2.9c0.5-1,4.5-0.3,4.5-0.3c0.5,1,0.8,2.1,0.8,3.2L149.8,195.2z"/>
<path class="st6" d="M163.1,115.8c-0.5,0.4-5,2.7-5,2.7l-4.8-3.4l1.5-0.2c0.4-0.1,0.4-1.3,0.5-2.5v-0.6l4.7-0.2v0.1
	c0,0.1,0,0.1,0,0.2v0.1c0,0,0,0.1,0,0.1c0.1,1.1,0.3,2.6,0.6,2.8C161.5,115,162.4,115.3,163.1,115.8z"/>
<path class="st7" d="M160,112.2c-0.4,0.8-1.2,2.1-2.5,2.1c-1-0.2-1.9-0.9-2.2-1.8v-0.6l4.7-0.2v0.1v0.2v0.1
	C159.9,112.1,160,112.1,160,112.2z"/>
<path class="st8" d="M154.8,101.4c1.4-1.3,3.6-1.3,4.9,0C158,101.2,156.4,101.2,154.8,101.4z"/>
<path class="st9" d="M153.9,109.7c-0.5-1-0.9-2.1-1.2-3.2c-0.3-1.2,0-5.9,4.7-5.6c0.9,0.1,1.9,0.3,2.7,0.8c1.1,0.6,2.6,2,1.3,6.1
	l-0.3,1.4L153.9,109.7z"/>
<path class="st6" d="M160.5,111.6c-1.2,1.2-2.7,2.7-6-0.2c-0.6-0.6-0.6-1.4-0.6-2.7c-0.2-1.1-0.2-2.1-0.2-3.2c0.2-1,1.1-1.5,2.9-1.6
	c3.3-0.3,4.9,0.5,4.7,2.1C160.7,109.7,161.7,110.4,160.5,111.6z"/>
<path class="st9" d="M157.8,103.9c0,0,1.9,0,2.4,0.6c0.3,0.6,0.5,1.1,0.7,1.8c0.1,0.2,0.2,0.5,0.2,0.8l0.4-2.9l-2.6-0.5L157.8,103.9
	z"/>
<path class="st10" d="M169.2,120c-0.8,1.7-2.4,2.8-4.2,2.9h-0.3H151h-0.1c-0.5-0.2-3.8-1.3-4.2-3.4c0,0,1.7-3.5,3-4
	c0.5-0.1,1-0.2,1.5-0.3c0.6-0.1,1.2-0.1,1.7-0.2c0.7,0,1.2,0,1.2,0c0.7,1.3,2.2,2.2,3.7,2.1c1.4,0.1,2.8-0.8,3.2-2.2
	c0,0,0.7,0,1.7,0.1c0.5,0.1,1.1,0.1,1.8,0.3c0.9,0.1,1.8,0.5,2.6,1C168,117.4,168.8,118.6,169.2,120z"/>
<path class="st8" d="M165.9,138.9c-0.1-0.8-0.4-2-0.5-3.1c0,0,0.5-6.1,0.7-7.2S165,122,165,122c-0.3-0.9-0.8-1.1-1.2-1.1l0.6-5.4
	c-0.6-0.1-1.2-0.2-1.8-0.3l-0.3,5.7v0.1c-0.7,0-1.6,0.1-2.4,0.1s-1.6,0.1-2.1,0.1c-1,0-3.2-0.1-4.6-0.2v-0.1l-0.4-5.8
	c-0.5,0-1.1,0.1-1.7,0.2l0.6,5.6l0,0c-0.4,0-0.9,0.7-0.9,1.1l-0.1,1.8c-0.5,1.4-0.9,2.8-1.1,4.2c0.1,2.8,0.3,5.5,0.6,8.2
	c0,0.8-0.1,1.7-0.2,2.7c-2,6-3,12.2-2.8,18.5c0.2,9.1,0.4,24.6,1.4,32.1c0.1,1,0.3,2,0.6,3c0.1,0.4,0.4,0.6,0.8,0.7
	c1.2,0.2,4,0.5,5.2,0c0.6-0.2,1-3.4,1.3-7.4c0.3-3.9,0.4-8.7,0.5-12.5l0,0c0.1-3,0.1-5.4,0.1-6.3c0-2,0.5-8,0.6-11.4
	c0,0,0-0.1,0-0.1s0.1,0,0.1,0c0,0,0,0,0,0.1l0,0c0.2,4.1,1.1,10.4,1.1,11.8c0,3.4-0.2,25.1,1.3,25.9c1.1,0.6,3.8,0.1,5.1,0
	c0.5-0.1,0.9-0.4,1-0.8c1.6-5.5,1.7-24.5,2-35C168.9,151.1,167.9,144.9,165.9,138.9z"/>
<path class="st6" d="M153.4,142.9c-0.9,0.3-1.8,0.2-2.6-0.3c-0.6-0.5-1.8-0.4-2.1-0.5c0,0-5.6-6.6-6.2-9.4s3.2-10.5,4.3-12.6
	c0.8,1.7,3.5,2.6,4,2.8h0.1h0.1c-1.3,3-2.9,5.8-4.6,8.5c-0.3,0.4-0.3,0.9-0.1,1.4c1.3,2.9,2.6,5.3,3.2,7c0.1,0.2,0.4,0.5,0.7,0.5
	s1.7-0.4,2.4,0.6S153.9,142.5,153.4,142.9z"/>
<path class="st11" d="M161.9,101.4c-0.3-0.4-0.6-0.7-1-1l-0.3-0.3c-1.5-1.3-3.6-1.6-5.4-0.8c-0.6,0.2-1.1,0.6-1.6,1
	c-0.1,0.1-0.2,0.2-0.3,0.3c-2,2.2-1.8,5.7-1.8,5.7l11.5-0.1C163.1,104.5,162.7,102.9,161.9,101.4z"/>
<path class="st12" d="M159.7,106.2c0-0.5-0.2-4.4,1.1-5.8l-0.2-0.2c-1.5,1.6-1.6,5.5-1.6,6h-3.7c-0.2-2.1-0.8-4.1-1.9-5.9l-0.2,0.2
	c0.8,1.8,1.3,3.7,1.4,5.7h-3.3c1.8,0.4,3.6,0.7,5.4,0.8c2.1-0.1,4.1-0.4,6.1-0.9L159.7,106.2z"/>
<path class="st9" d="M153.9,121.4c-1.2,2.3-4.5,2.7-4.5,2.7c1.1-2.6-1.1-3.5-2.4-6.2c-0.8-1.5-0.4-3.4,1-4.5
	c-1.5,0.3-1.8,2.3-1.8,2.3c-0.1-1.3,1-3.5,4.4-4c2.6-0.3,3.2-1.2,3.3-1.6c0,0.5,0.2,1,0.6,1.3c0.3,0.2,0.5,0.4,0.8,0.6
	c0,0.1,0,0.2,0,0.3c0,0.3,0,0.7,0,1c-0.4,0.4-0.5,1-0.4,1.5c0,0.1,0.1,0.3,0.1,0.4c0.3,0.4,0.5,1,0.6,1.5
	C155.8,118.3,154.7,119.8,153.9,121.4z"/>
<path class="st5" d="M165.9,138.8l-0.5-3c-2.2,0.8-4.5,1.3-6.9,1.4c-0.2-0.5-0.7-0.8-1.2-0.9l-1.8-0.3c-0.7-0.1-1.4,0.2-1.7,0.9
	c-1.1-0.2-2.2-0.4-3.3-0.8l0,0l-0.2,2.6l0,0c1,0.3,2.1,0.5,3,0.7l-0.1,0.4c-0.1,0.9,0.5,1.8,1.4,1.9l2,0.3c0.9,0.1,1.8-0.5,1.9-1.4
	c0-0.1,0-0.1,0-0.2v-0.6C161,140,163.5,139.6,165.9,138.8z"/>
<path class="st6" d="M173.3,132.7c-0.6,2.8-6.1,9.3-6.2,9.4c-0.1,0-0.1,0.1-0.2,0.1l0,0c-0.6,0-1.3,0.2-1.8,0.5
	c-0.8,0.5-1.7,0.6-2.6,0.3c-0.5-0.4,0.1-1,0.8-2s2-0.7,2.4-0.6c0.2,0,0.4-0.2,0.6-0.4l0,0l0.1-0.1c0.6-1.6,1.8-4,3.1-6.8
	c0.3-0.6,0.2-1.2-0.1-1.7c-0.9-1.4-2.6-4.3-3.8-6.6c-0.1-0.7-0.3-1.3-0.4-1.8c1.6-0.2,3.1-1.1,3.9-2.6
	C170.2,122.6,173.9,130,173.3,132.7z"/>
<g id="P297LW">
	<path class="st11" d="M185.9,131.9c1,3,6.4,8.3,7.1,8.8c0,0,1.3-2.1,1-3.3c-0.2-1-2.3-4.4-3-6.1c0-0.1-0.1-0.2-0.1-0.2
		c-0.1-0.2-0.1-0.4-0.1-0.6c0-0.4,1.2-1.2,2.5-2.3c1.7-1.4,3.8-3,4.1-4.2c0.6-2,2.6-10,2.6-10s-5.1,1.1-6.5,2.3s-7.6,11.7-7.8,14.4
		C185.8,131.3,185.8,131.6,185.9,131.9z"/>
	<path class="st6" d="M185.9,131.9c1,3,6.4,8.3,7.1,8.8c0,0,1.3-2.1,1-3.3c-0.2-1-2.5-4.7-3.1-6.3
		C189.2,130.9,187.5,131.1,185.9,131.9z"/>
	<path class="st6" d="M200.1,113.4v0.6c0,0-0.2,1.9,2.2,2.2s4.2-0.6,4.1-2.1c-0.2-1-0.4-2-0.5-3.1c0-0.4,0-0.8,0.1-1.2l-4.6-0.1
		l-1.4,0.2L200.1,113.4z"/>
	<path class="st7" d="M200.1,110.1v3.4c0.5,0.2,1.1,0.4,1.7,0.4c1.8-0.1,3.4-1.1,4.3-2.7c0-0.4,0-0.8,0.1-1.2l-4.6-0.1L200.1,110.1z
		"/>
	<path class="st5" d="M204.1,195.6c0.1-1,0.4-1.9,0.8-2.8c0.5-1,3.8-0.4,3.8-0.4s0.7,0.6,0.8,3.2L204.1,195.6z"/>
	<path class="st5" d="M192.9,195.6c0.8-0.5,0.3-4,0.3-4s-3.6-2.9-4.1-0.7s-3.4,3.2-5.1,3.5c-0.7,0-1.4,0.5-1.6,1.2L192.9,195.6z"/>
	<path class="st8" d="M200.4,169.4c-0.1,0.7-0.2,1.3-0.3,2c-0.3,6.6-5.5,21.6-6.5,21.9c-1.4,0.5-3.7-0.6-4.9-1
		c-0.5-0.1-0.8-0.6-0.7-1.1c2.6-11.8,3.5-28.8,3.9-38.9c0.1-2.9,0.4-5.8,1-8.6c0,0,12.7-3.4,12.7,0.9
		C205.8,148.4,201.5,163.2,200.4,169.4z"/>
	<path class="st5" d="M200.4,169.4l-8.5-17.2c0.1-2.9,0.4-5.8,1-8.6c0,0,12.7-3.4,12.7,0.9C205.8,148.4,201.5,163.2,200.4,169.4z"/>
	<path class="st8" d="M197.6,144.6l6.7,48.5c1.7,0.4,3.5,0.4,5.2,0.1c0,0,2-25.8,1.8-32s1.4-16.7-0.4-17.8S197.6,144.6,197.6,144.6z
		"/>
	<path class="st11" d="M192.6,144.7c2.6,1.3,5.5,2,8.4,1.9c1.7,0,3.3-0.1,5-0.4c4-0.6,6-1.7,6-2.1s0-1.6-0.1-2.1
		c-0.6-7.3-0.3-12.9-1.1-17.2v-0.2c-0.6-3.5-1.9-6.8-3.8-9.8c-0.2-0.2-0.3-0.5-0.5-0.7c0,1-2.1,1.9-3.9,1.8c-1.1,0-2.1-0.7-2.4-1.8
		l0,0c-0.1,0-6.7,4.5-6.7,8.8C193.4,141.8,192.2,144.7,192.6,144.7z"/>
	<path class="st12" d="M206,146.2C206,146.2,206,146.2,206,146.2c4-0.5,6-1.6,6-2s0-1.6-0.1-2.1c-0.6-7.3-0.3-12.9-1.1-17.2
		C208.6,127.6,204.4,134.9,206,146.2z"/>
	<path class="st13" d="M195.1,137.1l0.5,1.8l0.5,1.8l23-6.9h0.1h0.1c0.3-0.2,0.3-1,0.1-1.8c0-0.1,0-0.1,0-0.1
		c-0.3-0.9-0.8-1.6-1.1-1.6c0,0-0.1,0-0.1,0h-0.1L195.1,137.1z"/>
	<path class="st14" d="M195.6,138.9l0.5,1.8l23-6.9h0.1h0.1c0.3-0.2,0.3-1,0.1-1.8c-3.9,2.7-8.4,4.5-13.1,5.4
		C198.5,138.8,196,138.9,195.6,138.9z"/>
	<path class="st15" d="M195.1,137.1c0.4-0.1,0.9,0.6,1.2,1.6s0.2,1.9-0.2,2s-0.9-0.6-1.2-1.6S194.7,137.3,195.1,137.1z"/>
	<path class="st13" d="M218,129.6l2.7-0.4h0.1h0.1c0.4,0.1,0.8,0.8,0.9,1.7c0,0,0,0.1,0,0.1c0.1,0.4,0.1,0.7,0,1.1
		c0,0.3-0.1,0.5-0.3,0.7l0,0h-0.1h-0.1l-23.8,3.9l-0.3-1.8L197,133L218,129.6z"/>
	<path class="st14" d="M208.1,134.6c5.1-0.3,7.8-3,9.9-5l2.7-0.4h0.1h0.1c0.4,0.1,0.8,0.8,0.9,1.7c0,0,0,0.1,0,0.1
		c0.1,0.4,0.1,0.7,0,1.1c-0.1,0.2-0.2,0.5-0.3,0.7l0,0h-0.1h-0.1l-23.8,3.9l-0.3-1.8C197.6,134.9,200.1,135.1,208.1,134.6z"/>
	<path class="st15" d="M196.9,133c0.4-0.1,0.9,0.7,1,1.7s0,1.9-0.4,2s-0.9-0.7-1-1.7S196.5,133,196.9,133z"/>
	<path class="st6" d="M205.4,140c3.8-0.6,7.5-2,10.6-4.3c0.5-0.4,0.8-0.6,0.8-0.6c2.8-5.9-2.3-16.3-3.2-18.1c-1-1.9-7.1-2.7-7.1-2.7
		c0.7,2.2,1.1,4.4,1.4,6.7c0.4,3.8,4.5,11.1,4.3,11.7c0,0.2-0.5,0.5-1.3,0.9c-2.1,1.2-6.3,3.2-6.5,3.6
		C204,137.7,205.4,140,205.4,140z"/>
	<path class="st6" d="M204.3,137.1c0,0-3.1-1.2-3.8-0.7s-2,1.2-2,1.8s1.6,1.9,2.9,2.3s4-0.4,4-0.4L204.3,137.1z"/>
	<path class="st11" d="M207.8,120.8c0.4,3.8,4.5,11.1,4.3,11.7c0,0.2-0.5,0.5-1.3,0.9h0.2c1.9-0.2,3.8,0.6,5,2.2
		c0.5-0.4,0.8-0.6,0.8-0.6c2.8-5.9-2.3-16.3-3.2-18.1c-1-1.9-7.1-2.7-7.1-2.7C207.1,116.4,207.5,118.6,207.8,120.8z"/>
	<path class="st6" d="M199.8,111.7c0,0,5.9,1.2,6.6-2.5s1.9-6-1.8-7s-4.8,0.4-5.3,1.5S198.3,111.3,199.8,111.7z"/>
	<path class="st5" d="M206.3,110.3c0.6-1.2,1.3-2.4,2.1-3.5c0.9-1.1,0.4-6.5-3.7-6.3s-5.6,3.1-5.6,3.7s3.3,0.1,4.2,0.9s0,2,1.1,2.4
		s1.9,0.4,1.7,1.4C205.9,109.3,206,109.8,206.3,110.3z"/>
	<path class="st11" d="M205,97.9c1,0.2,1.9,0.7,2.7,1.3l0.2,0.2l0,0c2.4,2.3,1.5,6,1.5,6c-0.1,0.4-0.3,0.9-0.6,1.3
		c-0.2,0.4-3.5,0-3.6-0.8c-0.2-0.5-0.4-1-0.8-1.4l-3.7-0.2c-1-0.2-2-0.5-3-0.8C197.8,103.3,199,96.4,205,97.9z"/>
	<path class="st12" d="M195.7,102.8c0.7-0.2,1.5-0.2,2.3-0.3c0.9,0.6,1.9,1.1,2.9,1.4c1.7-2.2,4.1-3.9,6.8-4.7l0,0
		c0.1,0.1,0.1,0.1,0.2,0.2l0,0v0.1c-2.7,0.5-5.3,3.6-6.2,4.7c0.9,0.2,1.8,0.3,2.6,0.4c0,0-6,0.1-8.7-1.3c-0.1-0.1-0.2-0.2-0.1-0.3
		C195.5,102.8,195.6,102.8,195.7,102.8z"/>
	<path class="st12" d="M189.6,129.9c0.1,0.8,0.7,1.4,1.4,1.5c0-0.1-0.1-0.2-0.1-0.2c-0.1-0.2-0.1-0.4-0.1-0.6c0-0.4,1.2-1.2,2.5-2.3
		c0.3-1.2,0.3-2.5,0-3.8C192.9,122.8,189.5,129.2,189.6,129.9z"/>
	<path class="st12" d="M211.5,133c0,0,4.1-0.3,5.4,2.1c0,0.4-0.4,0.6-0.7,0.6c-0.1,0-0.1,0-0.2,0c0,0-3.5-2.4-5.2-2.2
		C211,133.2,211.2,133,211.5,133z"/>
	<path class="st12" d="M191.1,131.4c-1.7,0.1-3.3,0.6-4.8,1.3c0,0-0.6-0.6-0.4-0.9S189.9,130.2,191.1,131.4z"/>
</g>
<path class="st16" d="M101.8,135.8c2.8,0.3,5.6,0.1,8.4-0.4c0.6-0.1,1.2-0.3,1.7-0.5c0.5-0.2,0.9-0.5,1.2-0.9
	c0.7-1.7,1.3-3.4,1.7-5.1c2-7.1,4.9-18.9,4.9-18.9s-5.8,1.2-7,2.2s-2.2,17.1-3.4,17.6c-0.3,0.1-0.6,0.2-0.9,0.4l0,0
	c-0.2,0.1-0.3,0.2-0.6,0.3c-2.4,1.2-6.6,3.4-7,3.9C100.4,134.9,100.4,135.4,101.8,135.8z"/>
<path class="st16" d="M112.9,119c0-0.3,0-0.5,0.1-0.8c0.8-4.1,6.7-8.3,6.8-8.3v0.1c0.3,1.1,1.3,1.9,2.5,1.9c1.8,0.1,4-0.9,4-1.9
	l1.3,0.2c2,0.2,3.9,0.9,5.6,1.9c1.2,0.9-0.5,6.5-1.5,10.4c-0.4,1.2-0.6,2.4-0.7,3.7c0,0.3,0.3,4.4,0.5,8c0.2,3,0.4,5.8,0.4,6
	c0,0.3-1.7,1.6-4.6,2.5c-0.7,0.2-1.5,0.4-2.3,0.6c-1.6,0.3-3.3,0.5-5,0.5c-0.6,0-1.1,0-1.7-0.1C114.3,143.1,112.9,138.4,112.9,119z"
	/>
<path class="st6" d="M126.3,109.8c0.1-1.7,0-3.4-0.2-5.1l-6.3,1c0,0,0,1.9,0,4.1c0,0-0.2,2,2.3,2.3S126.4,111.4,126.3,109.8z"/>
<path class="st17" d="M126.8,131.3c0,6.1,3,4.4,4.7,2.8c-0.2-3.7-0.4-16.7-0.4-16.7C128.2,121.4,126.7,126.3,126.8,131.3z"/>
<path class="st17" d="M107.7,130.4c0.3,1.8,0.9,3.6,1.8,5.2c0.8-0.2,1.6-0.4,2.4-0.7c0.5-0.2,0.9-0.5,1.2-0.9
	c0.7-1.7,1.3-3.4,1.7-5.1c-0.6-3.2-1.1-6.3-1.1-6.3l-0.2-2.1c0,0.2-2.5,9.4-3.6,9.6c-0.5,0.1-1,0.1-1.4,0h-0.1L107.7,130.4z"/>
<path class="st5" d="M126.9,102.9c0,0,4.2-6.7-3.9-7.1c0,0-3.1,0.4-3.8-0.3c-1.4,2.3-1.4,5.1-0.2,7.5
	C121.3,106.8,126.9,102.9,126.9,102.9z"/>
<path class="st6" d="M120,106.4c0.9,0.5,1.9,0.9,3,1c1.1-0.2,2.1-0.5,3.2-0.9c0.8-0.5,0.7-1.4,0.7-2.7c0.1-1.2,0.1-2.4,0-3.6
	c-0.2-1-0.9-1.7-2.7-1.8c-3.4-0.3-4.8,0.6-4.9,1.7c0,0.3,0,0.6,0,0.9C119,104.6,119.3,105.9,120,106.4z"/>
<path class="st5" d="M119.1,102.2c0,2.1,0.6,3.3,1,3.5c0.5,0.2,1,0.3,1.6,0.4c0.2,0,0.4,0,0.4-0.1c0-0.3-0.4-0.7-0.1-1
	s2.2-0.4,2.3,0.3c0.1,0.3-0.5,0.9-0.1,0.9l0.4-0.1c0.5-0.1,1-0.3,1.4-0.6c0.8-0.5,0.7-1.2,0.9-2.4c0.1-0.8,0.1-0.4,0,0.8
	s0.1,2.1-0.7,2.7c-0.5,0.3-3.2,1.5-3.2,1.5c0-0.7-2.3-1.2-2.9-1.7S119.1,104.9,119.1,102.2z"/>
<path class="st8" d="M132,140.1c0,0.3-1.7,1.6-4.6,2.5l-0.7,0.2l0,0c-0.3,3.1-1,7.6-1.7,11.9l0,0c-0.2,1.1-0.3,2.2-0.5,3.3
	c-0.4,2.4-0.6,4.8-0.7,7.2l0,0c0.2,1.2,0.4,2.3,0.8,3.5c0,0.3,0.1,0.6,0.1,0.9c0.1,1.5,0,3-0.1,4.6c-0.5,7.3-2.4,16.6-3.1,17.1
	c-1.4,0.8-3.9,0-5.1-0.2c-0.5,0-0.9-0.5-0.9-1.1c0.6-12.1-1.2-29-2.5-39.4c0-0.3-0.1-0.5-0.1-0.8c-0.2-1.2-0.3-2.4-0.3-3.4
	s-0.1-1.7-0.1-2.4v-0.6c0-0.6,0.5-4.9,0.5-24.4l0,0c0-0.5,0.4-0.8,0.8-0.8h11.9c1.1,0,2.1,0.9,2.1,2.1c0,0,0,0,0,0
	c0,1.9,0.1,3.7,0.4,5.5c0.4,2.7,1.4,5.2,3.3,5.9l0,0l0.1,0.3l0,0c0,0.5,0,1,0.1,1.5c0,0.1,0,0.2,0,0.3v0.3c0,0.1,0,0.2,0,0.3v0.5
	v0.4c0,0.3,0,0.5,0,0.8c0,0.1,0,0.2,0,0.3c0,0.3,0,0.7,0.1,1.1c0,0.1,0,0.2,0,0.3s0,0.1,0,0.2s0,0.3,0,0.4v0.4
	C132,139.2,131.9,139.7,132,140.1z"/>
<path class="st5" d="M124.6,174.2c-0.5,7.3-2.4,16.6-3.1,17.1c-1.4,0.8-3.9,0-5.1-0.2c-0.5,0-0.9-0.5-0.9-1.1
	c0.6-12.1-1.2-29-2.5-39.4c0-0.3-0.1-0.5-0.1-0.8c-0.2-1.2-0.3-2.4-0.3-3.4c0.6-4.1,4.2-4.3,7.4,4.2
	C119.5,153.4,124.7,172.5,124.6,174.2z"/>
<path class="st8" d="M132.1,164.9c0.3,1.1,0.7,2.2,1.2,3.3c1.6,6.6,0.7,22.1-0.1,22.8c-1.3,1-3.8,0.5-5.1,0.5c-0.5,0-0.9-0.4-1-0.9
	c-1-12.4-5.2-29.5-7.8-39.5c-0.8-2.9-1.3-5.8-1.5-8.8c0,0,12.5-7.7,13.9-3.5C132.7,142.5,131.3,158.4,132.1,164.9z"/>
<path class="st11" d="M119.3,93.9c0.1-0.1,0.2-0.2,0.3-0.3c0.4-0.4,0.9-0.8,1.5-1c1.7-0.7,3.7-0.4,5.1,0.8l0.3,0.2
	c0.4,0.3,0.7,0.6,0.9,1c0.8,1.4,1.1,2.9,1,4.5l-10.9,0.1C117.5,97.3,118.1,95.4,119.3,93.9z"/>
<path class="st12" d="M125.5,99.2h-0.6c0-0.2,0-4.1,1.5-5.7l0.2,0.2C125.1,95.1,125.4,99.2,125.5,99.2z"/>
<path class="st12" d="M120.7,99.3c-0.1-1.9-0.6-3.7-1.3-5.4c0.1-0.1,0.1-0.1,0.2-0.2c1,1.7,1.6,3.7,1.8,5.6l7.2-0.1
	c-1.9,0.4-3.9,0.7-5.8,0.8c-1.7-0.1-3.4-0.3-5.1-0.7L120.7,99.3z"/>
<path class="st8" d="M128.1,110.1c0,0-3.7,4.3-3.9,8.1l1.9,0.1c0.4-2.9,1.5-5.6,3.2-7.9c0,0-0.4-0.1-0.6-0.1L128.1,110.1z"/>
<path class="st8" d="M118.9,110c-1.6,2.5-2.6,5.3-2.9,8.2h-1.9c0.2-3,2-6.2,3-7.7C117.1,110.5,118.4,110.1,118.9,110z"/>
<path class="st16" d="M131.1,133.2c-0.1,4.4,0.4,13.2,0.4,13.2h2.6c0.9-4.1,1.5-8.2,1.7-12.3c0-0.4,0-0.8,0-1.2
	c0-1.9-0.1-2.9-0.1-2.9c0.5-11.2-1.7-17.2-2.4-18s-3.9-1.6-3.9-1.6c-0.6,1.8-1.1,3.7-1.5,5.6c-0.4,2.5,3.4,12.9,3.2,16.5
	C131.1,132.7,131.1,132.9,131.1,133.2z"/>
<path class="st6" d="M92.5,134.4c0.6,0.8,0.9,1.2,1.7,1.4c1,0.2,2-0.1,2.8-0.7c0.5-0.2,1-0.4,1.5-0.3c1.7,0.4,3.4,2,11.1,0.7
	c0.9-1.1,0.3-3.2-1.7-5.2c-3.2,0.8-8.8,1.9-9.8,2.6c-0.7-0.2-1.4-0.3-2.1-0.2c-0.3,0.1-0.7,0.3-0.9,0.5c-0.5,0.4-1.2,0.4-1.7,0.1
	c-0.4-0.3-0.9-0.4-1.4-0.3C91.7,133.1,92.1,133.9,92.5,134.4z"/>
<path class="st16" d="M127,143.2l-8.1-0.6c-0.2,0-0.4,0.2-0.5,0.4c0,0.1,0,0.2,0.1,0.3l5.7,5.8c0.2,0.2,0.4,0.2,0.6,0
	c0,0,0.1-0.1,0.1-0.1l1.1-2.4l2.6,1.2l0.2-0.4l-2.7-1.2l1.1-2.4C127.4,143.6,127.3,143.3,127,143.2C127.1,143.2,127,143.2,127,143.2
	z"/>
<path class="st18" d="M90.7,132.5l0.9-2.7c0.1-0.4,0.5-0.5,0.9-0.4l10.6,3.6c0.4,0.1,0.5,0.5,0.4,0.9l-0.9,2.7
	c-0.1,0.4-0.5,0.5-0.9,0.4l-10.6-3.6C90.8,133.3,90.6,132.9,90.7,132.5z"/>
<path class="st11" d="M135.9,150.7L135.9,150.7c-0.1,0.3-0.5,0.5-0.8,0.3c0,0,0,0,0,0l-6.3-2.7c-0.3-0.1-0.5-0.5-0.3-0.8
	c0,0,0,0,0,0l0,0c0.1-0.3,0.5-0.5,0.8-0.3l6.3,2.7C135.9,150,136,150.4,135.9,150.7C135.9,150.7,135.9,150.7,135.9,150.7z"/>
<path class="st6" d="M131.5,146.3c0,0-0.5-8.8-0.4-13.2c1.5-0.5,3.1-0.6,4.7-0.3c0,0.4,0,0.8,0,1.2c-0.2,4.1-0.8,8.2-1.7,12.3
	c0.5,2.3,0.5,4.7-0.4,5.1s-4-1.2-4-1.9S131.5,146.3,131.5,146.3z"/>
<path class="st11" d="M51.9,149.2h12.6c0.7,0,1.3,0.6,1.3,1.3v9.5c0,0.7-0.6,1.3-1.3,1.3H51.9c-0.7,0-1.3-0.6-1.3-1.3v-9.5
	C50.6,149.8,51.2,149.2,51.9,149.2z"/>
<path class="st12" d="M56,149.2h12.6c0.7,0,1.3,0.6,1.3,1.3v9.5c0,0.7-0.6,1.3-1.3,1.3H56c-0.7,0-1.3-0.6-1.3-1.3v-9.5
	C54.7,149.8,55.3,149.2,56,149.2z"/>
<path class="st11" d="M53.2,149.3c0,0,3-2.2,3.5-2.2s1.2,0.2,1.2,0.2l-2.7,2L53.2,149.3z"/>
<path class="st10" d="M76.9,114.3c-1.7-1-3.5-1.6-5.4-1.8c-0.3,0-1.3,0-1.3,0c0,1-2.2,1.9-3.9,1.8c-1.1,0-2.1-0.7-2.4-1.8l0,0
	c-0.1,0-5.9,4-6.6,8c0,0.3-0.1,0.5-0.1,0.8c0,19-1.2,21.9-0.8,21.9c1.8,1.2,4,1.9,6.2,2.1c0.5,0,1.1,0.1,1.6,0.1
	c1.6,0,3.2-0.2,4.8-0.5c0.8-0.2,1.6-0.4,2.2-0.6c2.8-0.9,4.5-2.1,4.5-2.4s0.1-0.9,0-1.4c-0.2-2-0.3-3.8-0.3-5.5
	c1.6,0.2,3.2,0.2,4.8,0C82.6,129.4,78.5,115.6,76.9,114.3z M76.2,129.8l-0.6,0.1l-0.5,0.1c0-0.1,0-0.1,0-0.2c0-1-0.1-1.9-0.2-2.8
	c0-0.7-0.1-1.5-0.2-2.2C75.8,127.6,76.5,129.7,76.2,129.8z"/>
<path class="st6" d="M63.8,112.4c0,0-4.5,0.7-6.4,2.3s-2.1,11.8-2.8,14.7c-0.2,0.9-0.3,1.7-0.3,2.6c-0.2,3.8-0.1,7.6,0.4,11.3
	c0.1,0.6,0,1.3-0.3,1.9c-0.5,1.2-0.6,1.6,0.3,2.3s1.8,1.7,2.5,1.4c0.5-0.2,0.4-3.6,0.3-5.2c0.8-3.3,2-9.5,3.2-15.5
	C62.4,120.1,63.8,112.4,63.8,112.4z"/>
<path class="st10" d="M63.8,112.4c0,0-0.8,4.4-1.9,10.1c-0.3,1.8-0.7,3.7-1.1,5.6c-1.5,3-2.8,5-3.2,4.7c-0.9-0.7-2.1-1-3.2-0.9
	c0.1-0.9,0.2-1.7,0.3-2.6c0-0.2,0.1-0.5,0.1-0.8c0.5-3.6,0.8-12.4,2.6-13.8c1.1-0.8,2.4-1.4,3.8-1.7l0,0c0.7-0.2,1.3-0.3,1.8-0.4
	L63.8,112.4z"/>
<path class="st19" d="M57.6,132.8c-0.9-0.7-2.1-1-3.2-0.9c0.1-0.9,0.2-1.7,0.3-2.6c0-0.2,0.1-0.5,0.1-0.8l4.6-11.1
	C59.4,117.4,58,133.2,57.6,132.8z"/>
<path class="st6" d="M70.2,112.3c0.1-1.7,0-3.3-0.2-5l-6.2,1c0,0,0,1.9,0,4l0,0c0,0-0.2,1.9,2.2,2.2S70.2,113.8,70.2,112.3z"/>
<path class="st5" d="M65,194.4c0.8-0.5,0.3-4.1,0.3-4.1s-3.6-2.9-4.1-0.7s-3.4,3.2-5.1,3.5c-0.7,0-1.4,0.5-1.6,1.2L65,194.4z"/>
<path class="st19" d="M75.6,129.9c0,0-1.2,1.6-1.4,1.6s-3.2-1.1-2.3-3.7c0.4-1.4,1.5-2.5,2.9-3c0.1,0.7,0.2,1.4,0.2,2.2
	c0.1,0.9,0.1,1.9,0.2,2.8c0,0.1,0,0.1,0,0.2L75.6,129.9L75.6,129.9z"/>
<path class="st5" d="M76.2,194.4c0.8-0.5,0.3-4.1,0.3-4.1s-3.6-2.9-4.1-0.7s-3.4,3.2-5.1,3.5c-0.7,0-1.4,0.5-1.6,1.2L76.2,194.4z"/>
<path class="st8" d="M75.6,141.8c0,0.3-1.7,1.5-4.5,2.4l-0.7,0.2l0,0c-0.3,3.1-1,7.4-1.6,11.6l0,0c-0.2,1.1-0.3,2.1-0.5,3.2
	c-0.4,2.3-0.6,4.7-0.7,7.1l0,0c0.2,1.1,0.4,2.3,0.7,3.4c0,0.3,0.1,0.6,0.1,0.9c0.1,1.5,0.1,3-0.1,4.4c-0.5,7.1-2.3,16.2-3,16.6
	c-1.3,0.8-3.8,0-5-0.2c-0.5-0.1-0.9-0.5-0.9-1c0.6-11.8-1.1-28.2-2.4-38.3c0-0.3-0.1-0.5-0.1-0.8c-0.2-1.2-0.2-2.3-0.3-3.3
	s-0.1-1.7-0.1-2.4V145c0-0.6,0.5-4.8,0.5-23.7l0,0c0-0.4,0.4-0.8,0.8-0.8c0,0,0,0,0,0h11.6c1.1,0,2,0.9,2,2c0,1.8,0.1,3.6,0.3,5.4
	c0.4,2.6,1.3,5.1,3.2,5.7l0,0l0.2,0.3l0,0c0,0.5,0,1,0.1,1.4c0,0.1,0,0.2,0,0.3s0,0.1,0,0.2s0,0.2,0,0.3v0.5v0.4c0,0.3,0,0.5,0,0.8
	c0,0.1,0,0.2,0,0.2c0,0.3,0,0.7,0.1,1c0,0.1,0,0.2,0,0.3s0,0.1,0,0.2v0.4c0,0.1,0,0.3,0,0.4C75.7,140.9,75.6,141.4,75.6,141.8z"/>
<path class="st5" d="M68.4,175c-0.5,7.1-2.3,16.2-3,16.6c-1.3,0.8-3.8,0-5-0.2c-0.5-0.1-0.9-0.5-0.9-1c0.6-11.8-1.1-28.2-2.4-38.3
	c0-0.3-0.1-0.5-0.1-0.8c-0.2-1.2-0.2-2.3-0.3-3.3c0.6-4,4.1-4.2,7.2,4.1C65.3,155.2,68.6,173.3,68.4,175z"/>
<path class="st8" d="M75.8,165.9c0.3,1.1,0.7,2.2,1.2,3.2c1.6,6.4,0.7,21.6-0.1,22.2c-1.2,0.9-3.7,0.5-5,0.5c-0.5,0-0.9-0.4-1-0.9
	c-1-12.1-5-28.7-7.6-38.4c-0.8-2.8-1.3-5.6-1.5-8.5c0,0,12.2-7.5,13.5-3.4C76.4,144.1,75,159.6,75.8,165.9z"/>
<path class="st8" d="M71.9,112.6c0,0-3.6,4.2-3.8,7.8h1.8c0.4-2.7,1.5-5.3,3.2-7.6L71.9,112.6z"/>
<path class="st8" d="M63,112.6c-1.5,2.4-2.5,5-2.9,7.8h-1.8c0.2-2.9,1.9-5.9,2.9-7.4l0,0C61.9,112.8,62.5,112.7,63,112.6z"/>
<path class="st11" d="M81.5,135.2c-0.1-1.7-0.3-3.3-0.6-5c0,0.9-0.1,1.8-0.2,2.6c0.4,3.6,0.3,6.4-0.5,7.9c-0.4,0.9-1.1,1.7-2,2.2
	c0.4-0.4,0.8-0.9,1.1-1.5c0.6-1.1,1.2-3.2,1-6.9c0,0.1-0.1,0.2-0.1,0.3l-0.5,0.1c0.1,2.8-0.2,4.9-0.9,6.2c-0.5,0.9-1.2,1.7-2.1,2.1
	c0.3-0.3,0.5-0.6,0.8-0.9c0.7-1.1,1.5-3.2,1.5-7.3h-0.6c0,3.2-0.5,5.6-1.4,6.8l-0.1,0.2c0.7-1.1,1.3-3.2,1.3-7h-0.6
	c0,3.2-0.5,5.5-1.4,6.8c-0.5,0.8-1.2,1.4-2,1.8c-0.2-0.1-0.5-0.1-0.7-0.2h-0.1l0,0h-0.1c-0.3-0.1-0.6-0.2-0.9-0.3
	c-3.1-1.1-5.3-3.9-5.7-7.1c-0.1-2.5,0-5,0.4-7.5c0.7-5.8,2.3-12.6,4.2-15.3l0.1-0.1l0,0l0.1-0.2c0.1-0.1,0.1-0.2,0.2-0.2l0,0
	c0.1-0.1,0.3-0.3,0.4-0.4l0.1,0.1c0.2,0.1,0.3,0.3,0.4,0.5l0,0l0.6,0.1l0.3,0.1l0,0h0.1l0.4,0.1l0.2,0.1l0.3,0.1l0.3,0.1l0.3,0.1
	l0,0c-1.1-1.8-1.9-2.2-2.5-2.2h-0.2c-0.1,0-0.2,0-0.3,0c-0.2,0-0.4,0-0.5,0.1c-0.7,0.1-1.3,0.5-1.7,1l-0.1,0.1
	c-0.4,0.4-0.7,0.9-1,1.3l0,0c-3.1,4.9-6,15.8-6.2,20.9c-0.1,4,3,7.7,6.1,9.1c0.3,0.1,0.6,0.3,0.9,0.4l0.5,0.2l0,0
	c0.6,0.2,1.2,0.3,1.9,0.3h0.4h0.4c0.6,0,1.1-0.1,1.6-0.2h0.2H75l0.4-0.1c0.4,0,0.7,0,1.1-0.1c1.1-0.2,2.2-0.7,3-1.4
	c0.5-0.5,1-1.1,1.3-1.8C81.5,139.3,81.8,137.2,81.5,135.2z M63.2,134.8c0.2-4.5,2.6-14.1,5.4-19.3c-0.1,0.2-0.2,0.5-0.3,0.7
	c-2.6,5.5-4.8,14.2-4.9,18.6c0,1.8,0.5,3.6,1.5,5.1C63.8,138.4,63.2,136.6,63.2,134.8z M69.7,143.2c-3.9-1.8-5.8-5.6-5.7-8.4
	c0.3-3.6,1-7.1,2-10.5c-0.8,3.7-1.3,7.5-1.3,11.3c0.2,3.4,2.6,6.2,5.3,7.7L69.7,143.2z M65.3,135.6c-0.2-3.9,1-11.7,2.9-17.3
	c0.2-0.6,0.4-1.2,0.6-1.8L69,116c-1.5,4.5-2.5,9.2-2.9,13.9c-0.2,2-0.2,4.1-0.1,6.1c0.3,2.7,1.8,5.1,4.1,6.6
	C67.4,141.2,65.6,138.6,65.3,135.6L65.3,135.6z"/>
<path class="st6" d="M75.6,129.9l-2.1,0.4c-3.1,0.5-7.3,0.7-7.7,0.7c0,0-1.5-1.4-2.1-1.4s-2.3,0.6-2.5,1.1s-0.2,1.3,0.2,1.5
	c1,0.3,2,0.5,3,0.7h0.2c3.1,0.9,6.2,1.5,9.4,1.9c0.9,0.1,1.7,0.2,2.6,0.2C76.7,133.2,76.3,131.5,75.6,129.9z"/>
<path class="st9" d="M70.8,105.6c0,0,4.1-6.5-3.8-6.9c0,0-3,0.3-3.6-0.3c-1.3,2.2-1.4,5-0.2,7.3C65.3,109.3,70.8,105.6,70.8,105.6z"
	/>
<path class="st6" d="M64,109c0.9,0.5,1.9,0.8,2.9,1c1-0.2,2.1-0.5,3.1-0.9c0.7-0.4,0.7-1.3,0.7-2.6c0.1-1.2,0.1-2.3,0-3.5
	c-0.2-1-0.8-1.6-2.7-1.8c-3.3-0.3-4.7,0.6-4.8,1.7c0,0.3,0,0.6,0,0.9C63.1,107.2,63.3,108.5,64,109z"/>
<path class="st11" d="M71.3,97.6c-0.3-0.4-0.6-0.7-0.9-1l-0.3-0.2c-1.4-1.2-3.3-1.5-5-0.8c-0.5,0.2-1,0.5-1.5,0.9
	c-0.1,0.1-0.2,0.2-0.3,0.3c-1.2,1.5-1.7,3.4-1.7,5.2l10.6-0.1C72.4,100.4,72.1,98.9,71.3,97.6z"/>
<path class="st12" d="M69.3,102c0,0-0.3-4,1-5.4l-0.2-0.2c-1.4,1.5-1.5,5.4-1.5,5.5L69.3,102z"/>
<path class="st12" d="M65.3,102c-0.2-1.9-0.8-3.8-1.7-5.5c-0.1,0.1-0.1,0.1-0.2,0.2c0.7,1.7,1.2,3.5,1.3,5.3h-3
	c1.6,0.4,3.3,0.7,5,0.7c1.9-0.1,3.8-0.4,5.7-0.8L65.3,102z"/>
<path class="st7" d="M63.8,108.8c0.9,0.6,1.9,1,3,1.2c1.2-0.1,2.3-0.4,3.3-1c0,0-2.7,2.3-3.3,2.3S63.8,108.8,63.8,108.8z"/>
<path class="st5" d="M129.7,193.9c0.8-0.5,0.3-4.1,0.3-4.1s-3.7-3-4.2-0.7s-3.5,3.3-5.3,3.6c-1.2,0.2-1.6,0.8-1.7,1.2L129.7,193.9z"
	/>
<path class="st5" d="M141.2,193.9c0.8-0.5,0.3-4.1,0.3-4.1s-3.7-3-4.2-0.7s-3.5,3.3-5.2,3.6c-1.2,0.2-1.6,0.8-1.7,1.2L141.2,193.9z"
	/>
<path class="st5" d="M119.8,157.6v4.4H21.6c-0.5,0-0.9,0.4-0.9,0.9v32.8h210v-38.1H119.8z"/>
<path class="st18" d="M220.4,191.5h8.7c1.1,0,1.9,0.9,1.9,1.9v0.4c0,1.1-0.9,1.9-1.9,1.9h-8.7c-1.1,0-1.9-0.9-1.9-1.9v-0.4
	C218.5,192.4,219.4,191.5,220.4,191.5z"/>
<path class="st18" d="M207.2,191.5h8.7c1.1,0,1.9,0.9,1.9,1.9v0.4c0,1.1-0.9,1.9-1.9,1.9h-8.7c-1.1,0-1.9-0.9-1.9-1.9v-0.4
	C205.3,192.4,206.1,191.5,207.2,191.5z"/>
<path class="st18" d="M194,191.5h8.7c1.1,0,1.9,0.9,1.9,1.9v0.4c0,1.1-0.9,1.9-1.9,1.9H194c-1.1,0-1.9-0.9-1.9-1.9v-0.4
	C192.1,192.4,192.9,191.5,194,191.5z"/>
<path class="st18" d="M180.8,191.5h8.7c1.1,0,1.9,0.9,1.9,1.9v0.4c0,1.1-0.9,1.9-1.9,1.9h-8.7c-1.1,0-1.9-0.9-1.9-1.9v-0.4
	C178.9,192.4,179.7,191.5,180.8,191.5z"/>
<path class="st18" d="M167.5,191.5h8.7c1.1,0,1.9,0.9,1.9,1.9v0.4c0,1.1-0.9,1.9-1.9,1.9h-8.7c-1.1,0-1.9-0.9-1.9-1.9v-0.4
	C165.6,192.4,166.5,191.5,167.5,191.5z"/>
<path class="st18" d="M154.3,191.5h8.7c1.1,0,1.9,0.9,1.9,1.9v0.4c0,1.1-0.9,1.9-1.9,1.9h-8.7c-1.1,0-1.9-0.9-1.9-1.9v-0.4
	C152.4,192.4,153.3,191.5,154.3,191.5z"/>
<path class="st18" d="M141.1,191.5h8.7c1.1,0,1.9,0.9,1.9,1.9v0.4c0,1.1-0.9,1.9-1.9,1.9h-8.7c-1.1,0-1.9-0.9-1.9-1.9v-0.4
	C139.2,192.4,140,191.5,141.1,191.5z"/>
<path class="st18" d="M127.9,191.5h8.7c1.1,0,1.9,0.9,1.9,1.9v0.4c0,1.1-0.9,1.9-1.9,1.9h-8.7c-1.1,0-1.9-0.9-1.9-1.9v-0.4
	C126,192.4,126.8,191.5,127.9,191.5z"/>
<path class="st18" d="M114.6,191.5h8.7c1.1,0,1.9,0.9,1.9,1.9v0.4c0,1.1-0.9,1.9-1.9,1.9h-8.7c-1.1,0-1.9-0.9-1.9-1.9v-0.4
	C112.7,192.4,113.5,191.5,114.6,191.5z"/>
<path class="st18" d="M101.4,191.5h8.7c1.1,0,1.9,0.9,1.9,1.9v0.4c0,1.1-0.9,1.9-1.9,1.9h-8.7c-1.1,0-1.9-0.9-1.9-1.9v-0.4
	C99.4,192.4,100.3,191.5,101.4,191.5z"/>
<path class="st18" d="M88.1,191.5h8.7c1.1,0,1.9,0.9,1.9,1.9v0.4c0,1.1-0.9,1.9-1.9,1.9h-8.7c-1.1,0-1.9-0.9-1.9-1.9v-0.4
	C86.2,192.4,87.1,191.5,88.1,191.5z"/>
<path class="st18" d="M74.9,191.5h8.7c1.1,0,1.9,0.9,1.9,1.9v0.4c0,1.1-0.9,1.9-1.9,1.9h-8.7c-1.1,0-1.9-0.9-1.9-1.9v-0.4
	C73,192.4,73.9,191.5,74.9,191.5z"/>
<path class="st18" d="M61.7,191.5h8.7c1.1,0,1.9,0.9,1.9,1.9v0.4c0,1.1-0.9,1.9-1.9,1.9h-8.7c-1.1,0-1.9-0.9-1.9-1.9v-0.4
	C59.8,192.4,60.7,191.5,61.7,191.5z"/>
<path class="st18" d="M48.5,191.5h8.7c1.1,0,1.9,0.9,1.9,1.9v0.4c0,1.1-0.9,1.9-1.9,1.9h-8.7c-1.1,0-1.9-0.9-1.9-1.9v-0.4
	C46.6,192.4,47.4,191.5,48.5,191.5z"/>
<path class="st18" d="M35.3,191.5H44c1.1,0,1.9,0.9,1.9,1.9v0.4c0,1.1-0.9,1.9-1.9,1.9h-8.7c-1.1,0-1.9-0.9-1.9-1.9v-0.4
	C33.4,192.4,34.2,191.5,35.3,191.5z"/>
<path class="st18" d="M22,191.5h8.7c1.1,0,1.9,0.9,1.9,1.9v0.4c0,1.1-0.9,1.9-1.9,1.9H22c-1.1,0-1.9-0.9-1.9-1.9v-0.4
	C20.1,192.4,21,191.5,22,191.5z"/>
<path class="st18" d="M226.9,186.7h2.4c1.1,0,1.9,0.9,1.9,1.9v0.4c0,1.1-0.9,1.9-1.9,1.9h-2.4c-1.1,0-1.9-0.9-1.9-1.9v-0.4
	C225,187.5,225.9,186.7,226.9,186.7z"/>
<path class="st18" d="M213.7,186.7h8.7c1.1,0,1.9,0.9,1.9,1.9v0.4c0,1.1-0.9,1.9-1.9,1.9h-8.7c-1.1,0-1.9-0.9-1.9-1.9v-0.4
	C211.8,187.5,212.6,186.7,213.7,186.7z"/>
<path class="st18" d="M200.5,186.7h8.7c1.1,0,1.9,0.9,1.9,1.9v0.4c0,1.1-0.9,1.9-1.9,1.9h-8.7c-1.1,0-1.9-0.9-1.9-1.9v-0.4
	C198.6,187.5,199.4,186.7,200.5,186.7z"/>
<path class="st18" d="M187.2,186.7h8.7c1.1,0,1.9,0.9,1.9,1.9v0.4c0,1.1-0.9,1.9-1.9,1.9h-8.7c-1.1,0-1.9-0.9-1.9-1.9v-0.4
	C185.3,187.5,186.2,186.7,187.2,186.7z"/>
<path class="st18" d="M174,186.7h8.7c1.1,0,1.9,0.9,1.9,1.9v0.4c0,1.1-0.9,1.9-1.9,1.9H174c-1.1,0-1.9-0.9-1.9-1.9v-0.4
	C172.1,187.5,173,186.7,174,186.7z"/>
<path class="st18" d="M160.8,186.7h8.7c1.1,0,1.9,0.9,1.9,1.9v0.4c0,1.1-0.9,1.9-1.9,1.9h-8.7c-1.1,0-1.9-0.9-1.9-1.9v-0.4
	C158.9,187.5,159.8,186.7,160.8,186.7z"/>
<path class="st18" d="M147.6,186.7h8.7c1.1,0,1.9,0.9,1.9,1.9v0.4c0,1.1-0.9,1.9-1.9,1.9h-8.7c-1.1,0-1.9-0.9-1.9-1.9v-0.4
	C145.7,187.5,146.5,186.7,147.6,186.7z"/>
<path class="st18" d="M134.4,186.7h8.7c1.1,0,1.9,0.9,1.9,1.9v0.4c0,1.1-0.9,1.9-1.9,1.9h-8.7c-1.1,0-1.9-0.9-1.9-1.9v-0.4
	C132.5,187.5,133.3,186.7,134.4,186.7z"/>
<path class="st18" d="M121.1,186.7h8.7c1.1,0,1.9,0.9,1.9,1.9v0.4c0,1.1-0.9,1.9-1.9,1.9h-8.7c-1.1,0-1.9-0.9-1.9-1.9v-0.4
	C119.2,187.5,120,186.7,121.1,186.7z"/>
<path class="st18" d="M107.9,186.7h8.7c1.1,0,1.9,0.9,1.9,1.9v0.4c0,1.1-0.9,1.9-1.9,1.9h-8.7c-1.1,0-1.9-0.9-1.9-1.9v-0.4
	C105.9,187.5,106.8,186.7,107.9,186.7z"/>
<path class="st18" d="M94.6,186.7h8.7c1.1,0,1.9,0.9,1.9,1.9v0.4c0,1.1-0.9,1.9-1.9,1.9h-8.7c-1.1,0-1.9-0.9-1.9-1.9v-0.4
	C92.7,187.5,93.6,186.7,94.6,186.7z"/>
<path class="st18" d="M81.4,186.7h8.7c1.1,0,1.9,0.9,1.9,1.9v0.4c0,1.1-0.9,1.9-1.9,1.9h-8.7c-1.1,0-1.9-0.9-1.9-1.9v-0.4
	C79.5,187.5,80.4,186.7,81.4,186.7z"/>
<path class="st18" d="M68.2,186.7h8.7c1.1,0,1.9,0.9,1.9,1.9v0.4c0,1.1-0.9,1.9-1.9,1.9h-8.7c-1.1,0-1.9-0.9-1.9-1.9v-0.4
	C66.3,187.5,67.1,186.7,68.2,186.7z"/>
<path class="st18" d="M55,186.7h8.7c1.1,0,1.9,0.9,1.9,1.9v0.4c0,1.1-0.9,1.9-1.9,1.9H55c-1.1,0-1.9-0.9-1.9-1.9v-0.4
	C53.1,187.5,53.9,186.7,55,186.7z"/>
<path class="st18" d="M41.8,186.7h8.7c1.1,0,1.9,0.9,1.9,1.9v0.4c0,1.1-0.9,1.9-1.9,1.9h-8.7c-1.1,0-1.9-0.9-1.9-1.9v-0.4
	C39.8,187.5,40.7,186.7,41.8,186.7z"/>
<path class="st18" d="M28.5,186.7h8.7c1.1,0,1.9,0.9,1.9,1.9v0.4c0,1.1-0.9,1.9-1.9,1.9h-8.7c-1.1,0-1.9-0.9-1.9-1.9v-0.4
	C26.6,187.5,27.5,186.7,28.5,186.7z"/>
<path class="st18" d="M21.9,186.7h2.4c1.1,0,1.9,0.9,1.9,1.9v0.4c0,1.1-0.9,1.9-1.9,1.9h-2.4c-1.1,0-1.9-0.9-1.9-1.9v-0.4
	C20,187.5,20.8,186.7,21.9,186.7z"/>
<path class="st18" d="M220.4,181.8h8.7c1.1,0,1.9,0.9,1.9,1.9v0.4c0,1.1-0.9,1.9-1.9,1.9h-8.7c-1.1,0-1.9-0.9-1.9-1.9v-0.4
	C218.5,182.6,219.4,181.8,220.4,181.8z"/>
<path class="st18" d="M207.2,181.8h8.7c1.1,0,1.9,0.9,1.9,1.9v0.4c0,1.1-0.9,1.9-1.9,1.9h-8.7c-1.1,0-1.9-0.9-1.9-1.9v-0.4
	C205.3,182.6,206.1,181.8,207.2,181.8z"/>
<path class="st18" d="M194,181.8h8.7c1.1,0,1.9,0.9,1.9,1.9v0.4c0,1.1-0.9,1.9-1.9,1.9H194c-1.1,0-1.9-0.9-1.9-1.9v-0.4
	C192.1,182.6,192.9,181.8,194,181.8z"/>
<path class="st18" d="M180.8,181.8h8.7c1.1,0,1.9,0.9,1.9,1.9v0.4c0,1.1-0.9,1.9-1.9,1.9h-8.7c-1.1,0-1.9-0.9-1.9-1.9v-0.4
	C178.9,182.6,179.7,181.8,180.8,181.8z"/>
<path class="st18" d="M167.5,181.8h8.7c1.1,0,1.9,0.9,1.9,1.9v0.4c0,1.1-0.9,1.9-1.9,1.9h-8.7c-1.1,0-1.9-0.9-1.9-1.9v-0.4
	C165.6,182.6,166.5,181.8,167.5,181.8z"/>
<path class="st18" d="M154.3,181.8h8.7c1.1,0,1.9,0.9,1.9,1.9v0.4c0,1.1-0.9,1.9-1.9,1.9h-8.7c-1.1,0-1.9-0.9-1.9-1.9v-0.4
	C152.4,182.6,153.3,181.8,154.3,181.8z"/>
<path class="st18" d="M141.1,181.8h8.7c1.1,0,1.9,0.9,1.9,1.9v0.4c0,1.1-0.9,1.9-1.9,1.9h-8.7c-1.1,0-1.9-0.9-1.9-1.9v-0.4
	C139.2,182.6,140,181.8,141.1,181.8z"/>
<path class="st18" d="M127.9,181.8h8.7c1.1,0,1.9,0.9,1.9,1.9v0.4c0,1.1-0.9,1.9-1.9,1.9h-8.7c-1.1,0-1.9-0.9-1.9-1.9v-0.4
	C126,182.6,126.8,181.8,127.9,181.8z"/>
<path class="st18" d="M114.6,181.8h8.7c1.1,0,1.9,0.9,1.9,1.9v0.4c0,1.1-0.9,1.9-1.9,1.9h-8.7c-1.1,0-1.9-0.9-1.9-1.9v-0.4
	C112.7,182.6,113.5,181.8,114.6,181.8z"/>
<path class="st18" d="M101.4,181.8h8.7c1.1,0,1.9,0.9,1.9,1.9v0.4c0,1.1-0.9,1.9-1.9,1.9h-8.7c-1.1,0-1.9-0.9-1.9-1.9v-0.4
	C99.4,182.6,100.3,181.8,101.4,181.8z"/>
<path class="st18" d="M88.1,181.8h8.7c1.1,0,1.9,0.9,1.9,1.9v0.4c0,1.1-0.9,1.9-1.9,1.9h-8.7c-1.1,0-1.9-0.9-1.9-1.9v-0.4
	C86.2,182.6,87.1,181.8,88.1,181.8z"/>
<path class="st18" d="M74.9,181.8h8.7c1.1,0,1.9,0.9,1.9,1.9v0.4c0,1.1-0.9,1.9-1.9,1.9h-8.7c-1.1,0-1.9-0.9-1.9-1.9v-0.4
	C73,182.6,73.9,181.8,74.9,181.8z"/>
<path class="st18" d="M61.7,181.8h8.7c1.1,0,1.9,0.9,1.9,1.9v0.4c0,1.1-0.9,1.9-1.9,1.9h-8.7c-1.1,0-1.9-0.9-1.9-1.9v-0.4
	C59.8,182.6,60.7,181.8,61.7,181.8z"/>
<path class="st18" d="M48.5,181.8h8.7c1.1,0,1.9,0.9,1.9,1.9v0.4c0,1.1-0.9,1.9-1.9,1.9h-8.7c-1.1,0-1.9-0.9-1.9-1.9v-0.4
	C46.6,182.6,47.4,181.8,48.5,181.8z"/>
<path class="st18" d="M35.3,181.8H44c1.1,0,1.9,0.9,1.9,1.9v0.4c0,1.1-0.9,1.9-1.9,1.9h-8.7c-1.1,0-1.9-0.9-1.9-1.9v-0.4
	C33.4,182.6,34.2,181.8,35.3,181.8z"/>
<path class="st18" d="M22,181.8h8.7c1.1,0,1.9,0.9,1.9,1.9v0.4c0,1.1-0.9,1.9-1.9,1.9H22c-1.1,0-1.9-0.9-1.9-1.9v-0.4
	C20.1,182.6,21,181.8,22,181.8z"/>
<path class="st18" d="M226.9,176.9h2.4c1.1,0,1.9,0.9,1.9,1.9v0.4c0,1.1-0.9,1.9-1.9,1.9h-2.4c-1.1,0-1.9-0.9-1.9-1.9v-0.4
	C225,177.8,225.9,176.9,226.9,176.9z"/>
<path class="st18" d="M213.7,176.9h8.7c1.1,0,1.9,0.9,1.9,1.9v0.4c0,1.1-0.9,1.9-1.9,1.9h-8.7c-1.1,0-1.9-0.9-1.9-1.9v-0.4
	C211.8,177.8,212.6,176.9,213.7,176.9z"/>
<path class="st18" d="M200.5,176.9h8.7c1.1,0,1.9,0.9,1.9,1.9v0.4c0,1.1-0.9,1.9-1.9,1.9h-8.7c-1.1,0-1.9-0.9-1.9-1.9v-0.4
	C198.6,177.8,199.4,176.9,200.5,176.9z"/>
<path class="st18" d="M187.2,176.9h8.7c1.1,0,1.9,0.9,1.9,1.9v0.4c0,1.1-0.9,1.9-1.9,1.9h-8.7c-1.1,0-1.9-0.9-1.9-1.9v-0.4
	C185.3,177.8,186.2,176.9,187.2,176.9z"/>
<path class="st18" d="M174,176.9h8.7c1.1,0,1.9,0.9,1.9,1.9v0.4c0,1.1-0.9,1.9-1.9,1.9H174c-1.1,0-1.9-0.9-1.9-1.9v-0.4
	C172.1,177.8,173,176.9,174,176.9z"/>
<path class="st18" d="M160.8,176.9h8.7c1.1,0,1.9,0.9,1.9,1.9v0.4c0,1.1-0.9,1.9-1.9,1.9h-8.7c-1.1,0-1.9-0.9-1.9-1.9v-0.4
	C158.9,177.8,159.8,176.9,160.8,176.9z"/>
<path class="st18" d="M147.6,176.9h8.7c1.1,0,1.9,0.9,1.9,1.9v0.4c0,1.1-0.9,1.9-1.9,1.9h-8.7c-1.1,0-1.9-0.9-1.9-1.9v-0.4
	C145.7,177.8,146.5,176.9,147.6,176.9z"/>
<path class="st18" d="M134.4,176.9h8.7c1.1,0,1.9,0.9,1.9,1.9v0.4c0,1.1-0.9,1.9-1.9,1.9h-8.7c-1.1,0-1.9-0.9-1.9-1.9v-0.4
	C132.5,177.8,133.3,176.9,134.4,176.9z"/>
<path class="st18" d="M121.1,176.9h8.7c1.1,0,1.9,0.9,1.9,1.9v0.4c0,1.1-0.9,1.9-1.9,1.9h-8.7c-1.1,0-1.9-0.9-1.9-1.9v-0.4
	C119.2,177.8,120,176.9,121.1,176.9z"/>
<path class="st18" d="M107.9,176.9h8.7c1.1,0,1.9,0.9,1.9,1.9v0.4c0,1.1-0.9,1.9-1.9,1.9h-8.7c-1.1,0-1.9-0.9-1.9-1.9v-0.4
	C105.9,177.8,106.8,176.9,107.9,176.9z"/>
<path class="st18" d="M94.6,176.9h8.7c1.1,0,1.9,0.9,1.9,1.9v0.4c0,1.1-0.9,1.9-1.9,1.9h-8.7c-1.1,0-1.9-0.9-1.9-1.9v-0.4
	C92.7,177.8,93.6,176.9,94.6,176.9z"/>
<path class="st18" d="M81.4,176.9h8.7c1.1,0,1.9,0.9,1.9,1.9v0.4c0,1.1-0.9,1.9-1.9,1.9h-8.7c-1.1,0-1.9-0.9-1.9-1.9v-0.4
	C79.5,177.8,80.4,176.9,81.4,176.9z"/>
<path class="st18" d="M68.2,176.9h8.7c1.1,0,1.9,0.9,1.9,1.9v0.4c0,1.1-0.9,1.9-1.9,1.9h-8.7c-1.1,0-1.9-0.9-1.9-1.9v-0.4
	C66.3,177.8,67.1,176.9,68.2,176.9z"/>
<path class="st18" d="M55,176.9h8.7c1.1,0,1.9,0.9,1.9,1.9v0.4c0,1.1-0.9,1.9-1.9,1.9H55c-1.1,0-1.9-0.9-1.9-1.9v-0.4
	C53.1,177.8,53.9,176.9,55,176.9z"/>
<path class="st18" d="M41.8,176.9h8.7c1.1,0,1.9,0.9,1.9,1.9v0.4c0,1.1-0.9,1.9-1.9,1.9h-8.7c-1.1,0-1.9-0.9-1.9-1.9v-0.4
	C39.8,177.8,40.7,176.9,41.8,176.9z"/>
<path class="st18" d="M28.5,176.9h8.7c1.1,0,1.9,0.9,1.9,1.9v0.4c0,1.1-0.9,1.9-1.9,1.9h-8.7c-1.1,0-1.9-0.9-1.9-1.9v-0.4
	C26.6,177.8,27.5,176.9,28.5,176.9z"/>
<path class="st18" d="M21.9,176.9h2.4c1.1,0,1.9,0.9,1.9,1.9v0.4c0,1.1-0.9,1.9-1.9,1.9h-2.4c-1.1,0-1.9-0.9-1.9-1.9v-0.4
	C20,177.8,20.8,176.9,21.9,176.9z"/>
<path class="st18" d="M220.4,172.2h8.7c1.1,0,1.9,0.9,1.9,1.9v0.4c0,1.1-0.9,1.9-1.9,1.9h-8.7c-1.1,0-1.9-0.9-1.9-1.9v-0.4
	C218.5,173,219.4,172.2,220.4,172.2z"/>
<path class="st18" d="M207.2,172.2h8.7c1.1,0,1.9,0.9,1.9,1.9v0.4c0,1.1-0.9,1.9-1.9,1.9h-8.7c-1.1,0-1.9-0.9-1.9-1.9v-0.4
	C205.3,173,206.1,172.2,207.2,172.2z"/>
<path class="st18" d="M194,172.2h8.7c1.1,0,1.9,0.9,1.9,1.9v0.4c0,1.1-0.9,1.9-1.9,1.9H194c-1.1,0-1.9-0.9-1.9-1.9v-0.4
	C192.1,173,192.9,172.2,194,172.2z"/>
<path class="st18" d="M180.8,172.2h8.7c1.1,0,1.9,0.9,1.9,1.9v0.4c0,1.1-0.9,1.9-1.9,1.9h-8.7c-1.1,0-1.9-0.9-1.9-1.9v-0.4
	C178.9,173,179.7,172.2,180.8,172.2z"/>
<path class="st18" d="M167.5,172.2h8.7c1.1,0,1.9,0.9,1.9,1.9v0.4c0,1.1-0.9,1.9-1.9,1.9h-8.7c-1.1,0-1.9-0.9-1.9-1.9v-0.4
	C165.6,173,166.5,172.2,167.5,172.2z"/>
<path class="st18" d="M154.3,172.2h8.7c1.1,0,1.9,0.9,1.9,1.9v0.4c0,1.1-0.9,1.9-1.9,1.9h-8.7c-1.1,0-1.9-0.9-1.9-1.9v-0.4
	C152.4,173,153.3,172.2,154.3,172.2z"/>
<path class="st18" d="M141.1,172.2h8.7c1.1,0,1.9,0.9,1.9,1.9v0.4c0,1.1-0.9,1.9-1.9,1.9h-8.7c-1.1,0-1.9-0.9-1.9-1.9v-0.4
	C139.2,173,140,172.2,141.1,172.2z"/>
<path class="st18" d="M127.9,172.2h8.7c1.1,0,1.9,0.9,1.9,1.9v0.4c0,1.1-0.9,1.9-1.9,1.9h-8.7c-1.1,0-1.9-0.9-1.9-1.9v-0.4
	C126,173,126.8,172.2,127.9,172.2z"/>
<path class="st18" d="M114.6,172.2h8.7c1.1,0,1.9,0.9,1.9,1.9v0.4c0,1.1-0.9,1.9-1.9,1.9h-8.7c-1.1,0-1.9-0.9-1.9-1.9v-0.4
	C112.7,173,113.5,172.2,114.6,172.2z"/>
<path class="st18" d="M101.4,172.2h8.7c1.1,0,1.9,0.9,1.9,1.9v0.4c0,1.1-0.9,1.9-1.9,1.9h-8.7c-1.1,0-1.9-0.9-1.9-1.9v-0.4
	C99.4,173,100.3,172.2,101.4,172.2z"/>
<path class="st18" d="M88.1,172.2h8.7c1.1,0,1.9,0.9,1.9,1.9v0.4c0,1.1-0.9,1.9-1.9,1.9h-8.7c-1.1,0-1.9-0.9-1.9-1.9v-0.4
	C86.2,173,87.1,172.2,88.1,172.2z"/>
<path class="st18" d="M74.9,172.2h8.7c1.1,0,1.9,0.9,1.9,1.9v0.4c0,1.1-0.9,1.9-1.9,1.9h-8.7c-1.1,0-1.9-0.9-1.9-1.9v-0.4
	C73,173,73.9,172.2,74.9,172.2z"/>
<path class="st18" d="M61.7,172.2h8.7c1.1,0,1.9,0.9,1.9,1.9v0.4c0,1.1-0.9,1.9-1.9,1.9h-8.7c-1.1,0-1.9-0.9-1.9-1.9v-0.4
	C59.8,173,60.7,172.2,61.7,172.2z"/>
<path class="st18" d="M48.5,172.2h8.7c1.1,0,1.9,0.9,1.9,1.9v0.4c0,1.1-0.9,1.9-1.9,1.9h-8.7c-1.1,0-1.9-0.9-1.9-1.9v-0.4
	C46.6,173,47.4,172.2,48.5,172.2z"/>
<path class="st18" d="M35.3,172.2H44c1.1,0,1.9,0.9,1.9,1.9v0.4c0,1.1-0.9,1.9-1.9,1.9h-8.7c-1.1,0-1.9-0.9-1.9-1.9v-0.4
	C33.4,173,34.2,172.2,35.3,172.2z"/>
<path class="st18" d="M22,172.2h8.7c1.1,0,1.9,0.9,1.9,1.9v0.4c0,1.1-0.9,1.9-1.9,1.9H22c-1.1,0-1.9-0.9-1.9-1.9v-0.4
	C20.1,173,21,172.2,22,172.2z"/>
<path class="st18" d="M226.9,167.3h2.4c1.1,0,1.9,0.9,1.9,1.9v0.4c0,1.1-0.9,1.9-1.9,1.9h-2.4c-1.1,0-1.9-0.9-1.9-1.9v-0.4
	C225,168.2,225.9,167.3,226.9,167.3z"/>
<path class="st18" d="M213.7,167.3h8.7c1.1,0,1.9,0.9,1.9,1.9v0.4c0,1.1-0.9,1.9-1.9,1.9h-8.7c-1.1,0-1.9-0.9-1.9-1.9v-0.4
	C211.8,168.2,212.6,167.3,213.7,167.3z"/>
<path class="st18" d="M200.5,167.3h8.7c1.1,0,1.9,0.9,1.9,1.9v0.4c0,1.1-0.9,1.9-1.9,1.9h-8.7c-1.1,0-1.9-0.9-1.9-1.9v-0.4
	C198.6,168.2,199.4,167.3,200.5,167.3z"/>
<path class="st18" d="M187.2,167.3h8.7c1.1,0,1.9,0.9,1.9,1.9v0.4c0,1.1-0.9,1.9-1.9,1.9h-8.7c-1.1,0-1.9-0.9-1.9-1.9v-0.4
	C185.3,168.2,186.2,167.3,187.2,167.3z"/>
<path class="st18" d="M174,167.3h8.7c1.1,0,1.9,0.9,1.9,1.9v0.4c0,1.1-0.9,1.9-1.9,1.9H174c-1.1,0-1.9-0.9-1.9-1.9v-0.4
	C172.1,168.2,173,167.3,174,167.3z"/>
<path class="st18" d="M160.8,167.3h8.7c1.1,0,1.9,0.9,1.9,1.9v0.4c0,1.1-0.9,1.9-1.9,1.9h-8.7c-1.1,0-1.9-0.9-1.9-1.9v-0.4
	C158.9,168.2,159.8,167.3,160.8,167.3z"/>
<path class="st18" d="M147.6,167.3h8.7c1.1,0,1.9,0.9,1.9,1.9v0.4c0,1.1-0.9,1.9-1.9,1.9h-8.7c-1.1,0-1.9-0.9-1.9-1.9v-0.4
	C145.7,168.2,146.5,167.3,147.6,167.3z"/>
<path class="st18" d="M134.4,167.3h8.7c1.1,0,1.9,0.9,1.9,1.9v0.4c0,1.1-0.9,1.9-1.9,1.9h-8.7c-1.1,0-1.9-0.9-1.9-1.9v-0.4
	C132.5,168.2,133.3,167.3,134.4,167.3z"/>
<path class="st18" d="M121.1,167.3h8.7c1.1,0,1.9,0.9,1.9,1.9v0.4c0,1.1-0.9,1.9-1.9,1.9h-8.7c-1.1,0-1.9-0.9-1.9-1.9v-0.4
	C119.2,168.2,120,167.3,121.1,167.3z"/>
<path class="st18" d="M107.9,167.3h8.7c1.1,0,1.9,0.9,1.9,1.9v0.4c0,1.1-0.9,1.9-1.9,1.9h-8.7c-1.1,0-1.9-0.9-1.9-1.9v-0.4
	C105.9,168.2,106.8,167.3,107.9,167.3z"/>
<path class="st18" d="M94.6,167.3h8.7c1.1,0,1.9,0.9,1.9,1.9v0.4c0,1.1-0.9,1.9-1.9,1.9h-8.7c-1.1,0-1.9-0.9-1.9-1.9v-0.4
	C92.7,168.2,93.6,167.3,94.6,167.3z"/>
<path class="st18" d="M81.4,167.3h8.7c1.1,0,1.9,0.9,1.9,1.9v0.4c0,1.1-0.9,1.9-1.9,1.9h-8.7c-1.1,0-1.9-0.9-1.9-1.9v-0.4
	C79.5,168.2,80.4,167.3,81.4,167.3z"/>
<path class="st18" d="M68.2,167.3h8.7c1.1,0,1.9,0.9,1.9,1.9v0.4c0,1.1-0.9,1.9-1.9,1.9h-8.7c-1.1,0-1.9-0.9-1.9-1.9v-0.4
	C66.3,168.2,67.1,167.3,68.2,167.3z"/>
<path class="st18" d="M55,167.3h8.7c1.1,0,1.9,0.9,1.9,1.9v0.4c0,1.1-0.9,1.9-1.9,1.9H55c-1.1,0-1.9-0.9-1.9-1.9v-0.4
	C53.1,168.2,53.9,167.3,55,167.3z"/>
<path class="st18" d="M41.8,167.3h8.7c1.1,0,1.9,0.9,1.9,1.9v0.4c0,1.1-0.9,1.9-1.9,1.9h-8.7c-1.1,0-1.9-0.9-1.9-1.9v-0.4
	C39.8,168.2,40.7,167.3,41.8,167.3z"/>
<path class="st18" d="M28.5,167.3h8.7c1.1,0,1.9,0.9,1.9,1.9v0.4c0,1.1-0.9,1.9-1.9,1.9h-8.7c-1.1,0-1.9-0.9-1.9-1.9v-0.4
	C26.6,168.2,27.5,167.3,28.5,167.3z"/>
<path class="st18" d="M21.9,167.3h2.4c1.1,0,1.9,0.9,1.9,1.9v0.4c0,1.1-0.9,1.9-1.9,1.9h-2.4c-1.1,0-1.9-0.9-1.9-1.9v-0.4
	C20,168.2,20.8,167.3,21.9,167.3z"/>
<path class="st18" d="M220.4,162.4h8.7c1.1,0,1.9,0.9,1.9,1.9v0.4c0,1.1-0.9,1.9-1.9,1.9h-8.7c-1.1,0-1.9-0.9-1.9-1.9v-0.4
	C218.5,163.3,219.4,162.4,220.4,162.4z"/>
<path class="st18" d="M207.2,162.4h8.7c1.1,0,1.9,0.9,1.9,1.9v0.4c0,1.1-0.9,1.9-1.9,1.9h-8.7c-1.1,0-1.9-0.9-1.9-1.9v-0.4
	C205.3,163.3,206.1,162.4,207.2,162.4z"/>
<path class="st18" d="M194,162.4h8.7c1.1,0,1.9,0.9,1.9,1.9v0.4c0,1.1-0.9,1.9-1.9,1.9H194c-1.1,0-1.9-0.9-1.9-1.9v-0.4
	C192.1,163.3,192.9,162.4,194,162.4z"/>
<path class="st18" d="M180.8,162.4h8.7c1.1,0,1.9,0.9,1.9,1.9v0.4c0,1.1-0.9,1.9-1.9,1.9h-8.7c-1.1,0-1.9-0.9-1.9-1.9v-0.4
	C178.9,163.3,179.7,162.4,180.8,162.4z"/>
<path class="st18" d="M167.5,162.4h8.7c1.1,0,1.9,0.9,1.9,1.9v0.4c0,1.1-0.9,1.9-1.9,1.9h-8.7c-1.1,0-1.9-0.9-1.9-1.9v-0.4
	C165.6,163.3,166.5,162.4,167.5,162.4z"/>
<path class="st18" d="M154.3,162.4h8.7c1.1,0,1.9,0.9,1.9,1.9v0.4c0,1.1-0.9,1.9-1.9,1.9h-8.7c-1.1,0-1.9-0.9-1.9-1.9v-0.4
	C152.4,163.3,153.3,162.4,154.3,162.4z"/>
<path class="st18" d="M141.1,162.4h8.7c1.1,0,1.9,0.9,1.9,1.9v0.4c0,1.1-0.9,1.9-1.9,1.9h-8.7c-1.1,0-1.9-0.9-1.9-1.9v-0.4
	C139.2,163.3,140,162.4,141.1,162.4z"/>
<path class="st18" d="M127.9,162.4h8.7c1.1,0,1.9,0.9,1.9,1.9v0.4c0,1.1-0.9,1.9-1.9,1.9h-8.7c-1.1,0-1.9-0.9-1.9-1.9v-0.4
	C126,163.3,126.8,162.4,127.9,162.4z"/>
<path class="st18" d="M114.6,162.4h8.7c1.1,0,1.9,0.9,1.9,1.9v0.4c0,1.1-0.9,1.9-1.9,1.9h-8.7c-1.1,0-1.9-0.9-1.9-1.9v-0.4
	C112.7,163.3,113.5,162.4,114.6,162.4z"/>
<path class="st18" d="M101.4,162.4h8.7c1.1,0,1.9,0.9,1.9,1.9v0.4c0,1.1-0.9,1.9-1.9,1.9h-8.7c-1.1,0-1.9-0.9-1.9-1.9v-0.4
	C99.4,163.3,100.3,162.4,101.4,162.4z"/>
<path class="st18" d="M88.1,162.4h8.7c1.1,0,1.9,0.9,1.9,1.9v0.4c0,1.1-0.9,1.9-1.9,1.9h-8.7c-1.1,0-1.9-0.9-1.9-1.9v-0.4
	C86.2,163.3,87.1,162.4,88.1,162.4z"/>
<path class="st18" d="M74.9,162.4h8.7c1.1,0,1.9,0.9,1.9,1.9v0.4c0,1.1-0.9,1.9-1.9,1.9h-8.7c-1.1,0-1.9-0.9-1.9-1.9v-0.4
	C73,163.3,73.9,162.4,74.9,162.4z"/>
<path class="st18" d="M61.7,162.4h8.7c1.1,0,1.9,0.9,1.9,1.9v0.4c0,1.1-0.9,1.9-1.9,1.9h-8.7c-1.1,0-1.9-0.9-1.9-1.9v-0.4
	C59.8,163.3,60.7,162.4,61.7,162.4z"/>
<path class="st18" d="M48.5,162.4h8.7c1.1,0,1.9,0.9,1.9,1.9v0.4c0,1.1-0.9,1.9-1.9,1.9h-8.7c-1.1,0-1.9-0.9-1.9-1.9v-0.4
	C46.6,163.3,47.4,162.4,48.5,162.4z"/>
<path class="st18" d="M35.3,162.4H44c1.1,0,1.9,0.9,1.9,1.9v0.4c0,1.1-0.9,1.9-1.9,1.9h-8.7c-1.1,0-1.9-0.9-1.9-1.9v-0.4
	C33.4,163.3,34.2,162.4,35.3,162.4z"/>
<path class="st18" d="M22,162.4h8.7c1.1,0,1.9,0.9,1.9,1.9v0.4c0,1.1-0.9,1.9-1.9,1.9H22c-1.1,0-1.9-0.9-1.9-1.9v-0.4
	C20.1,163.3,21,162.4,22,162.4z"/>
<path class="st18" d="M226.9,157.6h2.4c1.1,0,1.9,0.9,1.9,1.9v0.4c0,1.1-0.9,1.9-1.9,1.9h-2.4c-1.1,0-1.9-0.9-1.9-1.9v-0.4
	C225,158.5,225.9,157.6,226.9,157.6z"/>
<path class="st18" d="M213.7,157.6h8.7c1.1,0,1.9,0.9,1.9,1.9v0.4c0,1.1-0.9,1.9-1.9,1.9h-8.7c-1.1,0-1.9-0.9-1.9-1.9v-0.4
	C211.8,158.5,212.6,157.6,213.7,157.6z"/>
<path class="st18" d="M200.5,157.6h8.7c1.1,0,1.9,0.9,1.9,1.9v0.4c0,1.1-0.9,1.9-1.9,1.9h-8.7c-1.1,0-1.9-0.9-1.9-1.9v-0.4
	C198.6,158.5,199.4,157.6,200.5,157.6z"/>
<path class="st18" d="M187.2,157.6h8.7c1.1,0,1.9,0.9,1.9,1.9v0.4c0,1.1-0.9,1.9-1.9,1.9h-8.7c-1.1,0-1.9-0.9-1.9-1.9v-0.4
	C185.3,158.5,186.2,157.6,187.2,157.6z"/>
<path class="st18" d="M174,157.6h8.7c1.1,0,1.9,0.9,1.9,1.9v0.4c0,1.1-0.9,1.9-1.9,1.9H174c-1.1,0-1.9-0.9-1.9-1.9v-0.4
	C172.1,158.5,173,157.6,174,157.6z"/>
<path class="st18" d="M160.8,157.6h8.7c1.1,0,1.9,0.9,1.9,1.9v0.4c0,1.1-0.9,1.9-1.9,1.9h-8.7c-1.1,0-1.9-0.9-1.9-1.9v-0.4
	C158.9,158.5,159.8,157.6,160.8,157.6z"/>
<path class="st18" d="M147.6,157.6h8.7c1.1,0,1.9,0.9,1.9,1.9v0.4c0,1.1-0.9,1.9-1.9,1.9h-8.7c-1.1,0-1.9-0.9-1.9-1.9v-0.4
	C145.7,158.5,146.5,157.6,147.6,157.6z"/>
<path class="st18" d="M134.4,157.6h8.7c1.1,0,1.9,0.9,1.9,1.9v0.4c0,1.1-0.9,1.9-1.9,1.9h-8.7c-1.1,0-1.9-0.9-1.9-1.9v-0.4
	C132.5,158.5,133.3,157.6,134.4,157.6z"/>
<path class="st18" d="M121.1,157.6h8.7c1.1,0,1.9,0.9,1.9,1.9v0.4c0,1.1-0.9,1.9-1.9,1.9h-8.7c-1.1,0-1.9-0.9-1.9-1.9v-0.4
	C119.2,158.5,120,157.6,121.1,157.6z"/>
<path class="st20" d="M235.4,196H14.6c-0.1,0-0.2-0.1-0.2-0.2c0,0,0,0,0,0l0,0c0-0.1,0.1-0.2,0.2-0.2h220.8c0.1,0,0.2,0.1,0.2,0.2
	l0,0C235.7,195.9,235.6,196,235.4,196C235.4,196,235.4,196,235.4,196z"/>
</svg>
