<?xml version="1.0" encoding="utf-8"?>
<!-- Generator: Adobe Illustrator 27.0.1, SVG Export Plug-In . SVG Version: 6.00 Build 0)  -->
<svg version="1.1" id="Layer_1" xmlns="http://www.w3.org/2000/svg" xmlns:xlink="http://www.w3.org/1999/xlink" x="0px" y="0px"
	 viewBox="0 0 250 250" style="enable-background:new 0 0 250 250;" xml:space="preserve">
<style type="text/css">
	.st0{fill:#FDF4F8;enable-background:new    ;}
	.st1{fill:#3B0F37;}
	.st2{fill:#F5F5F5;}
	.st3{fill:#E1E1E1;}
	.st4{fill:#FAFAFA;}
	.st5{fill:#1A2E35;}
	.st6{fill:#FFFFFF;}
	.st7{fill:#375A64;}
	.st8{fill:#FF4F5B;}
	.st9{opacity:0.3;fill:#FFFFFF;enable-background:new    ;}
	.st10{opacity:0.3;enable-background:new    ;}
	.st11{fill:#CD7250;}
	.st12{fill:#AE4F32;}
	.st13{opacity:0.2;}
</style>
<path class="st0" d="M5.2,195.6c-18-33.4,17.3-34.7,8.6-68.1C-4.3,58.3,94.7,31,123.1,76c14.6,23.2,41.9,28.6,50.5,23
	c20-13.1,55.5,0,64.9,24c14.5,36.8-15.2,72.6-15.2,72.6L5.2,195.6z"/>
<path class="st1" d="M0.5,195h249c0.3,0,0.5,0.2,0.5,0.5v0c0,0.3-0.2,0.5-0.5,0.5H0.5c-0.3,0-0.5-0.2-0.5-0.5v0
	C0,195.2,0.2,195,0.5,195z"/>
<path class="st2" d="M10,72.6v17.2c0,3.1,2.6,5.5,5.6,5.5h61.7c3.1,0,5.6-2.5,5.6-5.6V75.1l7.7-8.1l-75-0.2
	C12.5,66.9,9.9,69.4,10,72.6C10,72.6,10,72.6,10,72.6z"/>
<polygon class="st3" points="73.8,77.2 17.9,77 17.9,75.3 73.8,75.5 "/>
<polygon class="st3" points="73.8,82.9 17.9,82.6 17.9,80.9 73.8,81.2 "/>
<rect x="61.9" y="76.4" transform="matrix(4.886881e-03 -1 1 4.886881e-03 -25.0547 149.8073)" class="st3" width="1.7" height="22.1"/>
<path class="st2" d="M53.4,180.7c8.6-6,10.6-17.2,10.2-27.2c0-1.7,0.1-3.4-0.7-4.9s-2.7-2.5-4.2-1.8c-1.2,0.6-1.8,2-2.5,3.2
	c-0.9,1.6-2.3,2.9-3.9,3.8c-1,0.7-2.3,0.8-3.4,0.3c-1.5-0.8-1.6-2.8-1.6-4.5l0.1-9.3c0.1-1.7-0.1-3.4-0.5-5
	c-0.4-1.6-1.7-2.9-3.2-3.5c-1.7-0.5-3.4,0.5-3.9,2.1c0,0.7,0,1.4,0,2.1c0,0.7-0.4,1.4-1,1.7c-0.7,0.1-1.4-0.2-1.8-0.8
	c-1.7-1.8-3-3.8-4-6c-1-2.2-2.2-4.3-3.7-6.2c-1.5-1.9-3.7-3.2-6.1-3.4c-2.5-0.2-4.8,1.3-5.5,3.7c-0.6,2.3,0.8,4.7,2.3,6.6
	c2.2,2.8,4.8,5.3,7.8,7.4c0.6,0.3,1,0.8,1.3,1.4c0.4,1.1-0.7,2.2-1.8,2.6c-1.3,0.3-2.6,0.4-3.9,0.4c-1.4,0-2.6,0.8-3.2,2
	c-0.7,1.7,0.8,3.5,2.1,4.7c2.8,2.3,6,4.2,9.4,5.4c1.3,0.3,2.5,0.9,3.5,1.7c1.1,0.8,1.5,2.3,1,3.5c-0.7,1.2-2.2,1.7-3.5,1.3
	c-1.3-0.4-2.5-0.8-3.7-1.4c-2.3-0.9-5.2-0.7-6.7,1.3c-0.9,1.4-1.1,3.1-0.6,4.7c0.6,1.5,1.4,2.9,2.5,4.1c3.6,4.4,8.4,7.7,13.7,9.6
	C43.2,182.1,48.2,182.6,53.4,180.7"/>
<path class="st3" d="M53.6,188.1c-0.5-4.7-1.4-9.3-2.7-13.8c-1.7-5.5-3.6-10.8-5.9-16.1l-1.8-4.1c-0.6-1.4-1.2-2.7-1.8-4
	c-1.2-2.5-2.6-4.9-4.2-7.2c-1.4-2.2-2.9-4.2-4.2-6.2s-2.7-3.6-3.9-5.2c-2-2.4-4.1-4.7-6.5-6.8c-0.8-0.7-1.5-1.3-1.9-1.7l-0.5-0.4
	l-0.2-0.1c0,0.1,0.1,0.1,0.2,0.2l0.5,0.4c0.4,0.4,1.1,1,1.9,1.7c2.3,2.1,4.4,4.4,6.4,6.9c1.2,1.6,2.5,3.3,3.9,5.2
	c1.4,1.9,2.8,4,4.2,6.2c1.5,2.3,2.9,4.7,4.1,7.1c0.6,1.3,1.2,2.6,1.8,4l1.8,4.1c2.3,5.2,4.3,10.6,5.9,16.1c1.4,4.5,2.3,9.1,2.8,13.7
	"/>
<path class="st3" d="M41.2,150.2c0.1-0.2,0.1-0.5,0.2-0.7c0.1-0.5,0.2-1.1,0.3-2c0.2-1.7,0.5-4,0.7-6.5s0.5-4.8,0.8-6.5
	c0.1-0.8,0.2-1.5,0.3-1.9c0.1-0.2,0.1-0.5,0.1-0.7c-0.1,0.2-0.2,0.5-0.2,0.7c-0.1,0.5-0.3,1.1-0.4,1.9c-0.3,1.6-0.6,4-0.9,6.5
	s-0.5,4.8-0.7,6.5c-0.1,0.8-0.2,1.4-0.2,2C41.2,149.7,41.2,149.9,41.2,150.2z"/>
<path class="st3" d="M19.8,146.1c0.3,0.1,0.6,0.1,0.9,0.1c0.5,0.1,1.4,0.1,2.3,0.2c2,0.2,4.7,0.6,7.6,1.2s5.6,1.2,7.5,1.7
	c1,0.2,1.7,0.5,2.3,0.6c0.3,0.1,0.6,0.2,0.8,0.2c-0.3-0.1-0.5-0.2-0.8-0.3c-0.5-0.2-1.3-0.4-2.2-0.7c-1.9-0.6-4.6-1.2-7.5-1.8
	c-2.5-0.5-5.1-0.8-7.7-1.1c-1-0.1-1.8-0.1-2.3-0.1C20.4,146.1,20.1,146.1,19.8,146.1z"/>
<path class="st3" d="M50.6,174c0.1-0.1,0.1-0.2,0.2-0.3l0.4-0.8c0.3-0.7,0.8-1.7,1.3-2.9c1-2.5,2.4-5.9,3.8-9.7s2.7-7.3,3.7-9.7
	c0.5-1.2,0.9-2.2,1.2-2.9c0.1-0.3,0.2-0.6,0.3-0.8c0-0.1,0.1-0.2,0.1-0.3c-0.1,0.1-0.1,0.2-0.2,0.3l-0.4,0.8
	c-0.3,0.7-0.8,1.7-1.3,2.9c-1,2.5-2.3,5.9-3.8,9.7s-2.7,7.3-3.7,9.7l-1.2,2.9l-0.3,0.8C50.6,173.8,50.6,173.9,50.6,174z"/>
<path class="st3" d="M22.1,164.8l0.3,0.1l0.8,0.3l3.1,1c2.6,0.8,6.1,2,10,3.4s7.5,2.5,10.1,3.3c1.3,0.4,2.3,0.7,3.1,0.9l0.8,0.2
	c0.1,0,0.2,0.1,0.3,0.1c-0.1-0.1-0.2-0.1-0.3-0.1l-0.8-0.3l-3-1c-2.6-0.8-6.1-2-10-3.4s-7.5-2.5-10.1-3.3c-1.3-0.4-2.4-0.7-3.1-0.9
	l-0.9-0.2C22.3,164.8,22.2,164.8,22.1,164.8z"/>
<path class="st3" d="M203.4,67.4v13.3c0,2.4-1.9,4.4-4.3,4.4c0,0,0,0,0,0h-47.8c-2.4,0-4.4-2-4.4-4.4V69.4l-5.9-6.2l58.1-0.2
	C201.5,63,203.4,65,203.4,67.4z"/>
<polygon class="st4" points="154,71.1 197.3,70.9 197.3,69.5 154,69.7 "/>
<polygon class="st4" points="154,75.5 197.3,75.3 197.3,73.9 154,74.1 "/>
<rect x="154" y="78.4" transform="matrix(1 -4.886902e-03 4.886902e-03 1 -0.3842 0.7953)" class="st4" width="17.1" height="1.3"/>
<path class="st5" d="M49.9,184.4v-77.5c0-6.4,5.2-11.6,11.6-11.6h121.3c6.4,0,11.6,5.2,11.6,11.6v77.5c0,6.4-5.2,11.5-11.6,11.5
	H61.5C55.1,196,49.9,190.8,49.9,184.4z"/>
<rect x="59.8" y="98.5" class="st6" width="120.6" height="94.3"/>
<circle class="st7" cx="187.1" cy="145.7" r="3.9"/>
<path class="st7" d="M54.1,160v-28.7c0-0.4,0.4-0.8,0.8-0.8l0,0c0.4,0,0.8,0.4,0.8,0.8V160c0,0.4-0.4,0.8-0.8,0.8l0,0
	C54.4,160.8,54.1,160.5,54.1,160z"/>
<ellipse transform="matrix(0.5498 -0.8353 0.8353 0.5498 -85.3712 138.5945)" class="st8" cx="85.9" cy="148.5" rx="9.7" ry="9.7"/>
<ellipse transform="matrix(0.5498 -0.8353 0.8353 0.5498 -85.3712 138.5945)" class="st9" cx="85.9" cy="148.5" rx="9.7" ry="9.7"/>
<path class="st5" d="M82.5,146c0.4,0,0.7,0.4,0.7,0.9s-0.2,1-0.6,1s-0.7-0.4-0.8-0.9S82.2,146.1,82.5,146z"/>
<path class="st5" d="M88.7,145.9c-0.4,0-0.7,0.4-0.7,0.9s0.3,1,0.6,1s0.7-0.4,0.7-0.9S89.1,145.9,88.7,145.9z"/>
<path class="st5" d="M89.8,150.4c-1.3,0.2-2.7,0.3-4,0.2c-1.4,0.1-2.7,0-4.1-0.2c1.3-0.2,2.7-0.3,4.1-0.2
	C87.1,150.2,88.4,150.2,89.8,150.4z"/>
<path class="st5" d="M83.3,144.9c0,0.1-0.5,0.1-1,0.2s-1,0.2-1,0.1s0.3-0.4,1-0.5S83.3,144.8,83.3,144.9z"/>
<path class="st5" d="M90.5,145.4c-0.1,0.1-0.5-0.1-1-0.3s-1-0.2-1-0.4s0.5-0.2,1.2,0S90.5,145.3,90.5,145.4z"/>
<circle class="st8" cx="156.4" cy="147.7" r="10.1"/>
<circle class="st10" cx="156.4" cy="147.7" r="10.1"/>
<path class="st5" d="M152.9,145.1c0.4,0,0.7,0.4,0.8,1s-0.2,1-0.6,1s-0.7-0.4-0.8-0.9S152.6,145.2,152.9,145.1z"/>
<path class="st5" d="M159.4,145c-0.4,0-0.7,0.4-0.7,1s0.3,1,0.7,1s0.7-0.4,0.7-1S159.7,145,159.4,145z"/>
<path class="st5" d="M160.5,149.7c-0.4-0.2-0.8-0.4-1.2-0.6c-0.9-0.5-2-0.7-3-0.8c-1,0.1-2.1,0.3-3,0.8c-0.4,0.2-0.8,0.4-1.2,0.6
	c0.3-0.3,0.7-0.6,1.1-0.8c0.9-0.6,2-0.9,3.1-0.9c1.1,0,2.2,0.3,3.2,0.9C160.1,149.3,160.5,149.6,160.5,149.7z"/>
<path class="st5" d="M153.7,144c0,0.1,0,0.2-0.2,0.3c-0.2,0.2-0.5,0.3-0.8,0.4c-0.3,0.1-0.6,0-0.9-0.1c-0.2-0.1-0.3-0.2-0.3-0.2
	s0.5,0.1,1.1-0.1S153.6,143.9,153.7,144z"/>
<path class="st5" d="M161.2,144.5c0,0.1-0.1,0.1-0.3,0.2c-0.3,0.1-0.6,0.1-0.9,0c-0.3-0.1-0.5-0.3-0.8-0.5c-0.1-0.2-0.2-0.3-0.2-0.3
	s0.5,0.3,1,0.4S161.1,144.4,161.2,144.5z"/>
<polygon class="st3" points="137.1,175.7 139.4,174.6 141.7,175.8 141.3,173.2 143.2,171.5 140.6,171 139.6,168.7 138.3,171 
	135.7,171.3 137.6,173.2 "/>
<polygon class="st8" points="127.5,175.7 129.9,174.6 132.1,175.8 131.8,173.2 133.7,171.5 131.1,171 130,168.7 128.8,171 
	126.2,171.3 128,173.2 "/>
<polygon class="st8" points="118,175.7 120.3,174.6 122.6,175.8 122.2,173.2 124.1,171.5 121.6,171 120.4,168.7 119.2,171 
	116.7,171.3 118.5,173.2 "/>
<polygon class="st8" points="108.4,175.7 110.8,174.6 113.1,175.8 112.7,173.2 114.6,171.5 112,171 110.9,168.7 109.7,171 
	107.1,171.3 108.9,173.2 "/>
<polygon class="st8" points="98.9,175.7 101.2,174.6 103.5,175.8 103.1,173.2 105,171.5 102.5,171 101.4,168.7 100.2,171 
	97.6,171.3 99.4,173.2 "/>
<path class="st5" d="M143.3,118.3c0,0-10.5,0.1-23.4,0.1s-23.4-0.1-23.4-0.1s10.5-0.1,23.4-0.1S143.3,118.2,143.3,118.3z"/>
<path class="st5" d="M131.8,115.5c0,0.1-5.2,0.1-11.6,0.1s-11.6,0-11.6-0.1s5.2-0.1,11.6-0.1S131.8,115.4,131.8,115.5z"/>
<circle class="st8" cx="121.9" cy="145.4" r="13.3"/>
<path class="st5" d="M117.3,142c0.5,0,1,0.5,1,1.2s-0.3,1.4-0.8,1.4s-1-0.5-1-1.2S116.8,142.1,117.3,142z"/>
<path class="st5" d="M125.8,141.8c-0.5,0-0.9,0.6-1,1.3s0.4,1.3,0.9,1.4s0.9-0.6,1-1.3S126.3,141.9,125.8,141.8z"/>
<path class="st5" d="M127.3,146.2c0,0-0.1,0.2-0.3,0.4c-0.3,0.3-0.6,0.6-1,0.9c-0.5,0.4-1.1,0.8-1.8,1c-0.8,0.3-1.6,0.4-2.4,0.4
	c-0.8-0.1-1.6-0.2-2.4-0.6c-0.6-0.2-1.2-0.6-1.8-0.9c-0.5-0.3-1-0.7-1.4-1.2c0.5,0.3,1.1,0.6,1.6,0.9c0.6,0.3,1.2,0.6,1.8,0.8
	c0.7,0.3,1.5,0.4,2.3,0.5c0.8,0,1.6-0.1,2.3-0.3c0.6-0.2,1.2-0.5,1.7-0.8c0.3-0.2,0.7-0.5,1-0.8
	C127.1,146.3,127.2,146.2,127.3,146.2z"/>
<path class="st5" d="M118,139c0,0.1-0.7,0.1-1.4,0.2s-1.3,0.4-1.4,0.2s0.5-0.5,1.3-0.7S118,138.9,118,139z"/>
<path class="st5" d="M128.7,139.6c-0.1,0.1-0.6-0.2-1.4-0.5s-1.4-0.3-1.4-0.4s0.7-0.3,1.5,0S128.7,139.6,128.7,139.6z"/>
<path class="st5" d="M116.4,145.2c0.1,0,0.1,0.1,0.2,0.4c0,0.3-0.1,0.6-0.3,0.9c-0.2,0.3-0.5,0.5-0.8,0.6c-0.2,0.1-0.4,0-0.4,0
	s0.5-0.3,0.8-0.8S116.3,145.3,116.4,145.2z"/>
<path class="st5" d="M128.4,146.5c0,0.1-0.1,0.1-0.3,0.1c-0.6,0-1-0.4-1.2-0.9c0-0.2,0-0.3,0-0.3s0.2,0.4,0.6,0.7
	S128.4,146.4,128.4,146.5z"/>
<path class="st8" d="M138.2,145.2c0-0.1,0-0.2,0-0.3l-0.1-0.8v-0.6c0-0.2-0.1-0.4-0.1-0.7l-0.1-0.8c-0.1-0.3-0.1-0.6-0.2-0.9
	c-0.4-1.5-1-3-1.8-4.4c-1.1-1.8-2.5-3.4-4.2-4.7l-0.7-0.5c-0.2-0.2-0.5-0.3-0.8-0.5s-0.5-0.3-0.8-0.5l-0.9-0.4l-0.4-0.2l-0.5-0.2
	l-0.9-0.3c-0.3-0.1-0.6-0.2-1-0.3c-0.3-0.1-0.7-0.2-1-0.2c-0.7-0.1-1.4-0.2-2.1-0.2c-0.3,0-0.7,0-1.1,0l-1.1,0.1h-0.6l-0.5,0.1
	c-0.4,0.1-0.7,0.1-1.1,0.2c-0.7,0.2-1.5,0.4-2.2,0.6c-0.7,0.3-1.4,0.6-2.1,0.9c-0.3,0.2-0.7,0.4-1,0.6c-0.2,0.1-0.3,0.2-0.5,0.3
	l-0.5,0.4c-0.7,0.5-1.3,1-1.9,1.6l-0.8,0.9l-0.2,0.2l-0.2,0.2l-0.4,0.5l-0.4,0.5l-0.3,0.5l-0.3,0.6l-0.2,0.3l-0.1,0.3
	c-0.2,0.4-0.4,0.8-0.6,1.1l-0.4,1.2c-1.1,3.4-1.1,7,0,10.4c0.2,0.4,0.3,0.8,0.4,1.2l0.6,1.2l0.1,0.3l0.2,0.3l0.3,0.6l0.3,0.5
	l0.4,0.5l0.4,0.5l0.2,0.2l0.2,0.2l0.8,0.9c0.6,0.6,1.2,1.1,1.9,1.6l0.5,0.4c0.2,0.1,0.3,0.2,0.5,0.3c0.3,0.2,0.7,0.4,1,0.6
	c0.7,0.4,1.4,0.7,2.2,0.9c0.7,0.3,1.4,0.5,2.2,0.6c0.4,0.1,0.7,0.1,1.1,0.2l0.5,0.1h0.6l1.1,0.1c0.4,0,0.7,0,1.1,0
	c0.7,0,1.4-0.1,2.1-0.2c0.3-0.1,0.7-0.1,1-0.2c0.3-0.1,0.7-0.1,1-0.3l0.9-0.3l0.5-0.2l0.4-0.2l0.9-0.4c0.3-0.1,0.5-0.3,0.8-0.5
	s0.5-0.3,0.8-0.5l0.7-0.5c1.7-1.3,3.1-2.9,4.2-4.7c0.8-1.4,1.4-2.8,1.8-4.4c0.1-0.3,0.2-0.6,0.2-0.9c0-0.3,0.1-0.6,0.1-0.8
	s0.1-0.5,0.1-0.7v-0.6l0.1-0.8C138.2,145.4,138.2,145.4,138.2,145.2c0,0,0,0.1,0,0.3v0.8v0.6c0,0.2-0.1,0.4-0.1,0.7l-0.1,0.8
	c0,0.3-0.1,0.6-0.2,0.9c-0.4,1.6-1,3.1-1.8,4.4c-1.1,1.8-2.5,3.4-4.2,4.7L131,159c-0.2,0.2-0.5,0.3-0.8,0.5s-0.5,0.3-0.8,0.5
	l-0.9,0.4l-0.4,0.2l-0.5,0.2l-0.9,0.3c-0.3,0.1-0.7,0.2-1,0.3s-0.7,0.2-1,0.2c-0.7,0.1-1.4,0.2-2.1,0.2c-0.4,0-0.7,0.1-1.1,0.1
	l-1.1-0.1h-0.6l-0.6-0.1c-0.4-0.1-0.8-0.1-1.1-0.2c-0.8-0.2-1.5-0.4-2.2-0.6c-0.7-0.3-1.5-0.6-2.2-1c-0.3-0.2-0.7-0.4-1-0.6
	c-0.2-0.1-0.4-0.2-0.5-0.3l-0.5-0.4c-0.7-0.5-1.3-1-1.9-1.6l-0.8-0.9l-0.2-0.2l-0.2-0.3l-0.4-0.5l-0.4-0.5l-0.3-0.5l-0.3-0.6
	l-0.2-0.3l-0.1-0.3l-0.6-1.2l-0.4-1.2c-1.1-3.4-1.1-7.1,0-10.5l0.4-1.2l0.6-1.2l0.1-0.3l0.2-0.3l0.3-0.6l0.3-0.5l0.4-0.5l0.4-0.5
	l0.2-0.3l0.2-0.2l0.8-0.9c0.6-0.6,1.2-1.1,1.9-1.6l0.5-0.4c0.2-0.1,0.3-0.2,0.5-0.3c0.3-0.2,0.7-0.4,1-0.6c0.7-0.4,1.4-0.7,2.2-1
	c0.7-0.3,1.5-0.5,2.2-0.6c0.4-0.1,0.8-0.1,1.1-0.2l0.6-0.1h0.6l1.1-0.1c0.4,0,0.7,0,1.1,0.1c0.7,0,1.4,0.1,2.1,0.2
	c0.3,0,0.7,0.2,1,0.2s0.7,0.2,1,0.3l0.9,0.3l0.5,0.2l0.4,0.2l0.9,0.4c0.3,0.1,0.5,0.3,0.8,0.5l0.8,0.5l0.7,0.5
	c1.7,1.3,3.1,2.9,4.2,4.7c0.8,1.4,1.4,2.9,1.8,4.4c0.1,0.3,0.2,0.6,0.2,0.9l0.1,0.8c0,0.2,0.1,0.5,0.1,0.7v0.6v0.8
	C138.2,145.1,138.2,145.2,138.2,145.2z"/>
<rect x="59.8" y="98.5" class="st3" width="120.6" height="6"/>
<path class="st6" d="M63.7,101.4c0,0.4-0.4,0.8-0.8,0.8c-0.4,0-0.8-0.4-0.8-0.8c0-0.4,0.4-0.8,0.8-0.8
	C63.3,100.5,63.7,100.9,63.7,101.4z"/>
<path class="st6" d="M66.4,101.4c0,0.4-0.4,0.8-0.8,0.8c-0.4,0-0.8-0.4-0.8-0.8c0-0.5,0.4-0.8,0.8-0.8
	C66,100.5,66.4,100.9,66.4,101.4z"/>
<path class="st6" d="M69.1,101.4c0,0.4-0.4,0.8-0.8,0.8c-0.4,0-0.8-0.4-0.8-0.8c0-0.5,0.4-0.8,0.8-0.8
	C68.7,100.5,69.1,100.9,69.1,101.4z"/>
<path class="st3" d="M167.1,123c0,0.1-20.9,0.1-46.7,0.1s-46.7-0.1-46.7-0.1s20.9-0.1,46.7-0.1S167.1,123,167.1,123z"/>
<path class="st3" d="M167.1,125.3c0,0.1-20.9,0.1-46.7,0.1s-46.7,0-46.7-0.1s20.9-0.1,46.7-0.1S167.1,125.3,167.1,125.3z"/>
<path class="st7" d="M105.8,96c0,0-0.8-1.9-1-2.3c-0.4-1.1-3.1-8.6-2.5-9.8c3-5.2,5.3-9,11.2-9l10.5-0.1c0,0,9.9-2,16.8,20.4
	L105.8,96z"/>
<path class="st7" d="M83.8,97.9l13.7-2.9l16-8.4l0.1-11.5c-2.4-0.7-7,1-15.3,5.2l-12.3,6.3c-3.6,1.8-5,6.3-3.1,9.8
	C83.1,96.9,83.4,97.4,83.8,97.9z"/>
<path class="st11" d="M114.5,120.2c-0.2-0.7-0.1-1.1,0.9-0.8c2.1,0.7,3.9,0.5,4.4,0.1s0-1.2-0.6-1.1c-0.7,0-1.5-0.1-2.2-0.3
	c-0.6-0.1-1.1-0.4-1.6-0.7c-0.4-0.3-0.8-0.5-1.2-0.8c-1-0.7-1.8-1.5-2.5-2.5l-6.6,2.8l1.1,3.3c0.2,1.2,1.1,2.1,2.2,2.6
	c1.6,0.4,3.2,0.5,4.9,0.4c0.6-0.4,2.7,2.7,3.3,3.8c0.6,1.1,1.4,1.2,1.7,0.6c0.2-0.4-1.7-3.8-2.4-4.9
	C115.3,121.8,114.9,121,114.5,120.2"/>
<path class="st12" d="M110.1,123.2c0,0-0.2,0-0.4-0.1c-0.3-0.2-0.5-0.4-0.7-0.7c-0.2-0.3-0.2-0.6-0.2-0.9c0-0.2,0.1-0.4,0.1-0.4
	c0,0.4,0.1,0.8,0.3,1.2C109.4,122.6,109.7,122.9,110.1,123.2z"/>
<path class="st12" d="M112.1,123.2c0,0-0.2,0-0.4-0.1c-0.3-0.2-0.5-0.4-0.6-0.7c-0.2-0.3-0.2-0.6-0.2-0.9c0-0.2,0.1-0.4,0.1-0.4
	c0,0.4,0.1,0.8,0.3,1.2C111.5,122.7,111.8,123,112.1,123.2z"/>
<path class="st7" d="M83.4,97.4c0,0,20.9,24,20.9,23.6s9.4-7.4,9.4-7.4L93.2,89.2L83.4,97.4z"/>
<path class="st5" d="M96.1,92.7l0.1,0.1l0.4,0.4c0.4,0.4,0.8,1,1.4,1.6c1.2,1.4,2.8,3.3,4.6,5.4s3.4,4,4.5,5.4l1.4,1.7l0.4,0.5
	c0.1,0.1,0.1,0.2,0.1,0.2l-0.1-0.2l-0.4-0.4l-1.4-1.6c-1.2-1.4-2.8-3.3-4.6-5.4s-3.4-4.1-4.5-5.4l-1.4-1.7l-0.4-0.5
	C96.1,92.8,96.1,92.7,96.1,92.7z"/>
<path class="st5" d="M133.1,95.5c0.1-0.5,0.2-1,0.2-1.5c0-0.6-0.1-1.1-0.3-1.7c-0.2-0.6-0.6-1.2-1.1-1.7c-0.5-0.5-1.1-1-1.5-1.5
	c-0.4-0.4-0.7-0.9-0.9-1.5c-0.1-0.4-0.2-0.8-0.2-1.2c0-0.1,0-0.3,0.1-0.4c-0.1,0.5,0,1,0.2,1.5c0.2,0.5,0.6,1,0.9,1.4
	c0.4,0.5,1,0.9,1.5,1.5c0.5,0.5,0.9,1.1,1.1,1.8c0.2,0.5,0.3,1.1,0.2,1.7c0,0.4-0.1,0.8-0.2,1.2C133.2,95.2,133.2,95.3,133.1,95.5z"
	/>
<path class="st5" d="M104.9,77c0.1-0.1,0.2-0.1,0.3-0.1c0.3-0.1,0.6-0.2,0.9-0.3c0.5-0.2,1-0.3,1.5-0.3c0.7-0.1,1.4,0,2,0.2
	c0.8,0.3,1.5,0.7,2.1,1.3c0.6,0.7,1.1,1.6,1.2,2.5c0.2,1,0.3,2.1,0.2,3.1c-0.1,1.1-0.5,2.2-1.2,3.1c-0.7,0.9-1.5,1.7-2.5,2.2
	c-0.9,0.6-1.8,1-2.7,1.5l-4.6,2.4L99,94.3l-0.9,0.4l-0.3,0.1c0,0,0.1-0.1,0.3-0.2l0.8-0.5l3-1.7l4.6-2.5c0.9-0.5,1.8-0.9,2.7-1.5
	c0.9-0.6,1.8-1.3,2.4-2.2c0.6-0.9,1-1.9,1.1-3c0.1-1,0-2-0.2-3c-0.2-0.9-0.6-1.8-1.2-2.4c-0.5-0.6-1.2-1.1-2-1.3
	c-0.6-0.2-1.3-0.3-2-0.2c-0.5,0-1,0.1-1.5,0.3l-0.9,0.3C105,76.9,105,77,104.9,77z"/>
<path class="st5" d="M98.4,94.9c-0.4-2-1.6-3.8-3.2-5c0.3,0.1,0.5,0.3,0.8,0.5c0.6,0.5,1.1,1,1.5,1.6c0.4,0.6,0.7,1.3,0.9,2
	C98.4,94.3,98.4,94.6,98.4,94.9z"/>
<path class="st4" d="M129.1,92.3c-0.1,0.1-0.3,0.1-0.4,0.1c-0.4,0.1-0.9,0.1-1.3,0.1c-0.7-0.1-1.4-0.3-2-0.7
	c-0.8-0.5-1.4-1.2-1.8-2.1c-0.5-1-0.6-2.2-0.2-3.3c0.2-0.6,0.6-1.2,1.1-1.5c0.3-0.2,0.7-0.3,1-0.2c0.4,0.1,0.7,0.3,0.9,0.6
	c0.8,1.2,0.9,2.8,0.5,4.2c-0.2,0.7-0.6,1.4-1.2,1.9c-0.6,0.6-1.2,0.9-2,1.2c-1.5,0.4-3.2,0.1-4.3-1c-1.1-1-1.6-2.5-1.3-4
	c0.1-0.7,0.4-1.3,0.8-1.8c0.2-0.3,0.5-0.5,0.8-0.6c0.3-0.1,0.7-0.1,1,0c0.6,0.3,0.9,0.8,1,1.4c0,0.5-0.1,1.1-0.3,1.6
	c-0.7,1.5-1.9,2.7-3.4,3.4c-0.4,0.2-0.8,0.4-1.2,0.5l-0.3,0.1h-0.1h0.1l0.3-0.1c0.4-0.1,0.8-0.3,1.2-0.5c0.6-0.3,1.2-0.7,1.7-1.2
	c0.7-0.6,1.2-1.4,1.6-2.2c0.2-0.5,0.3-1,0.3-1.5c-0.1-0.6-0.4-1-0.9-1.3c-0.3-0.1-0.6-0.1-0.8,0c-0.3,0.1-0.5,0.3-0.7,0.5
	c-0.4,0.5-0.7,1.1-0.8,1.8c-0.2,1.4,0.3,2.8,1.3,3.8c1.1,1,2.7,1.4,4.2,1c0.7-0.2,1.4-0.6,1.9-1.1c0.5-0.5,0.9-1.2,1.1-1.9
	c0.2-0.7,0.3-1.4,0.2-2.1c0-0.3-0.1-0.7-0.2-1c-0.1-0.3-0.2-0.6-0.4-0.9c-0.2-0.3-0.5-0.4-0.8-0.5c-0.3-0.1-0.6,0-0.9,0.2
	c-0.5,0.3-0.8,0.8-1,1.4c-0.3,1.1-0.2,2.2,0.2,3.2c0.4,0.8,1,1.5,1.8,2c0.6,0.4,1.2,0.6,1.9,0.7C128,92.4,128.6,92.4,129.1,92.3z"/>
<path class="st12" d="M130.7,68.9c-0.4-0.5-0.8-1.2-0.9-1.9c-0.1-0.2-0.1-0.5,0-0.7c0.1-0.2,0.3-0.4,0.5-0.4c0.2,0,0.4,0.2,0.5,0.4
	c0.4,0.6,0.7,1.2,1,1.8c0.1,0.2,0.1,0.4,0.1,0.6c0,0.2-0.1,0.4-0.3,0.5c-0.2,0.1-0.4,0.1-0.6-0.1c-0.2-0.1-0.3-0.3-0.4-0.5"/>
<path class="st12" d="M131.7,68.4l-1-2.2c-0.1-0.2-0.2-0.4-0.2-0.7c0-0.2,0.1-0.5,0.3-0.6c0.2-0.1,0.4,0,0.6,0.2
	c0.1,0.2,0.3,0.3,0.4,0.5l0.5,1c0.1,0.2,0.3,0.5,0.3,0.8c0.1,0.3,0,0.6-0.2,0.8C132.2,68.6,131.9,68.6,131.7,68.4"/>
<path class="st11" d="M127.1,75.1c-0.7-0.8-1.2-1.8-1.6-2.8c-0.1-1,1.1-2.7,3.6-3.1c0.9-0.1,1.8-0.4,2.6-0.9c0.3-0.2,0.4-0.6,0.3-1
	c-0.4-0.8-0.7-1.7-0.9-2.6c0.1-0.5,0.5-0.5,1.4,0.8s1.9,2.6,1.7,3.2s-3.3,2.5-3.3,2.5l0.9,1.4L127.1,75.1z"/>
<path class="st7" d="M135.6,94.2l-9.9-19.4l6.4-3.6l13.4,21.2c0,0,0.7,1.3,1.7,2.9H136"/>
<path class="st5" d="M132,71.3c0,0,0,0-0.1,0.1l-0.3,0.2l-1.3,0.8l-4.6,2.7v-0.1c1,2,2.2,4.2,3.5,6.7c1.9,3.7,3.5,7,4.6,9.4
	c0.6,1.2,1,2.2,1.3,2.9l0.4,0.8c0,0.1,0.1,0.2,0.1,0.3c-0.1-0.1-0.1-0.2-0.1-0.3l-0.4-0.8l-1.4-2.9c-1.2-2.4-2.8-5.7-4.7-9.4
	c-1.3-2.5-2.5-4.7-3.4-6.7v-0.1h0.1l4.6-2.6l1.3-0.7L132,71.3L132,71.3z"/>
<path class="st5" d="M105.8,96c-0.5-0.7-0.8-1.4-1.1-2.2c-0.3-0.8-0.5-1.5-0.6-2.4c0.1,0,0.3,1,0.8,2.3S105.8,96,105.8,96z"/>
<path class="st5" d="M127.6,67.4c2,0.8,4.3-0.2,5.1-2.2c0.5-1.2,0.3-2.6-0.5-3.7c2.3-0.7,3.6-3.1,3.2-5.4c-0.6-2.3-2.4-4-4.7-4.5
	c-0.9-0.2-1.8-0.2-2.6,0.1c-0.9,0.2-1.6,0.9-2,1.7"/>
<path class="st8" d="M127.3,62.3c-0.3,0.1-0.5,0.2-0.8,0.3c-0.7,0.4-1.2,0.9-1.5,1.6c-0.2,0.5-0.3,1-0.3,1.5c0,0.6,0.2,1.2,0.5,1.7
	c0.2,0.3,0.4,0.5,0.6,0.7c0.3,0.2,0.5,0.4,0.8,0.5c0.6,0.3,1.3,0.3,2,0.2c0.7-0.1,1.3-0.5,1.8-1c0.2-0.2,0.4-0.5,0.5-0.8
	c0.4-0.8,0.4-1.8,0-2.6c-0.2-0.5-0.5-0.9-0.9-1.2c-0.6-0.5-1.3-0.8-2-0.8C127.8,62.3,127.6,62.3,127.3,62.3c0,0,0.1,0,0.2-0.1
	c0.2,0,0.4-0.1,0.6-0.1c0.8,0,1.5,0.3,2.1,0.8c0.4,0.3,0.8,0.8,1,1.3c0.2,0.6,0.3,1.2,0.3,1.8c-0.2,1.5-1.2,2.7-2.7,3
	c-0.7,0.2-1.5,0.1-2.2-0.2c-0.6-0.3-1.2-0.7-1.5-1.3c-0.3-0.5-0.5-1.1-0.5-1.8c0-0.5,0.1-1.1,0.3-1.6c0.3-0.7,0.9-1.3,1.6-1.6
	c0.2-0.1,0.4-0.2,0.6-0.2C127.1,62.4,127.2,62.4,127.3,62.3z"/>
<path class="st5" d="M129,56.2c2.1-0.1,3.7-1.9,3.6-4c-0.1-1.2-0.7-2.4-1.8-3c0.9-2.5-0.4-5.2-2.9-6.1c-1.4-0.5-3-0.3-4.2,0.5
	c-1.7-3-5.6-4.1-8.6-2.4c-1.6,0.9-2.7,2.5-3.1,4.2c-3.1-1.3-6.7,0.2-8,3.3c-0.7,1.6-0.6,3.4,0.1,5c-2.6,0.2-4.5,2.5-4.3,5.1
	c0.2,2.6,2.5,4.5,5.1,4.3c-0.7,2.2,0.6,4.5,2.8,5.2c1.2,0.4,2.5,0.2,3.6-0.5c1.3,2.1,4.1,2.8,6.3,1.5c0.9-0.6,1.6-1.4,1.9-2.4"/>
<path class="st11" d="M124.2,74.5c0.1-1.9,0.2-3.6,0.2-3.6c2.5-0.3,4.3-2.4,4.4-4.9c0.2-4.3-0.2-14.3-0.2-14.3l-7.8-3.7l-8.4,6.8
	l1.3,19.9c0.2,2.9,2.6,5.1,5.5,4.9l0,0C122,79.5,124.2,77.2,124.2,74.5z"/>
<path class="st5" d="M128.4,59.1c-0.1,0.1-0.5-0.3-1.1-0.3s-1,0.3-1.1,0.2s0-0.2,0.2-0.3c0.5-0.4,1.2-0.3,1.7,0.1
	C128.4,59,128.4,59.1,128.4,59.1z"/>
<path class="st5" d="M122,59.1c-0.1,0.1-0.5-0.3-1.1-0.3s-1,0.3-1.1,0.2s0-0.2,0.2-0.3c0.3-0.2,0.6-0.3,0.9-0.2
	c0.3,0,0.6,0.1,0.8,0.3C121.9,59,122,59.1,122,59.1z"/>
<path class="st5" d="M124.2,63.5c0.3-0.1,0.6-0.1,0.9-0.1c0.2,0,0.3,0,0.3-0.1c0-0.2,0-0.3-0.1-0.5l-0.4-1.2c-0.4-1-0.7-2.1-0.9-3.2
	c0.5,1,0.9,2.1,1.2,3.1l0.4,1.2c0.1,0.2,0.1,0.4,0.1,0.6c0,0.1-0.1,0.2-0.2,0.2c-0.1,0-0.2,0-0.2,0
	C124.8,63.5,124.5,63.5,124.2,63.5z"/>
<path class="st12" d="M124.4,70.9c-2-0.1-4-0.7-5.6-1.9c1,2,3.3,3.2,5.5,2.9L124.4,70.9z"/>
<path class="st5" d="M118.4,48.2c-1.4,2-1.4,4.7,0.1,6.6c0.6,0.9,1.6,1.4,2.6,1.5c1,0,1.8-0.9,1.8-1.9c0,0,0-0.1,0-0.1
	c-0.4,1.1,0.3,2.3,1.4,2.7c1.1,0.4,2.3-0.3,2.7-1.4c0.1-0.4,0.1-0.8,0-1.2c0.1,0.5,0.2,0.9,0.5,1.3c0.2,0.4,0.7,0.7,1.2,0.6
	c0.7-0.1,1-0.8,1.2-1.4c0.4-2-0.2-4-1.7-5.4c-1.5-1.4-3.4-2-5.4-1.9c-2,0.2-3.8,1-5.3,2.3"/>
<path class="st5" d="M119,49.7c0.5,1.2,0.8,2.5,0.9,3.9c0,1.4-0.5,2.7-1.4,3.7c-1,1-2.4,1.3-3.7,0.9c0.3,1.2,0.1,2.4-0.5,3.5
	c-0.7,1-2.1,1.4-3.2,0.8c-0.9-0.6-1.5-1.7-1.5-2.8c-0.6-4.9,2.9-9.3,7.7-9.9c0.6-0.1,1.3-0.1,1.9,0"/>
<path class="st11" d="M113.6,60c-0.6-0.3-1.4-0.1-1.8,0.4c-0.9,1-0.9,2.6,0.2,3.5c0.6,0.6,1.5,0.8,2.3,0.6"/>
<path class="st12" d="M113.5,63.3c0,0-0.2,0.1-0.5,0c-0.4-0.1-0.7-0.4-0.9-0.8c-0.1-0.2-0.1-0.5,0-0.7c0.1-0.2,0.2-0.3,0.4-0.4
	c0.3-0.2,0.5-0.2,0.5-0.2s-0.2,0.1-0.4,0.3c-0.3,0.2-0.4,0.6-0.3,0.9c0.1,0.3,0.4,0.6,0.8,0.7C113.3,63.2,113.5,63.2,113.5,63.3z"/>
<path class="st5" d="M122.3,57.3c0,0.2-0.7,0.1-1.4,0.1s-1.4,0.1-1.4,0s0.5-0.6,1.4-0.6S122.4,57.2,122.3,57.3z"/>
<path class="st5" d="M128.4,57.2c-0.1,0.1-0.2,0-0.3,0c-0.2,0-0.4,0-0.5,0c-0.2,0-0.5,0.1-0.7,0.1s-0.3,0-0.3-0.1s0.1-0.2,0.2-0.3
	c0.2-0.1,0.5-0.2,0.7-0.2c0.3,0,0.6,0.1,0.8,0.3C128.4,57,128.4,57.1,128.4,57.2z"/>
<path class="st12" d="M123.1,64.6c0.3-0.2,0.7-0.3,1.1-0.2c0.4,0.1,0.6,0.5,0.5,0.9c-0.1,0.2-0.2,0.4-0.3,0.5
	c-0.3,0.2-0.6,0.3-0.9,0.2c-0.3-0.1-0.6-0.3-0.7-0.6C122.8,65.1,122.9,64.8,123.1,64.6"/>
<path class="st5" d="M125.3,65.1c0,0-0.1,0.1-0.4,0.2c-0.4,0.1-0.8,0-1.1-0.1c-0.3-0.1-0.6-0.4-0.8-0.7c-0.2-0.2-0.2-0.4-0.2-0.4
	s0.1,0.1,0.3,0.3c0.2,0.3,0.5,0.5,0.8,0.6c0.3,0.1,0.7,0.2,1,0.2C125.1,65.1,125.3,65,125.3,65.1z"/>
<path class="st8" d="M116.5,67.1c0,0,0-0.3-0.2-0.8c-0.3-1.3-1.4-2.2-2.6-2.4c-0.6-0.1-1.2-0.1-1.7,0.2c-0.3,0.1-0.6,0.3-0.8,0.4
	c-0.3,0.2-0.5,0.4-0.7,0.7c-0.4,0.6-0.6,1.2-0.6,1.9c0,0.7,0.2,1.4,0.6,1.9c0.7,1,2,1.5,3.2,1.3c1.3-0.2,2.3-1.1,2.6-2.4
	C116.5,67.5,116.5,67.2,116.5,67.1c0,0.1,0,0.2,0,0.3c0,0.2,0,0.4-0.1,0.6c-0.3,1.3-1.4,2.3-2.7,2.6c-0.6,0.1-1.2,0.1-1.8-0.1
	c-0.3-0.1-0.6-0.3-0.9-0.5c-0.3-0.2-0.5-0.5-0.7-0.7c-0.9-1.2-0.9-2.9,0-4.1c0.2-0.3,0.5-0.5,0.7-0.7c0.3-0.2,0.6-0.4,0.9-0.5
	c0.6-0.2,1.2-0.3,1.8-0.1c0.5,0.1,1,0.3,1.4,0.7c0.6,0.5,1.1,1.1,1.2,1.9c0,0.2,0.1,0.4,0.1,0.6C116.5,67,116.5,67.1,116.5,67.1z"/>
<path class="st7" d="M128.4,47.8h0.1c0.1,0,0.2,0.1,0.3,0.2c0.3,0.3,0.4,0.7,0.4,1.1c-0.2,0.6-0.7,1.1-1.3,1.2
	c-0.8,0.1-1.6-0.1-2.3-0.5l-0.8-0.5l0.9,0.3c0.3,0.1,0.5,0.4,0.6,0.7c0.1,0.3,0,0.7-0.1,0.9c-0.2,0.3-0.5,0.5-0.8,0.6
	c-0.3,0.1-0.7,0.1-1,0c-0.7-0.3-1.3-0.8-1.7-1.5l-0.6-0.8l0.7,0.7c0.4,0.4,0.5,0.9,0.4,1.5c-0.1,0.5-0.4,0.9-0.9,1.1
	c-0.7,0.3-1.6,0.2-2.2-0.3c-0.4-0.3-0.7-0.8-0.8-1.2c0-0.1-0.1-0.3-0.1-0.4c0-0.1,0-0.1,0-0.1s0,0.2,0.2,0.5
	c0.2,0.5,0.5,0.9,0.9,1.2c0.6,0.5,1.4,0.5,2.1,0.2c0.4-0.2,0.7-0.6,0.8-1c0.1-0.5,0-0.9-0.3-1.3l0.2-0.1c0.4,0.6,0.9,1.1,1.6,1.4
	c0.6,0.2,1.2,0,1.6-0.5c0.3-0.4,0.2-1-0.3-1.3c0,0-0.1,0-0.1,0l0.1-0.2c0.6,0.4,1.4,0.6,2.2,0.5c0.6-0.1,1.1-0.5,1.3-1
	c0.1-0.4,0-0.8-0.3-1.1C128.6,47.9,128.5,47.8,128.4,47.8z"/>
<path class="st7" d="M118,54.7C118,54.7,118,54.7,118,54.7l-0.2,0.3c-0.2,0.2-0.5,0.4-0.9,0.5c-0.5,0.2-1.1,0.2-1.6,0
	c-0.7-0.2-1.2-0.7-1.6-1.3h0.2c-0.2,1-1,1.8-2,2.1c-1.2,0.2-2.3-0.4-2.8-1.4c-0.4-1-0.2-2.1,0.5-2.8l0.1,0.2c-0.5,0.4-1,0.6-1.6,0.6
	c-0.5,0-1.1-0.1-1.5-0.4c-0.4-0.3-0.7-0.6-0.9-1.1c-0.2-0.4-0.2-0.8-0.2-1.2c0-0.6,0.3-1.1,0.7-1.6c0.1-0.2,0.3-0.3,0.5-0.4
	c-0.1,0.1-0.3,0.3-0.4,0.4c-0.6,0.8-0.7,1.8-0.4,2.7c0.2,0.4,0.5,0.8,0.9,1c0.4,0.3,0.9,0.4,1.4,0.4c0.6,0,1.1-0.2,1.5-0.6l0.1,0.2
	c-0.7,0.7-0.9,1.7-0.5,2.6c0.5,1,1.5,1.5,2.6,1.3c0.9-0.2,1.6-1,1.8-1.9v-0.3l0.1,0.3c0.3,0.6,0.8,1.1,1.4,1.3c0.5,0.2,1,0.2,1.5,0
	c0.3-0.1,0.6-0.3,0.9-0.5C117.9,54.8,118,54.7,118,54.7z"/>
<path class="st7" d="M110.3,61.7c-0.1,0.1-0.2,0.2-0.3,0.2c-0.3,0.1-0.7,0.2-1.1,0.2c-0.6,0-1.1-0.3-1.5-0.7c-0.5-0.5-0.7-1.3-0.6-2
	l0.2,0.1c-0.4,0.5-0.9,0.9-1.5,1.2c-0.4,0.2-0.9,0.3-1.4,0.3c-0.5,0-0.9-0.1-1.3-0.4c-0.7-0.4-1.2-1.1-1.2-1.8c0-0.5,0.1-1,0.4-1.5
	c0.1-0.1,0.2-0.2,0.3-0.3c0.1,0,0.1-0.1,0.1-0.1c-0.1,0.1-0.2,0.3-0.3,0.4c-0.6,1-0.3,2.3,0.7,3c0.1,0,0.1,0.1,0.2,0.1
	c0.8,0.4,1.7,0.4,2.6,0c0.5-0.3,1-0.7,1.4-1.1l0.2-0.3l-0.1,0.4c-0.1,0.7,0.1,1.3,0.5,1.8c0.4,0.4,0.8,0.7,1.4,0.7
	c0.3,0,0.7,0,1-0.1C110.1,61.7,110.3,61.6,110.3,61.7z"/>
<path class="st7" d="M132.4,53.2c0.1,0.2,0.1,0.5,0.1,0.7c-0.1,1.2-1.1,2.2-2.3,2.4c-0.2,0-0.5,0-0.7-0.1c0,0,0.3,0,0.7-0.1
	c1.1-0.2,2-1.1,2.2-2.2C132.4,53.5,132.3,53.2,132.4,53.2z"/>
<path class="st7" d="M134.7,57.3c0.1,0.1,0.1,0.2,0.1,0.3c0.1,0.3,0,0.6-0.1,0.9c-0.1,0.4-0.5,0.8-0.9,0.9c-0.3,0.1-0.5,0-0.8-0.1
	c-0.3-0.1-0.5-0.3-0.6-0.6l0.2-0.1c0,0.1,0,0.3,0,0.4c0,0.6-0.4,1.2-1,1.4c-0.3,0.1-0.5,0.1-0.8,0c-0.2-0.1-0.4-0.2-0.6-0.3
	c-0.2-0.2-0.4-0.5-0.5-0.8c0-0.1,0-0.2,0-0.3c0,0,0,0.1,0.1,0.3c0.1,0.3,0.3,0.5,0.5,0.7c0.3,0.3,0.8,0.4,1.2,0.2
	c0.5-0.2,0.8-0.7,0.8-1.2c0-0.1,0-0.2,0-0.3l0.2-0.1c0.2,0.4,0.7,0.7,1.2,0.6c0.4-0.1,0.7-0.4,0.9-0.7c0.1-0.2,0.2-0.5,0.1-0.8
	C134.8,57.4,134.7,57.3,134.7,57.3z"/>
<path class="st5" d="M122.8,63.1c0,0,0,0.1,0,0.2c-0.1,0.2-0.2,0.3-0.3,0.4c-0.1,0.1-0.3,0.2-0.5,0.2c-0.1,0-0.2,0-0.2,0
	s0.3-0.1,0.6-0.3S122.8,63.1,122.8,63.1z"/>
<path class="st8" d="M215.8,174.9c-1,1.4-2.9,0.9-3.7,0.1c-0.8-0.9-1.3-2.1-1.6-3.3c-0.8-2.7-1.6-5.5-1-8.2c0.1-0.8,0.5-1.6,1.1-2.2
	c0.6-0.6,1.4-0.9,2.3-0.8c0.9,0.4,1.7,1.1,2,2.1c1.3,2.6,1.9,5.5,1.9,8.4C216.8,172.4,216.5,173.7,215.8,174.9"/>
<g class="st13">
	<path d="M215.8,174.9c-1,1.4-2.9,0.9-3.7,0.1c-0.8-0.9-1.3-2.1-1.6-3.3c-0.8-2.7-1.6-5.5-1-8.2c0.1-0.8,0.5-1.6,1.1-2.2
		c0.6-0.6,1.4-0.9,2.3-0.8c0.9,0.4,1.7,1.1,2,2.1c1.3,2.6,1.9,5.5,1.9,8.4C216.8,172.4,216.5,173.7,215.8,174.9"/>
</g>
<path class="st8" d="M212.1,182c-1.6-0.8-3.5-1-5.2-0.6c-1,0.1-1.9,0.5-2.6,1.1c-0.7,0.7-0.7,1.9,0,2.6c0.5,0.3,1.1,0.5,1.6,0.4
	c1.4,0,2.9-0.3,4,0.6c0.6,0.5,1.1,1.3,1.8,1.5c0.8,0.2,1.6-0.2,2-0.9c0.4-0.7,0.4-1.5,0.2-2.2C213.8,183.4,213.1,182.5,212.1,182z"
	/>
<path class="st8" d="M218.5,176.9c-1-1.3-1.3-3.1-0.8-4.7c0.5-1.6,1.5-2.9,2.8-4c1.4-1.3,3.1-2.3,4.9-2.9c0.7-0.3,1.5-0.4,2.2-0.4
	c0.8,0,1.5,0.5,1.9,1.1c0.5,1,0,2.2-0.5,3.2c-0.9,1.7-2,3.4-3.2,4.9c-0.9,1.3-2.1,2.4-3.6,3.1c-1.5,0.6-3,0.5-3.8-0.5"/>
<path class="st5" d="M215.9,195.9c-0.1-0.2-0.1-0.4-0.1-0.6c0-0.5-0.1-1-0.2-1.7c-0.1-0.8-0.2-1.7-0.4-2.5c-0.2-1-0.5-2-0.9-3
	c-0.4-1-0.9-1.9-1.5-2.7c-0.5-0.7-1.2-1.2-1.9-1.6c-0.5-0.3-1.1-0.4-1.6-0.5c-0.2,0-0.4,0-0.6-0.1c0.2,0,0.4,0,0.6,0
	c0.6,0,1.2,0.2,1.7,0.4c0.8,0.4,1.5,0.9,2,1.6c0.7,0.8,1.2,1.8,1.6,2.8c0.4,1,0.7,2,0.9,3c0.2,0.8,0.3,1.7,0.3,2.6
	c0.1,0.7,0.1,1.3,0.1,1.7C215.9,195.4,215.9,195.7,215.9,195.9z"/>
<path class="st5" d="M215.7,194.6c0-0.1,0-0.2,0-0.3c0-0.2,0-0.5,0-0.8c0-0.7,0-1.8,0-3.1c-0.1-2.6-0.3-6.2-0.7-10.1
	s-1-7.5-1.5-10.1c-0.1-0.6-0.2-1.2-0.4-1.7s-0.2-0.9-0.3-1.3l-0.2-0.8c0-0.1,0-0.2-0.1-0.3c0.1,0.1,0.1,0.2,0.1,0.3l0.2,0.8
	c0.1,0.4,0.2,0.8,0.3,1.3s0.3,1.1,0.4,1.7c0.7,3.3,1.3,6.7,1.6,10.1c0.4,3.9,0.6,7.6,0.6,10.2c0,1.3,0,2.4,0,3.1c0,0.3,0,0.6,0,0.8
	C215.9,194.4,215.8,194.5,215.7,194.6z"/>
<path class="st5" d="M215.7,187.6c0-0.3,0-0.6,0-0.9c0-0.8,0.1-1.6,0.3-2.4c0.2-1.2,0.4-2.3,0.8-3.5c0.4-1.4,0.9-2.8,1.4-4.1
	c1-2.4,2.4-4.7,4.2-6.6c0.3-0.3,0.6-0.6,1-0.9c0.1-0.1,0.3-0.3,0.4-0.4l0.4-0.3c0.2-0.2,0.5-0.3,0.7-0.5c-0.9,0.7-1.7,1.4-2.4,2.1
	c-1.7,1.9-3.1,4.2-4.1,6.6c-0.6,1.3-1.1,2.6-1.4,4c-0.3,1.1-0.6,2.3-0.8,3.4c-0.2,1-0.3,1.8-0.4,2.4
	C215.8,187,215.8,187.3,215.7,187.6z"/>
<path class="st5" d="M225.3,59.4h0.8c0.4,0,0.9,0.1,1.3,0.2c0.3,0,0.5,0.1,0.8,0.1l0.9,0.2c1.6,0.5,3,1.2,4.4,2.2
	c1.7,1.3,3.2,2.9,4.3,4.8c0.6,1.1,1.1,2.3,1.5,3.5c0.4,1.3,0.6,2.6,0.6,4c0,0.7,0,1.4-0.1,2.1c0,0.4-0.1,0.7-0.1,1.1
	c0,0.4-0.1,0.7-0.2,1.1c-1.1,4.8-4.5,8.8-9,10.8c-3.3,1.4-7.1,1.5-10.5,0.3l-0.5-0.2h0.1l-7.4,3.7l-0.3,0.2l0.2-0.4l2.4-7v0.2
	c-1.8-1.9-3.1-4.1-3.8-6.6c-1.3-4.3-0.7-9,1.6-12.8c0.9-1.5,2.1-2.9,3.4-4.1c1.1-0.9,2.4-1.7,3.7-2.3c1-0.4,2-0.7,3.1-0.9l1.2-0.2
	h0.9h0.7c0,0-0.1,0-0.2,0h-0.5l-0.9,0.1l-1.1,0.2c-2.5,0.5-4.8,1.6-6.7,3.2c-2.9,2.5-4.8,6-5.4,9.8c-0.3,2.3-0.2,4.6,0.5,6.9
	c0.7,2.4,2,4.6,3.8,6.5l0.1,0.1v0.1l-2.4,7.1L212,93l7.4-3.7h0.1h0.1l0.5,0.2c1.7,0.6,3.4,0.9,5.2,0.8c1.7-0.1,3.4-0.4,5-1.1
	c4.5-1.9,7.8-5.9,8.9-10.6c0.1-0.4,0.2-0.7,0.2-1.1c0.1-0.4,0.2-0.7,0.2-1.1c0.1-0.7,0.1-1.4,0.1-2.1c0-2.6-0.7-5.1-2-7.4
	c-1-1.9-2.5-3.5-4.2-4.8c-1.3-1-2.7-1.7-4.3-2.2l-0.9-0.3c-0.3-0.1-0.6-0.1-0.8-0.2c-0.4-0.1-0.8-0.2-1.3-0.2L225.3,59.4H225H225.3z
	"/>
<path class="st8" d="M221.5,79.7h1.9c0,0,4.5,0.8,5.4,0.8c0.1,0,0.3,0,0.4,0c0.9-0.3,1.5-1.1,1.5-2.1c0-1.9-0.1-3.8-0.3-5.7
	c-0.3-0.3-3.8-0.4-3.8-0.4s-0.2,0.7,0-2.1s-1.4-2.7-1.4-2.7v2.2l-2.4,3.3h-1.1L221.5,79.7z"/>
<polygon class="st8" points="221,72.5 220.9,79.7 219,79.7 218.5,72.3 "/>
</svg>
